M48
; DRILL file {KiCad 9.0.7} date 2026-02-20T11:36:52-0800
; FORMAT={-:-/ absolute / metric / decimal}
; #@! TF.CreationDate,2026-02-20T11:36:52-08:00
; #@! TF.GenerationSoftware,Kicad,Pcbnew,9.0.7
; #@! TF.FileFunction,Plated,1,4,PTH
FMAT,2
METRIC
; #@! TA.AperFunction,Plated,PTH,ViaDrill
T1C0.300
; #@! TA.AperFunction,Plated,PTH,ComponentDrill
T2C0.650
; #@! TA.AperFunction,Plated,PTH,ComponentDrill
T3C0.800
; #@! TA.AperFunction,Plated,PTH,ComponentDrill
T4C1.000
; #@! TA.AperFunction,Plated,PTH,ComponentDrill
T5C1.400
; #@! TA.AperFunction,Plated,PTH,ComponentDrill
T6C2.000
; #@! TA.AperFunction,Plated,PTH,ComponentDrill
T7C2.200
; #@! TA.AperFunction,Plated,PTH,ComponentDrill
T8C3.000
%
G90
G05
T1
X107.2Y-83.0
X107.25Y-97.1
X107.35Y-72.45
X107.7Y-122.95
X108.779Y-77.54
X109.7Y-103.5
X109.95Y-100.3
X110.0Y-89.0
X110.0Y-106.05
X110.1Y-87.3
X111.0Y-111.25
X111.15Y-83.8
X111.3Y-58.7
X111.35Y-80.4
X111.35Y-87.5
X111.8Y-96.3
X112.445Y-110.342
X112.701Y-78.45
X112.75Y-109.0
X112.8Y-87.95
X113.35Y-77.8
X113.35Y-82.85
X113.5Y-113.75
X113.575Y-111.65
X113.9Y-77.05
X113.9Y-84.3
X114.8Y-68.6
X115.025Y-76.4
X115.055Y-69.4
X115.3Y-106.15
X115.6Y-100.35
X115.75Y-68.75
X116.1Y-76.15
X116.3Y-64.4
X116.75Y-69.0
X116.85Y-76.64
X117.0Y-73.2
X117.1Y-67.12
X117.35Y-90.65
X117.9Y-119.7
X117.95Y-129.3
X118.048Y-112.314
X118.2Y-56.6
X118.9Y-67.0
X118.95Y-67.95
X119.4Y-124.55
X119.9Y-67.05
X119.9Y-68.0
X121.4Y-116.55
X121.6Y-61.0
X121.779Y-66.948
X121.8Y-126.85
X122.2Y-89.47
X122.35Y-108.6
X122.5Y-123.15
X123.4Y-74.6
X123.65Y-64.15
X123.75Y-66.45
X124.15Y-76.64
X124.4Y-70.4
X124.4Y-71.4
X124.4Y-72.6
X124.4Y-73.8
X124.55Y-65.15
X124.66Y-77.66
X125.05Y-66.5
X125.1Y-78.35
X125.3Y-116.75
X125.5Y-79.148
X125.75Y-64.15
X126.0Y-74.5
X126.4Y-71.95
X127.25Y-80.4
X127.6Y-123.15
X127.65Y-79.658
X127.8Y-66.7
X127.8Y-67.8
X127.85Y-91.4
X127.908Y-74.868
X128.159Y-77.24
X128.2Y-55.6
X128.34Y-81.5
X128.35Y-80.7
X128.96Y-91.9
X129.0Y-93.75
X129.1Y-63.95
X129.36Y-81.56
X129.47Y-90.84
X129.6Y-69.45
X129.741Y-82.35
X129.75Y-92.56
X129.8Y-79.9
X129.8Y-86.35
X129.85Y-93.45
X129.95Y-77.0
X130.299Y-68.701
X130.522Y-83.035
X130.733Y-82.102
X130.85Y-130.55
X131.0Y-69.2
X131.0Y-83.9
X131.033Y-60.03
X131.1Y-114.0
X131.336Y-62.3
X131.376Y-74.55
X131.5Y-93.4
X131.826Y-56.4
X132.5Y-84.1
X132.5Y-93.25
X132.7Y-125.55
X132.939Y-64.15
X133.7Y-85.97
X133.8Y-59.6
X133.86Y-66.8
X133.9Y-61.35
X134.05Y-73.0
X134.75Y-82.85
X134.788Y-84.102
X135.1Y-61.09
X135.8Y-121.55
X136.15Y-66.9
X136.55Y-115.85
X137.7Y-55.9
X138.05Y-110.55
X138.1Y-61.6
X138.125Y-88.225
X138.75Y-126.6
X138.8Y-91.35
X138.982Y-60.032
X140.3Y-65.5
X140.45Y-121.65
X141.059Y-86.785
X141.15Y-88.25
X141.55Y-92.05
X141.8Y-89.47
X142.1Y-60.6
X142.2Y-86.9
X142.272Y-92.682
X142.3Y-58.55
X142.9Y-121.3
X143.15Y-92.25
X143.25Y-88.55
X143.57Y-62.23
X143.775Y-86.675
X143.85Y-91.7
X144.45Y-126.5
X144.8Y-91.8
X144.85Y-55.444
X145.35Y-57.2
X145.35Y-84.3
X145.75Y-54.4
X145.75Y-91.85
X145.929Y-86.69
X146.342Y-60.458
X146.4Y-88.55
X146.5Y-55.1
X146.5Y-110.6
X146.84Y-91.28
X146.95Y-58.35
X146.95Y-86.7
X147.02Y-62.23
X147.761Y-86.789
X147.8Y-98.75
X148.15Y-56.49
X148.295Y-60.968
X148.45Y-74.65
X148.55Y-86.55
X148.6Y-52.3
X148.626Y-55.824
X148.658Y-99.958
X148.7Y-115.4
X148.933Y-98.103
X149.111Y-89.1
X149.111Y-91.75
X149.111Y-95.7
X149.35Y-86.75
X149.361Y-84.161
X149.5Y-114.0
X149.55Y-87.6
X149.729Y-77.15
X149.79Y-93.56
X149.85Y-82.99
X149.9Y-55.481
X150.15Y-112.7
X150.2Y-84.15
X150.204Y-76.05
X150.75Y-77.3
X151.009Y-84.196
X151.4Y-90.73
X151.45Y-76.05
X151.55Y-77.071
X151.65Y-124.2
X151.85Y-121.05
X152.04Y-78.53
X152.1Y-77.7
X152.1Y-79.66
X152.11Y-81.75
X152.15Y-84.25
X152.2Y-117.55
X152.3Y-62.85
X152.327Y-75.0
X152.84Y-89.47
X152.85Y-91.39
X153.1Y-59.7
X153.65Y-87.15
X153.85Y-91.09
X154.55Y-116.35
X154.65Y-127.8
X154.9Y-64.65
X155.0Y-79.35
X155.033Y-82.617
X155.05Y-67.85
X155.2Y-77.5
X155.55Y-83.95
X155.75Y-86.4
X156.05Y-78.6
X156.25Y-70.85
X156.35Y-75.95
X156.35Y-114.75
X156.65Y-67.95
X156.82Y-88.96
X156.9Y-71.75
X157.5Y-90.11
X157.72Y-82.246
X157.774Y-81.44
X158.5Y-94.581
X159.6Y-125.1
X159.95Y-60.45
X160.35Y-79.6
X160.35Y-127.85
X160.45Y-93.56
X160.8Y-61.65
X161.05Y-60.45
X161.2Y-87.35
X161.25Y-107.15
X161.301Y-95.25
X161.4Y-79.55
X161.75Y-126.35
X161.76Y-102.3
X161.8Y-94.1
X162.411Y-82.368
X162.8Y-84.9
X163.05Y-120.85
X163.25Y-119.85
X163.35Y-89.65
X163.994Y-92.766
X164.125Y-90.131
X164.3Y-118.75
X164.301Y-93.649
X164.55Y-68.35
X164.75Y-60.35
X164.75Y-90.95
X164.8Y-79.44
X165.55Y-90.69
X165.95Y-80.1
X166.15Y-91.85
X166.74Y-91.2
X167.6Y-127.75
X168.15Y-126.1
X168.25Y-118.75
X168.6Y-105.5
X168.7Y-120.4
X168.7Y-121.25
X168.8Y-85.1
X168.8Y-119.45
X168.8Y-122.8
X169.6Y-123.05
X169.749Y-121.035
X170.15Y-99.5
X170.4Y-124.95
X170.66Y-100.35
X171.06Y-101.28
X171.4Y-62.15
X171.41Y-103.05
X171.91Y-106.1
X172.15Y-119.85
X172.35Y-98.9
X172.4Y-127.6
X172.931Y-105.59
X174.05Y-88.2
X174.3Y-123.65
X174.9Y-127.4
X175.15Y-103.15
X175.3Y-100.95
X175.65Y-104.8
X177.15Y-94.15
X177.3Y-98.2
X177.65Y-104.85
T2
X159.2Y-58.18
X159.2Y-59.45
X160.47Y-58.18
X160.47Y-59.45
X161.74Y-58.18
X161.74Y-59.45
X163.01Y-58.18
X163.01Y-59.45
X164.28Y-58.18
X164.28Y-59.45
X165.55Y-58.18
X165.55Y-59.45
X166.82Y-58.18
X166.82Y-59.45
T3
X148.96Y-59.25
X151.5Y-59.25
T4
X111.352Y-102.25
X111.352Y-104.75
X111.352Y-107.25
X125.852Y-102.25
X125.852Y-107.25
X127.1Y-99.878
X127.1Y-104.878
X141.6Y-99.878
X141.6Y-102.378
X141.6Y-104.878
X144.002Y-99.878
X144.002Y-102.378
X144.002Y-104.878
X158.502Y-99.878
X158.502Y-104.878
X159.75Y-102.25
X159.75Y-107.25
X174.25Y-102.25
X174.25Y-104.75
X174.25Y-107.25
T5
X109.51Y-113.77
X109.51Y-130.0
X115.86Y-113.77
X115.86Y-130.0
X122.21Y-113.77
X122.21Y-130.0
X162.8Y-114.03
X162.8Y-130.26
X169.15Y-114.03
X169.15Y-130.26
X175.5Y-114.03
X175.5Y-130.26
T7
X108.5Y-109.5
X176.5Y-110.0
T8
X109.39Y-53.7
X109.39Y-92.0
X174.89Y-53.7
X174.89Y-92.0
T6
G00X118.302Y-99.15
M15
G01X119.402Y-99.15
M16
G05
G00X118.302Y-110.35
M15
G01X119.402Y-110.35
M16
G05
G00X134.65Y-96.778
M15
G01X133.55Y-96.778
M16
G05
G00X134.65Y-107.978
M15
G01X133.55Y-107.978
M16
G05
G00X150.952Y-96.778
M15
G01X152.052Y-96.778
M16
G05
G00X150.952Y-107.978
M15
G01X152.052Y-107.978
M16
G05
G00X167.3Y-99.15
M15
G01X166.2Y-99.15
M16
G05
G00X167.3Y-110.35
M15
G01X166.2Y-110.35
M16
G05
M30
