%TF.GenerationSoftware,KiCad,Pcbnew,9.0.7*%
%TF.CreationDate,2026-02-20T11:36:51-08:00*%
%TF.ProjectId,effect-pedal,65666665-6374-42d7-9065-64616c2e6b69,rev?*%
%TF.SameCoordinates,Original*%
%TF.FileFunction,Soldermask,Bot*%
%TF.FilePolarity,Negative*%
%FSLAX46Y46*%
G04 Gerber Fmt 4.6, Leading zero omitted, Abs format (unit mm)*
G04 Created by KiCad (PCBNEW 9.0.7) date 2026-02-20 11:36:51*
%MOMM*%
%LPD*%
G01*
G04 APERTURE LIST*
G04 Aperture macros list*
%AMRoundRect*
0 Rectangle with rounded corners*
0 $1 Rounding radius*
0 $2 $3 $4 $5 $6 $7 $8 $9 X,Y pos of 4 corners*
0 Add a 4 corners polygon primitive as box body*
4,1,4,$2,$3,$4,$5,$6,$7,$8,$9,$2,$3,0*
0 Add four circle primitives for the rounded corners*
1,1,$1+$1,$2,$3*
1,1,$1+$1,$4,$5*
1,1,$1+$1,$6,$7*
1,1,$1+$1,$8,$9*
0 Add four rect primitives between the rounded corners*
20,1,$1+$1,$2,$3,$4,$5,0*
20,1,$1+$1,$4,$5,$6,$7,0*
20,1,$1+$1,$6,$7,$8,$9,0*
20,1,$1+$1,$8,$9,$2,$3,0*%
%AMFreePoly0*
4,1,35,0.500000,-0.750000,0.000000,-0.750000,0.000000,-0.748929,-0.032702,-0.748929,-0.097545,-0.740393,-0.160720,-0.723465,-0.221144,-0.698436,-0.277785,-0.665735,-0.329673,-0.625920,-0.375920,-0.579673,-0.415735,-0.527785,-0.448436,-0.471144,-0.473465,-0.410720,-0.490393,-0.347545,-0.498929,-0.282702,-0.498929,-0.250000,-0.500000,-0.250000,-0.500000,0.250000,-0.498929,0.250000,-0.498929,0.282702,
-0.490393,0.347545,-0.473465,0.410720,-0.448436,0.471144,-0.415735,0.527785,-0.375920,0.579673,-0.329673,0.625920,-0.277785,0.665735,-0.221144,0.698436,-0.160720,0.723465,-0.097545,0.740393,-0.032702,0.748929,0.000000,0.748929,0.000000,0.750000,0.500000,0.750000,0.500000,-0.750000,0.500000,-0.750000,$1*%
%AMFreePoly1*
4,1,35,0.000000,0.748929,0.032702,0.748929,0.097545,0.740393,0.160720,0.723465,0.221144,0.698436,0.277785,0.665735,0.329673,0.625920,0.375920,0.579673,0.415735,0.527785,0.448436,0.471144,0.473465,0.410720,0.490393,0.347545,0.498929,0.282702,0.498929,0.250000,0.500000,0.250000,0.500000,-0.250000,0.498929,-0.250000,0.498929,-0.282702,0.490393,-0.347545,0.473465,-0.410720,
0.448436,-0.471144,0.415735,-0.527785,0.375920,-0.579673,0.329673,-0.625920,0.277785,-0.665735,0.221144,-0.698436,0.160720,-0.723465,0.097545,-0.740393,0.032702,-0.748929,0.000000,-0.748929,0.000000,-0.750000,-0.500000,-0.750000,-0.500000,0.750000,0.000000,0.750000,0.000000,0.748929,0.000000,0.748929,$1*%
G04 Aperture macros list end*
%ADD10C,3.500000*%
%ADD11C,1.700000*%
%ADD12C,1.800000*%
%ADD13C,0.700000*%
%ADD14O,1.500000X0.800000*%
%ADD15C,0.650000*%
%ADD16C,3.000000*%
%ADD17RoundRect,0.250000X0.550000X0.550000X-0.550000X0.550000X-0.550000X-0.550000X0.550000X-0.550000X0*%
%ADD18C,1.600000*%
%ADD19O,4.100000X3.000000*%
%ADD20O,0.800000X1.500000*%
%ADD21R,1.000000X1.000000*%
%ADD22C,1.000000*%
%ADD23RoundRect,0.250000X-0.550000X-0.550000X0.550000X-0.550000X0.550000X0.550000X-0.550000X0.550000X0*%
%ADD24C,4.200000*%
%ADD25RoundRect,0.100000X-0.637500X-0.100000X0.637500X-0.100000X0.637500X0.100000X-0.637500X0.100000X0*%
%ADD26RoundRect,0.225000X-0.225000X-0.250000X0.225000X-0.250000X0.225000X0.250000X-0.225000X0.250000X0*%
%ADD27RoundRect,0.200000X-0.275000X0.200000X-0.275000X-0.200000X0.275000X-0.200000X0.275000X0.200000X0*%
%ADD28C,1.400000*%
%ADD29RoundRect,0.200000X0.275000X-0.200000X0.275000X0.200000X-0.275000X0.200000X-0.275000X-0.200000X0*%
%ADD30RoundRect,0.200000X-0.200000X-0.275000X0.200000X-0.275000X0.200000X0.275000X-0.200000X0.275000X0*%
%ADD31RoundRect,0.225000X-0.250000X0.225000X-0.250000X-0.225000X0.250000X-0.225000X0.250000X0.225000X0*%
%ADD32RoundRect,0.225000X0.250000X-0.225000X0.250000X0.225000X-0.250000X0.225000X-0.250000X-0.225000X0*%
%ADD33RoundRect,0.225000X0.225000X0.250000X-0.225000X0.250000X-0.225000X-0.250000X0.225000X-0.250000X0*%
%ADD34RoundRect,0.125000X0.125000X-0.125000X0.125000X0.125000X-0.125000X0.125000X-0.125000X-0.125000X0*%
%ADD35RoundRect,0.162500X0.162500X-0.447500X0.162500X0.447500X-0.162500X0.447500X-0.162500X-0.447500X0*%
%ADD36R,2.000000X2.000000*%
%ADD37RoundRect,0.162500X0.447500X0.162500X-0.447500X0.162500X-0.447500X-0.162500X0.447500X-0.162500X0*%
%ADD38RoundRect,0.075000X0.662500X0.075000X-0.662500X0.075000X-0.662500X-0.075000X0.662500X-0.075000X0*%
%ADD39RoundRect,0.075000X0.075000X0.662500X-0.075000X0.662500X-0.075000X-0.662500X0.075000X-0.662500X0*%
%ADD40RoundRect,0.200000X0.200000X0.275000X-0.200000X0.275000X-0.200000X-0.275000X0.200000X-0.275000X0*%
%ADD41RoundRect,0.150000X0.512500X0.150000X-0.512500X0.150000X-0.512500X-0.150000X0.512500X-0.150000X0*%
%ADD42FreePoly0,0.000000*%
%ADD43FreePoly1,0.000000*%
%ADD44R,1.500000X1.000000*%
%ADD45RoundRect,0.250000X-0.500000X-0.350000X0.500000X-0.350000X0.500000X0.350000X-0.500000X0.350000X0*%
%ADD46RoundRect,0.250000X0.275000X0.700000X-0.275000X0.700000X-0.275000X-0.700000X0.275000X-0.700000X0*%
%ADD47RoundRect,0.062500X0.062500X-0.350000X0.062500X0.350000X-0.062500X0.350000X-0.062500X-0.350000X0*%
%ADD48RoundRect,0.062500X0.350000X-0.062500X0.350000X0.062500X-0.350000X0.062500X-0.350000X-0.062500X0*%
%ADD49R,1.680000X1.680000*%
G04 APERTURE END LIST*
%TO.C,JP3*%
G36*
X129500000Y-71750000D02*
G01*
X129800000Y-71750000D01*
X129800000Y-70250000D01*
X129500000Y-70250000D01*
X129500000Y-71750000D01*
G37*
%TO.C,JP5*%
G36*
X159750000Y-82800000D02*
G01*
X158250000Y-82800000D01*
X158250000Y-81200000D01*
X159750000Y-81200000D01*
X159750000Y-82800000D01*
G37*
%TD*%
D10*
%TO.C,H2*%
X108500000Y-109500000D03*
%TD*%
D11*
%TO.C,J12*%
X121300000Y-53286000D03*
D12*
X121300000Y-57786000D03*
%TD*%
D13*
%TO.C,J6*%
X108786000Y-100120000D03*
X108786000Y-101390000D03*
X108786000Y-102660000D03*
X108786000Y-103930000D03*
X108786000Y-105200000D03*
D14*
X107631000Y-100755000D03*
X107631000Y-102025000D03*
X107631000Y-103295000D03*
X107631000Y-104565000D03*
%TD*%
D15*
%TO.C,J10*%
X138280000Y-57300000D03*
X132500000Y-57300000D03*
%TD*%
D16*
%TO.C,J1*%
X115860000Y-130000000D03*
X115860000Y-113770000D03*
X109510000Y-130000000D03*
X109510000Y-113770000D03*
X122210000Y-130000000D03*
X122210000Y-113770000D03*
%TD*%
D17*
%TO.C,SW4*%
X174250000Y-107250000D03*
D18*
X174250000Y-102250000D03*
X174250000Y-104750000D03*
D19*
X166750000Y-110350000D03*
X166750000Y-99150000D03*
D18*
X159750000Y-107250000D03*
X159750000Y-102250000D03*
%TD*%
D13*
%TO.C,J7*%
X176214000Y-103945000D03*
X176214000Y-102675000D03*
X176214000Y-101405000D03*
X176214000Y-100135000D03*
X176214000Y-98865000D03*
D14*
X177369000Y-103310000D03*
X177369000Y-102040000D03*
X177369000Y-100770000D03*
X177369000Y-99500000D03*
%TD*%
D13*
%TO.C,J8*%
X108786000Y-83750000D03*
X108786000Y-85020000D03*
X108786000Y-86290000D03*
X108786000Y-87560000D03*
X108786000Y-88830000D03*
D14*
X107631000Y-84385000D03*
X107631000Y-85655000D03*
X107631000Y-86925000D03*
X107631000Y-88195000D03*
%TD*%
D10*
%TO.C,H1*%
X176500000Y-110000000D03*
%TD*%
D13*
%TO.C,J9*%
X148000000Y-53286000D03*
X146730000Y-53286000D03*
X145460000Y-53286000D03*
X144190000Y-53286000D03*
X142920000Y-53286000D03*
D20*
X147365000Y-52131000D03*
X146095000Y-52131000D03*
X144825000Y-52131000D03*
X143555000Y-52131000D03*
%TD*%
D17*
%TO.C,SW2*%
X141600000Y-104878000D03*
D18*
X141600000Y-99878000D03*
X141600000Y-102378000D03*
D19*
X134100000Y-107978000D03*
X134100000Y-96778000D03*
D18*
X127100000Y-104878000D03*
X127100000Y-99878000D03*
%TD*%
D21*
%TO.C,J11*%
X159200000Y-59450000D03*
D22*
X159200000Y-58180000D03*
X160470000Y-59450000D03*
X160470000Y-58180000D03*
X161740000Y-59450000D03*
X161740000Y-58180000D03*
X163010000Y-59450000D03*
X163010000Y-58180000D03*
X164280000Y-59450000D03*
X164280000Y-58180000D03*
X165550000Y-59450000D03*
X165550000Y-58180000D03*
X166820000Y-59450000D03*
X166820000Y-58180000D03*
%TD*%
D23*
%TO.C,SW3*%
X144002000Y-99878000D03*
D18*
X144002000Y-104878000D03*
X144002000Y-102378000D03*
D19*
X151502000Y-96778000D03*
X151502000Y-107978000D03*
D18*
X158502000Y-99878000D03*
X158502000Y-104878000D03*
%TD*%
D16*
%TO.C,J2*%
X169150000Y-114030000D03*
X169150000Y-130260000D03*
X175500000Y-114030000D03*
X175500000Y-130260000D03*
X162800000Y-114030000D03*
X162800000Y-130260000D03*
%TD*%
D24*
%TO.C,J3*%
X109390000Y-53700000D03*
X109390000Y-92000000D03*
X174890000Y-53700000D03*
X174890000Y-92000000D03*
%TD*%
D23*
%TO.C,SW1*%
X111352000Y-102250000D03*
D18*
X111352000Y-107250000D03*
X111352000Y-104750000D03*
D19*
X118852000Y-99150000D03*
X118852000Y-110350000D03*
D18*
X125852000Y-102250000D03*
X125852000Y-107250000D03*
%TD*%
D25*
%TO.C,U2*%
X161637500Y-125403000D03*
X161637500Y-124753000D03*
X161637500Y-124103000D03*
X161637500Y-123453000D03*
X161637500Y-122803000D03*
X161637500Y-122153000D03*
X161637500Y-121503000D03*
X161637500Y-120853000D03*
X161637500Y-120203000D03*
X161637500Y-119553000D03*
X167362500Y-119553000D03*
X167362500Y-120203000D03*
X167362500Y-120853000D03*
X167362500Y-121503000D03*
X167362500Y-122153000D03*
X167362500Y-122803000D03*
X167362500Y-123453000D03*
X167362500Y-124103000D03*
X167362500Y-124753000D03*
X167362500Y-125403000D03*
%TD*%
D26*
%TO.C,C33*%
X109000000Y-122000000D03*
X110550000Y-122000000D03*
%TD*%
D27*
%TO.C,R15*%
X115300000Y-124575000D03*
X115300000Y-126225000D03*
%TD*%
D28*
%TO.C,JP1*%
X151500000Y-59250000D03*
X148960000Y-59250000D03*
%TD*%
D29*
%TO.C,R21*%
X117000000Y-72050000D03*
X117000000Y-70400000D03*
%TD*%
D30*
%TO.C,R13*%
X122775000Y-127300000D03*
X124425000Y-127300000D03*
%TD*%
D31*
%TO.C,C37*%
X115800000Y-66225000D03*
X115800000Y-67775000D03*
%TD*%
D32*
%TO.C,C35*%
X171800000Y-126506000D03*
X171800000Y-124956000D03*
%TD*%
D33*
%TO.C,C20*%
X164675000Y-126700000D03*
X163125000Y-126700000D03*
%TD*%
%TO.C,C4*%
X130275000Y-66500000D03*
X128725000Y-66500000D03*
%TD*%
D32*
%TO.C,C30*%
X174300000Y-126555000D03*
X174300000Y-125005000D03*
%TD*%
D26*
%TO.C,C11*%
X143985130Y-87630000D03*
X145535130Y-87630000D03*
%TD*%
D34*
%TO.C,D6*%
X117420000Y-62100000D03*
X117420000Y-59900000D03*
%TD*%
D29*
%TO.C,R16*%
X108400000Y-125550000D03*
X108400000Y-123900000D03*
%TD*%
D34*
%TO.C,D5*%
X119420000Y-62100000D03*
X119420000Y-59900000D03*
%TD*%
D31*
%TO.C,C40*%
X160000000Y-85150000D03*
X160000000Y-86700000D03*
%TD*%
D35*
%TO.C,D3*%
X121000000Y-122400000D03*
X119100000Y-122400000D03*
X120050000Y-119780000D03*
%TD*%
D32*
%TO.C,C31*%
X171104000Y-121575000D03*
X171104000Y-120025000D03*
%TD*%
D33*
%TO.C,C6*%
X156275000Y-88100000D03*
X154725000Y-88100000D03*
%TD*%
%TO.C,C3*%
X132325000Y-86600000D03*
X130775000Y-86600000D03*
%TD*%
D26*
%TO.C,C18*%
X128986130Y-73152000D03*
X130536130Y-73152000D03*
%TD*%
D30*
%TO.C,R10*%
X156800000Y-124100000D03*
X158450000Y-124100000D03*
%TD*%
D36*
%TO.C,TP3*%
X169600000Y-67000000D03*
%TD*%
%TO.C,TP2*%
X166100000Y-63500000D03*
%TD*%
D32*
%TO.C,C14*%
X132000000Y-64775000D03*
X132000000Y-63225000D03*
%TD*%
D37*
%TO.C,D4*%
X116860000Y-121050000D03*
X116860000Y-122950000D03*
X114240000Y-122000000D03*
%TD*%
D32*
%TO.C,C28*%
X112700000Y-130750000D03*
X112700000Y-129200000D03*
%TD*%
D29*
%TO.C,R17*%
X124500000Y-125125000D03*
X124500000Y-123475000D03*
%TD*%
D26*
%TO.C,C9*%
X150589130Y-87630000D03*
X152139130Y-87630000D03*
%TD*%
D38*
%TO.C,U1*%
X153817130Y-66000000D03*
X153817130Y-66500000D03*
X153817130Y-67000000D03*
X153817130Y-67500000D03*
X153817130Y-68000000D03*
X153817130Y-68500000D03*
X153817130Y-69000000D03*
X153817130Y-69500000D03*
X153817130Y-70000000D03*
X153817130Y-70500000D03*
X153817130Y-71000000D03*
X153817130Y-71500000D03*
X153817130Y-72000000D03*
X153817130Y-72500000D03*
X153817130Y-73000000D03*
X153817130Y-73500000D03*
X153817130Y-74000000D03*
X153817130Y-74500000D03*
X153817130Y-75000000D03*
X153817130Y-75500000D03*
X153817130Y-76000000D03*
X153817130Y-76500000D03*
X153817130Y-77000000D03*
X153817130Y-77500000D03*
X153817130Y-78000000D03*
X153817130Y-78500000D03*
X153817130Y-79000000D03*
X153817130Y-79500000D03*
X153817130Y-80000000D03*
X153817130Y-80500000D03*
X153817130Y-81000000D03*
X153817130Y-81500000D03*
X153817130Y-82000000D03*
X153817130Y-82500000D03*
X153817130Y-83000000D03*
X153817130Y-83500000D03*
D39*
X151904630Y-85412500D03*
X151404630Y-85412500D03*
X150904630Y-85412500D03*
X150404630Y-85412500D03*
X149904630Y-85412500D03*
X149404630Y-85412500D03*
X148904630Y-85412500D03*
X148404630Y-85412500D03*
X147904630Y-85412500D03*
X147404630Y-85412500D03*
X146904630Y-85412500D03*
X146404630Y-85412500D03*
X145904630Y-85412500D03*
X145404630Y-85412500D03*
X144904630Y-85412500D03*
X144404630Y-85412500D03*
X143904630Y-85412500D03*
X143404630Y-85412500D03*
X142904630Y-85412500D03*
X142404630Y-85412500D03*
X141904630Y-85412500D03*
X141404630Y-85412500D03*
X140904630Y-85412500D03*
X140404630Y-85412500D03*
X139904630Y-85412500D03*
X139404630Y-85412500D03*
X138904630Y-85412500D03*
X138404630Y-85412500D03*
X137904630Y-85412500D03*
X137404630Y-85412500D03*
X136904630Y-85412500D03*
X136404630Y-85412500D03*
X135904630Y-85412500D03*
X135404630Y-85412500D03*
X134904630Y-85412500D03*
X134404630Y-85412500D03*
D38*
X132492130Y-83500000D03*
X132492130Y-83000000D03*
X132492130Y-82500000D03*
X132492130Y-82000000D03*
X132492130Y-81500000D03*
X132492130Y-81000000D03*
X132492130Y-80500000D03*
X132492130Y-80000000D03*
X132492130Y-79500000D03*
X132492130Y-79000000D03*
X132492130Y-78500000D03*
X132492130Y-78000000D03*
X132492130Y-77500000D03*
X132492130Y-77000000D03*
X132492130Y-76500000D03*
X132492130Y-76000000D03*
X132492130Y-75500000D03*
X132492130Y-75000000D03*
X132492130Y-74500000D03*
X132492130Y-74000000D03*
X132492130Y-73500000D03*
X132492130Y-73000000D03*
X132492130Y-72500000D03*
X132492130Y-72000000D03*
X132492130Y-71500000D03*
X132492130Y-71000000D03*
X132492130Y-70500000D03*
X132492130Y-70000000D03*
X132492130Y-69500000D03*
X132492130Y-69000000D03*
X132492130Y-68500000D03*
X132492130Y-68000000D03*
X132492130Y-67500000D03*
X132492130Y-67000000D03*
X132492130Y-66500000D03*
X132492130Y-66000000D03*
D39*
X134404630Y-64087500D03*
X134904630Y-64087500D03*
X135404630Y-64087500D03*
X135904630Y-64087500D03*
X136404630Y-64087500D03*
X136904630Y-64087500D03*
X137404630Y-64087500D03*
X137904630Y-64087500D03*
X138404630Y-64087500D03*
X138904630Y-64087500D03*
X139404630Y-64087500D03*
X139904630Y-64087500D03*
X140404630Y-64087500D03*
X140904630Y-64087500D03*
X141404630Y-64087500D03*
X141904630Y-64087500D03*
X142404630Y-64087500D03*
X142904630Y-64087500D03*
X143404630Y-64087500D03*
X143904630Y-64087500D03*
X144404630Y-64087500D03*
X144904630Y-64087500D03*
X145404630Y-64087500D03*
X145904630Y-64087500D03*
X146404630Y-64087500D03*
X146904630Y-64087500D03*
X147404630Y-64087500D03*
X147904630Y-64087500D03*
X148404630Y-64087500D03*
X148904630Y-64087500D03*
X149404630Y-64087500D03*
X149904630Y-64087500D03*
X150404630Y-64087500D03*
X150904630Y-64087500D03*
X151404630Y-64087500D03*
X151904630Y-64087500D03*
%TD*%
D26*
%TO.C,C17*%
X155923130Y-68834000D03*
X157473130Y-68834000D03*
%TD*%
%TO.C,C23*%
X152700000Y-121935608D03*
X154250000Y-121935608D03*
%TD*%
D29*
%TO.C,R2*%
X166500000Y-129300000D03*
X166500000Y-127650000D03*
%TD*%
D31*
%TO.C,C13*%
X130536130Y-77711000D03*
X130536130Y-79261000D03*
%TD*%
D40*
%TO.C,R18*%
X112350000Y-123900000D03*
X110700000Y-123900000D03*
%TD*%
D36*
%TO.C,TP1*%
X169600000Y-63500000D03*
%TD*%
D29*
%TO.C,R1*%
X119050000Y-114400000D03*
X119050000Y-112750000D03*
%TD*%
D33*
%TO.C,C39*%
X167550000Y-85000000D03*
X166000000Y-85000000D03*
%TD*%
D32*
%TO.C,C38*%
X123200000Y-69000000D03*
X123200000Y-67450000D03*
%TD*%
D33*
%TO.C,C32*%
X124075000Y-116600000D03*
X122525000Y-116600000D03*
%TD*%
D32*
%TO.C,C19*%
X155936130Y-74689000D03*
X155936130Y-73139000D03*
%TD*%
D31*
%TO.C,C10*%
X155936130Y-79743000D03*
X155936130Y-81293000D03*
%TD*%
D32*
%TO.C,C27*%
X119050000Y-130775000D03*
X119050000Y-129225000D03*
%TD*%
D26*
%TO.C,C36*%
X120600000Y-64200000D03*
X122150000Y-64200000D03*
%TD*%
D32*
%TO.C,C26*%
X157400000Y-116775000D03*
X157400000Y-115225000D03*
%TD*%
D33*
%TO.C,C15*%
X146043130Y-62230000D03*
X144493130Y-62230000D03*
%TD*%
D32*
%TO.C,C24*%
X155400000Y-116775000D03*
X155400000Y-115225000D03*
%TD*%
D29*
%TO.C,R14*%
X126500000Y-125125000D03*
X126500000Y-123475000D03*
%TD*%
D30*
%TO.C,R11*%
X156800000Y-120373000D03*
X158450000Y-120373000D03*
%TD*%
D26*
%TO.C,C12*%
X138905130Y-87630000D03*
X140455130Y-87630000D03*
%TD*%
%TO.C,C21*%
X152700000Y-125100000D03*
X154250000Y-125100000D03*
%TD*%
D33*
%TO.C,C7*%
X156275000Y-85000000D03*
X154725000Y-85000000D03*
%TD*%
D36*
%TO.C,TP4*%
X166100000Y-67000000D03*
%TD*%
D41*
%TO.C,U5*%
X164137500Y-84050000D03*
X164137500Y-85000000D03*
X164137500Y-85950000D03*
X161862500Y-85950000D03*
X161862500Y-84050000D03*
%TD*%
D33*
%TO.C,C22*%
X157150000Y-127231000D03*
X155600000Y-127231000D03*
%TD*%
D42*
%TO.C,JP3*%
X129000000Y-71000000D03*
D43*
X130300000Y-71000000D03*
%TD*%
D44*
%TO.C,JP5*%
X159000000Y-83300000D03*
X159000000Y-82000000D03*
X159000000Y-80700000D03*
%TD*%
D32*
%TO.C,C34*%
X169326000Y-126555000D03*
X169326000Y-125005000D03*
%TD*%
D45*
%TO.C,L1*%
X120070000Y-72200000D03*
X122770000Y-72200000D03*
%TD*%
D46*
%TO.C,FB1*%
X164575000Y-81500000D03*
X161425000Y-81500000D03*
%TD*%
D33*
%TO.C,C16*%
X140950130Y-62230000D03*
X139400130Y-62230000D03*
%TD*%
D31*
%TO.C,C29*%
X159000000Y-126125000D03*
X159000000Y-127675000D03*
%TD*%
D26*
%TO.C,C25*%
X152800000Y-118731000D03*
X154350000Y-118731000D03*
%TD*%
D47*
%TO.C,U4*%
X120170000Y-68962500D03*
X119670000Y-68962500D03*
X119170000Y-68962500D03*
X118670000Y-68962500D03*
D48*
X117957500Y-68250000D03*
X117957500Y-67750000D03*
X117957500Y-67250000D03*
X117957500Y-66750000D03*
D47*
X118670000Y-66037500D03*
X119170000Y-66037500D03*
X119670000Y-66037500D03*
X120170000Y-66037500D03*
D48*
X120882500Y-66750000D03*
X120882500Y-67250000D03*
X120882500Y-67750000D03*
X120882500Y-68250000D03*
D49*
X119420000Y-67500000D03*
%TD*%
M02*
