%TF.GenerationSoftware,KiCad,Pcbnew,9.0.7*%
%TF.CreationDate,2026-02-20T11:36:51-08:00*%
%TF.ProjectId,effect-pedal,65666665-6374-42d7-9065-64616c2e6b69,rev?*%
%TF.SameCoordinates,Original*%
%TF.FileFunction,Legend,Top*%
%TF.FilePolarity,Positive*%
%FSLAX46Y46*%
G04 Gerber Fmt 4.6, Leading zero omitted, Abs format (unit mm)*
G04 Created by KiCad (PCBNEW 9.0.7) date 2026-02-20 11:36:51*
%MOMM*%
%LPD*%
G01*
G04 APERTURE LIST*
G04 Aperture macros list*
%AMRoundRect*
0 Rectangle with rounded corners*
0 $1 Rounding radius*
0 $2 $3 $4 $5 $6 $7 $8 $9 X,Y pos of 4 corners*
0 Add a 4 corners polygon primitive as box body*
4,1,4,$2,$3,$4,$5,$6,$7,$8,$9,$2,$3,0*
0 Add four circle primitives for the rounded corners*
1,1,$1+$1,$2,$3*
1,1,$1+$1,$4,$5*
1,1,$1+$1,$6,$7*
1,1,$1+$1,$8,$9*
0 Add four rect primitives between the rounded corners*
20,1,$1+$1,$2,$3,$4,$5,0*
20,1,$1+$1,$4,$5,$6,$7,0*
20,1,$1+$1,$6,$7,$8,$9,0*
20,1,$1+$1,$8,$9,$2,$3,0*%
%AMFreePoly0*
4,1,35,0.500000,-0.750000,0.000000,-0.750000,0.000000,-0.748929,-0.032702,-0.748929,-0.097545,-0.740393,-0.160720,-0.723465,-0.221144,-0.698436,-0.277785,-0.665735,-0.329673,-0.625920,-0.375920,-0.579673,-0.415735,-0.527785,-0.448436,-0.471144,-0.473465,-0.410720,-0.490393,-0.347545,-0.498929,-0.282702,-0.498929,-0.250000,-0.500000,-0.250000,-0.500000,0.250000,-0.498929,0.250000,-0.498929,0.282702,
-0.490393,0.347545,-0.473465,0.410720,-0.448436,0.471144,-0.415735,0.527785,-0.375920,0.579673,-0.329673,0.625920,-0.277785,0.665735,-0.221144,0.698436,-0.160720,0.723465,-0.097545,0.740393,-0.032702,0.748929,0.000000,0.748929,0.000000,0.750000,0.500000,0.750000,0.500000,-0.750000,0.500000,-0.750000,$1*%
%AMFreePoly1*
4,1,35,0.000000,0.748929,0.032702,0.748929,0.097545,0.740393,0.160720,0.723465,0.221144,0.698436,0.277785,0.665735,0.329673,0.625920,0.375920,0.579673,0.415735,0.527785,0.448436,0.471144,0.473465,0.410720,0.490393,0.347545,0.498929,0.282702,0.498929,0.250000,0.500000,0.250000,0.500000,-0.250000,0.498929,-0.250000,0.498929,-0.282702,0.490393,-0.347545,0.473465,-0.410720,
0.448436,-0.471144,0.415735,-0.527785,0.375920,-0.579673,0.329673,-0.625920,0.277785,-0.665735,0.221144,-0.698436,0.160720,-0.723465,0.097545,-0.740393,0.032702,-0.748929,0.000000,-0.748929,0.000000,-0.750000,-0.500000,-0.750000,-0.500000,0.750000,0.000000,0.750000,0.000000,0.748929,0.000000,0.748929,$1*%
%AMFreePoly2*
4,1,6,1.000000,0.000000,0.500000,-0.750000,-0.500000,-0.750000,-0.500000,0.750000,0.500000,0.750000,1.000000,0.000000,1.000000,0.000000,$1*%
%AMFreePoly3*
4,1,6,0.500000,-0.750000,-0.650000,-0.750000,-0.150000,0.000000,-0.650000,0.750000,0.500000,0.750000,0.500000,-0.750000,0.500000,-0.750000,$1*%
G04 Aperture macros list end*
%ADD10C,0.150000*%
%ADD11C,0.100000*%
%ADD12C,0.120000*%
%ADD13C,0.127000*%
%ADD14C,0.400000*%
%ADD15C,3.500000*%
%ADD16RoundRect,0.200000X0.275000X-0.200000X0.275000X0.200000X-0.275000X0.200000X-0.275000X-0.200000X0*%
%ADD17C,1.700000*%
%ADD18C,1.800000*%
%ADD19RoundRect,0.102000X-1.200000X1.400000X-1.200000X-1.400000X1.200000X-1.400000X1.200000X1.400000X0*%
%ADD20C,0.700000*%
%ADD21O,1.500000X0.800000*%
%ADD22RoundRect,0.200000X-0.275000X0.200000X-0.275000X-0.200000X0.275000X-0.200000X0.275000X0.200000X0*%
%ADD23C,0.650000*%
%ADD24RoundRect,0.150000X0.150000X0.425000X-0.150000X0.425000X-0.150000X-0.425000X0.150000X-0.425000X0*%
%ADD25RoundRect,0.075000X0.075000X0.500000X-0.075000X0.500000X-0.075000X-0.500000X0.075000X-0.500000X0*%
%ADD26RoundRect,0.250000X0.840000X0.750000X-0.840000X0.750000X-0.840000X-0.750000X0.840000X-0.750000X0*%
%ADD27RoundRect,0.200000X0.200000X0.275000X-0.200000X0.275000X-0.200000X-0.275000X0.200000X-0.275000X0*%
%ADD28RoundRect,0.225000X0.250000X-0.225000X0.250000X0.225000X-0.250000X0.225000X-0.250000X-0.225000X0*%
%ADD29RoundRect,0.250000X0.800000X0.450000X-0.800000X0.450000X-0.800000X-0.450000X0.800000X-0.450000X0*%
%ADD30FreePoly0,270.000000*%
%ADD31FreePoly1,270.000000*%
%ADD32RoundRect,0.150000X-0.587500X-0.150000X0.587500X-0.150000X0.587500X0.150000X-0.587500X0.150000X0*%
%ADD33RoundRect,0.225000X-0.250000X0.225000X-0.250000X-0.225000X0.250000X-0.225000X0.250000X0.225000X0*%
%ADD34C,3.000000*%
%ADD35RoundRect,0.250000X-0.250000X-1.500000X0.250000X-1.500000X0.250000X1.500000X-0.250000X1.500000X0*%
%ADD36RoundRect,0.250001X-0.499999X-1.449999X0.499999X-1.449999X0.499999X1.449999X-0.499999X1.449999X0*%
%ADD37FreePoly2,270.000000*%
%ADD38FreePoly3,270.000000*%
%ADD39RoundRect,0.200000X-0.200000X-0.275000X0.200000X-0.275000X0.200000X0.275000X-0.200000X0.275000X0*%
%ADD40RoundRect,0.250000X0.550000X0.550000X-0.550000X0.550000X-0.550000X-0.550000X0.550000X-0.550000X0*%
%ADD41C,1.600000*%
%ADD42O,4.100000X3.000000*%
%ADD43RoundRect,0.243750X-0.243750X-0.456250X0.243750X-0.456250X0.243750X0.456250X-0.243750X0.456250X0*%
%ADD44RoundRect,0.150000X0.587500X0.150000X-0.587500X0.150000X-0.587500X-0.150000X0.587500X-0.150000X0*%
%ADD45O,0.800000X1.500000*%
%ADD46RoundRect,0.250000X-0.750000X2.000000X-0.750000X-2.000000X0.750000X-2.000000X0.750000X2.000000X0*%
%ADD47R,1.000000X1.000000*%
%ADD48C,1.000000*%
%ADD49RoundRect,0.250000X-0.550000X-0.550000X0.550000X-0.550000X0.550000X0.550000X-0.550000X0.550000X0*%
%ADD50RoundRect,0.225000X-0.225000X-0.250000X0.225000X-0.250000X0.225000X0.250000X-0.225000X0.250000X0*%
%ADD51RoundRect,0.243750X0.243750X0.456250X-0.243750X0.456250X-0.243750X-0.456250X0.243750X-0.456250X0*%
%ADD52RoundRect,0.150000X0.512500X0.150000X-0.512500X0.150000X-0.512500X-0.150000X0.512500X-0.150000X0*%
%ADD53R,1.900000X1.000000*%
%ADD54C,4.200000*%
%ADD55C,1.400000*%
G04 APERTURE END LIST*
D10*
X141147618Y-118619819D02*
X140814285Y-118143628D01*
X140576190Y-118619819D02*
X140576190Y-117619819D01*
X140576190Y-117619819D02*
X140957142Y-117619819D01*
X140957142Y-117619819D02*
X141052380Y-117667438D01*
X141052380Y-117667438D02*
X141099999Y-117715057D01*
X141099999Y-117715057D02*
X141147618Y-117810295D01*
X141147618Y-117810295D02*
X141147618Y-117953152D01*
X141147618Y-117953152D02*
X141099999Y-118048390D01*
X141099999Y-118048390D02*
X141052380Y-118096009D01*
X141052380Y-118096009D02*
X140957142Y-118143628D01*
X140957142Y-118143628D02*
X140576190Y-118143628D01*
X141576190Y-118096009D02*
X141909523Y-118096009D01*
X142052380Y-118619819D02*
X141576190Y-118619819D01*
X141576190Y-118619819D02*
X141576190Y-117619819D01*
X141576190Y-117619819D02*
X142052380Y-117619819D01*
X142433333Y-118572200D02*
X142576190Y-118619819D01*
X142576190Y-118619819D02*
X142814285Y-118619819D01*
X142814285Y-118619819D02*
X142909523Y-118572200D01*
X142909523Y-118572200D02*
X142957142Y-118524580D01*
X142957142Y-118524580D02*
X143004761Y-118429342D01*
X143004761Y-118429342D02*
X143004761Y-118334104D01*
X143004761Y-118334104D02*
X142957142Y-118238866D01*
X142957142Y-118238866D02*
X142909523Y-118191247D01*
X142909523Y-118191247D02*
X142814285Y-118143628D01*
X142814285Y-118143628D02*
X142623809Y-118096009D01*
X142623809Y-118096009D02*
X142528571Y-118048390D01*
X142528571Y-118048390D02*
X142480952Y-118000771D01*
X142480952Y-118000771D02*
X142433333Y-117905533D01*
X142433333Y-117905533D02*
X142433333Y-117810295D01*
X142433333Y-117810295D02*
X142480952Y-117715057D01*
X142480952Y-117715057D02*
X142528571Y-117667438D01*
X142528571Y-117667438D02*
X142623809Y-117619819D01*
X142623809Y-117619819D02*
X142861904Y-117619819D01*
X142861904Y-117619819D02*
X143004761Y-117667438D01*
X143433333Y-118096009D02*
X143766666Y-118096009D01*
X143909523Y-118619819D02*
X143433333Y-118619819D01*
X143433333Y-118619819D02*
X143433333Y-117619819D01*
X143433333Y-117619819D02*
X143909523Y-117619819D01*
X144195238Y-117619819D02*
X144766666Y-117619819D01*
X144480952Y-118619819D02*
X144480952Y-117619819D01*
X107738095Y-107254819D02*
X107738095Y-106254819D01*
X107738095Y-106731009D02*
X108309523Y-106731009D01*
X108309523Y-107254819D02*
X108309523Y-106254819D01*
X108738095Y-106350057D02*
X108785714Y-106302438D01*
X108785714Y-106302438D02*
X108880952Y-106254819D01*
X108880952Y-106254819D02*
X109119047Y-106254819D01*
X109119047Y-106254819D02*
X109214285Y-106302438D01*
X109214285Y-106302438D02*
X109261904Y-106350057D01*
X109261904Y-106350057D02*
X109309523Y-106445295D01*
X109309523Y-106445295D02*
X109309523Y-106540533D01*
X109309523Y-106540533D02*
X109261904Y-106683390D01*
X109261904Y-106683390D02*
X108690476Y-107254819D01*
X108690476Y-107254819D02*
X109309523Y-107254819D01*
X143133333Y-61879819D02*
X142800000Y-61403628D01*
X142561905Y-61879819D02*
X142561905Y-60879819D01*
X142561905Y-60879819D02*
X142942857Y-60879819D01*
X142942857Y-60879819D02*
X143038095Y-60927438D01*
X143038095Y-60927438D02*
X143085714Y-60975057D01*
X143085714Y-60975057D02*
X143133333Y-61070295D01*
X143133333Y-61070295D02*
X143133333Y-61213152D01*
X143133333Y-61213152D02*
X143085714Y-61308390D01*
X143085714Y-61308390D02*
X143038095Y-61356009D01*
X143038095Y-61356009D02*
X142942857Y-61403628D01*
X142942857Y-61403628D02*
X142561905Y-61403628D01*
X143704762Y-61308390D02*
X143609524Y-61260771D01*
X143609524Y-61260771D02*
X143561905Y-61213152D01*
X143561905Y-61213152D02*
X143514286Y-61117914D01*
X143514286Y-61117914D02*
X143514286Y-61070295D01*
X143514286Y-61070295D02*
X143561905Y-60975057D01*
X143561905Y-60975057D02*
X143609524Y-60927438D01*
X143609524Y-60927438D02*
X143704762Y-60879819D01*
X143704762Y-60879819D02*
X143895238Y-60879819D01*
X143895238Y-60879819D02*
X143990476Y-60927438D01*
X143990476Y-60927438D02*
X144038095Y-60975057D01*
X144038095Y-60975057D02*
X144085714Y-61070295D01*
X144085714Y-61070295D02*
X144085714Y-61117914D01*
X144085714Y-61117914D02*
X144038095Y-61213152D01*
X144038095Y-61213152D02*
X143990476Y-61260771D01*
X143990476Y-61260771D02*
X143895238Y-61308390D01*
X143895238Y-61308390D02*
X143704762Y-61308390D01*
X143704762Y-61308390D02*
X143609524Y-61356009D01*
X143609524Y-61356009D02*
X143561905Y-61403628D01*
X143561905Y-61403628D02*
X143514286Y-61498866D01*
X143514286Y-61498866D02*
X143514286Y-61689342D01*
X143514286Y-61689342D02*
X143561905Y-61784580D01*
X143561905Y-61784580D02*
X143609524Y-61832200D01*
X143609524Y-61832200D02*
X143704762Y-61879819D01*
X143704762Y-61879819D02*
X143895238Y-61879819D01*
X143895238Y-61879819D02*
X143990476Y-61832200D01*
X143990476Y-61832200D02*
X144038095Y-61784580D01*
X144038095Y-61784580D02*
X144085714Y-61689342D01*
X144085714Y-61689342D02*
X144085714Y-61498866D01*
X144085714Y-61498866D02*
X144038095Y-61403628D01*
X144038095Y-61403628D02*
X143990476Y-61356009D01*
X143990476Y-61356009D02*
X143895238Y-61308390D01*
X120439686Y-63704295D02*
X120439686Y-64419278D01*
X120439686Y-64419278D02*
X120392021Y-64562274D01*
X120392021Y-64562274D02*
X120296690Y-64657606D01*
X120296690Y-64657606D02*
X120153693Y-64705271D01*
X120153693Y-64705271D02*
X120058362Y-64705271D01*
X121440662Y-64705271D02*
X120868676Y-64705271D01*
X121154669Y-64705271D02*
X121154669Y-63704295D01*
X121154669Y-63704295D02*
X121059338Y-63847292D01*
X121059338Y-63847292D02*
X120964007Y-63942623D01*
X120964007Y-63942623D02*
X120868676Y-63990288D01*
X121821986Y-63799626D02*
X121869651Y-63751961D01*
X121869651Y-63751961D02*
X121964982Y-63704295D01*
X121964982Y-63704295D02*
X122203310Y-63704295D01*
X122203310Y-63704295D02*
X122298641Y-63751961D01*
X122298641Y-63751961D02*
X122346306Y-63799626D01*
X122346306Y-63799626D02*
X122393972Y-63894957D01*
X122393972Y-63894957D02*
X122393972Y-63990288D01*
X122393972Y-63990288D02*
X122346306Y-64133285D01*
X122346306Y-64133285D02*
X121774320Y-64705271D01*
X121774320Y-64705271D02*
X122393972Y-64705271D01*
X107666666Y-98119819D02*
X107666666Y-98834104D01*
X107666666Y-98834104D02*
X107619047Y-98976961D01*
X107619047Y-98976961D02*
X107523809Y-99072200D01*
X107523809Y-99072200D02*
X107380952Y-99119819D01*
X107380952Y-99119819D02*
X107285714Y-99119819D01*
X108571428Y-98119819D02*
X108380952Y-98119819D01*
X108380952Y-98119819D02*
X108285714Y-98167438D01*
X108285714Y-98167438D02*
X108238095Y-98215057D01*
X108238095Y-98215057D02*
X108142857Y-98357914D01*
X108142857Y-98357914D02*
X108095238Y-98548390D01*
X108095238Y-98548390D02*
X108095238Y-98929342D01*
X108095238Y-98929342D02*
X108142857Y-99024580D01*
X108142857Y-99024580D02*
X108190476Y-99072200D01*
X108190476Y-99072200D02*
X108285714Y-99119819D01*
X108285714Y-99119819D02*
X108476190Y-99119819D01*
X108476190Y-99119819D02*
X108571428Y-99072200D01*
X108571428Y-99072200D02*
X108619047Y-99024580D01*
X108619047Y-99024580D02*
X108666666Y-98929342D01*
X108666666Y-98929342D02*
X108666666Y-98691247D01*
X108666666Y-98691247D02*
X108619047Y-98596009D01*
X108619047Y-98596009D02*
X108571428Y-98548390D01*
X108571428Y-98548390D02*
X108476190Y-98500771D01*
X108476190Y-98500771D02*
X108285714Y-98500771D01*
X108285714Y-98500771D02*
X108190476Y-98548390D01*
X108190476Y-98548390D02*
X108142857Y-98596009D01*
X108142857Y-98596009D02*
X108095238Y-98691247D01*
X141757142Y-64054819D02*
X141423809Y-63578628D01*
X141185714Y-64054819D02*
X141185714Y-63054819D01*
X141185714Y-63054819D02*
X141566666Y-63054819D01*
X141566666Y-63054819D02*
X141661904Y-63102438D01*
X141661904Y-63102438D02*
X141709523Y-63150057D01*
X141709523Y-63150057D02*
X141757142Y-63245295D01*
X141757142Y-63245295D02*
X141757142Y-63388152D01*
X141757142Y-63388152D02*
X141709523Y-63483390D01*
X141709523Y-63483390D02*
X141661904Y-63531009D01*
X141661904Y-63531009D02*
X141566666Y-63578628D01*
X141566666Y-63578628D02*
X141185714Y-63578628D01*
X142138095Y-63150057D02*
X142185714Y-63102438D01*
X142185714Y-63102438D02*
X142280952Y-63054819D01*
X142280952Y-63054819D02*
X142519047Y-63054819D01*
X142519047Y-63054819D02*
X142614285Y-63102438D01*
X142614285Y-63102438D02*
X142661904Y-63150057D01*
X142661904Y-63150057D02*
X142709523Y-63245295D01*
X142709523Y-63245295D02*
X142709523Y-63340533D01*
X142709523Y-63340533D02*
X142661904Y-63483390D01*
X142661904Y-63483390D02*
X142090476Y-64054819D01*
X142090476Y-64054819D02*
X142709523Y-64054819D01*
X143328571Y-63054819D02*
X143423809Y-63054819D01*
X143423809Y-63054819D02*
X143519047Y-63102438D01*
X143519047Y-63102438D02*
X143566666Y-63150057D01*
X143566666Y-63150057D02*
X143614285Y-63245295D01*
X143614285Y-63245295D02*
X143661904Y-63435771D01*
X143661904Y-63435771D02*
X143661904Y-63673866D01*
X143661904Y-63673866D02*
X143614285Y-63864342D01*
X143614285Y-63864342D02*
X143566666Y-63959580D01*
X143566666Y-63959580D02*
X143519047Y-64007200D01*
X143519047Y-64007200D02*
X143423809Y-64054819D01*
X143423809Y-64054819D02*
X143328571Y-64054819D01*
X143328571Y-64054819D02*
X143233333Y-64007200D01*
X143233333Y-64007200D02*
X143185714Y-63959580D01*
X143185714Y-63959580D02*
X143138095Y-63864342D01*
X143138095Y-63864342D02*
X143090476Y-63673866D01*
X143090476Y-63673866D02*
X143090476Y-63435771D01*
X143090476Y-63435771D02*
X143138095Y-63245295D01*
X143138095Y-63245295D02*
X143185714Y-63150057D01*
X143185714Y-63150057D02*
X143233333Y-63102438D01*
X143233333Y-63102438D02*
X143328571Y-63054819D01*
X134590476Y-59654819D02*
X134590476Y-60369104D01*
X134590476Y-60369104D02*
X134542857Y-60511961D01*
X134542857Y-60511961D02*
X134447619Y-60607200D01*
X134447619Y-60607200D02*
X134304762Y-60654819D01*
X134304762Y-60654819D02*
X134209524Y-60654819D01*
X135590476Y-60654819D02*
X135019048Y-60654819D01*
X135304762Y-60654819D02*
X135304762Y-59654819D01*
X135304762Y-59654819D02*
X135209524Y-59797676D01*
X135209524Y-59797676D02*
X135114286Y-59892914D01*
X135114286Y-59892914D02*
X135019048Y-59940533D01*
X136209524Y-59654819D02*
X136304762Y-59654819D01*
X136304762Y-59654819D02*
X136400000Y-59702438D01*
X136400000Y-59702438D02*
X136447619Y-59750057D01*
X136447619Y-59750057D02*
X136495238Y-59845295D01*
X136495238Y-59845295D02*
X136542857Y-60035771D01*
X136542857Y-60035771D02*
X136542857Y-60273866D01*
X136542857Y-60273866D02*
X136495238Y-60464342D01*
X136495238Y-60464342D02*
X136447619Y-60559580D01*
X136447619Y-60559580D02*
X136400000Y-60607200D01*
X136400000Y-60607200D02*
X136304762Y-60654819D01*
X136304762Y-60654819D02*
X136209524Y-60654819D01*
X136209524Y-60654819D02*
X136114286Y-60607200D01*
X136114286Y-60607200D02*
X136066667Y-60559580D01*
X136066667Y-60559580D02*
X136019048Y-60464342D01*
X136019048Y-60464342D02*
X135971429Y-60273866D01*
X135971429Y-60273866D02*
X135971429Y-60035771D01*
X135971429Y-60035771D02*
X136019048Y-59845295D01*
X136019048Y-59845295D02*
X136066667Y-59750057D01*
X136066667Y-59750057D02*
X136114286Y-59702438D01*
X136114286Y-59702438D02*
X136209524Y-59654819D01*
X150333333Y-76634819D02*
X150000000Y-76158628D01*
X149761905Y-76634819D02*
X149761905Y-75634819D01*
X149761905Y-75634819D02*
X150142857Y-75634819D01*
X150142857Y-75634819D02*
X150238095Y-75682438D01*
X150238095Y-75682438D02*
X150285714Y-75730057D01*
X150285714Y-75730057D02*
X150333333Y-75825295D01*
X150333333Y-75825295D02*
X150333333Y-75968152D01*
X150333333Y-75968152D02*
X150285714Y-76063390D01*
X150285714Y-76063390D02*
X150238095Y-76111009D01*
X150238095Y-76111009D02*
X150142857Y-76158628D01*
X150142857Y-76158628D02*
X149761905Y-76158628D01*
X150809524Y-76634819D02*
X151000000Y-76634819D01*
X151000000Y-76634819D02*
X151095238Y-76587200D01*
X151095238Y-76587200D02*
X151142857Y-76539580D01*
X151142857Y-76539580D02*
X151238095Y-76396723D01*
X151238095Y-76396723D02*
X151285714Y-76206247D01*
X151285714Y-76206247D02*
X151285714Y-75825295D01*
X151285714Y-75825295D02*
X151238095Y-75730057D01*
X151238095Y-75730057D02*
X151190476Y-75682438D01*
X151190476Y-75682438D02*
X151095238Y-75634819D01*
X151095238Y-75634819D02*
X150904762Y-75634819D01*
X150904762Y-75634819D02*
X150809524Y-75682438D01*
X150809524Y-75682438D02*
X150761905Y-75730057D01*
X150761905Y-75730057D02*
X150714286Y-75825295D01*
X150714286Y-75825295D02*
X150714286Y-76063390D01*
X150714286Y-76063390D02*
X150761905Y-76158628D01*
X150761905Y-76158628D02*
X150809524Y-76206247D01*
X150809524Y-76206247D02*
X150904762Y-76253866D01*
X150904762Y-76253866D02*
X151095238Y-76253866D01*
X151095238Y-76253866D02*
X151190476Y-76206247D01*
X151190476Y-76206247D02*
X151238095Y-76158628D01*
X151238095Y-76158628D02*
X151285714Y-76063390D01*
X152533333Y-86359580D02*
X152485714Y-86407200D01*
X152485714Y-86407200D02*
X152342857Y-86454819D01*
X152342857Y-86454819D02*
X152247619Y-86454819D01*
X152247619Y-86454819D02*
X152104762Y-86407200D01*
X152104762Y-86407200D02*
X152009524Y-86311961D01*
X152009524Y-86311961D02*
X151961905Y-86216723D01*
X151961905Y-86216723D02*
X151914286Y-86026247D01*
X151914286Y-86026247D02*
X151914286Y-85883390D01*
X151914286Y-85883390D02*
X151961905Y-85692914D01*
X151961905Y-85692914D02*
X152009524Y-85597676D01*
X152009524Y-85597676D02*
X152104762Y-85502438D01*
X152104762Y-85502438D02*
X152247619Y-85454819D01*
X152247619Y-85454819D02*
X152342857Y-85454819D01*
X152342857Y-85454819D02*
X152485714Y-85502438D01*
X152485714Y-85502438D02*
X152533333Y-85550057D01*
X153104762Y-85883390D02*
X153009524Y-85835771D01*
X153009524Y-85835771D02*
X152961905Y-85788152D01*
X152961905Y-85788152D02*
X152914286Y-85692914D01*
X152914286Y-85692914D02*
X152914286Y-85645295D01*
X152914286Y-85645295D02*
X152961905Y-85550057D01*
X152961905Y-85550057D02*
X153009524Y-85502438D01*
X153009524Y-85502438D02*
X153104762Y-85454819D01*
X153104762Y-85454819D02*
X153295238Y-85454819D01*
X153295238Y-85454819D02*
X153390476Y-85502438D01*
X153390476Y-85502438D02*
X153438095Y-85550057D01*
X153438095Y-85550057D02*
X153485714Y-85645295D01*
X153485714Y-85645295D02*
X153485714Y-85692914D01*
X153485714Y-85692914D02*
X153438095Y-85788152D01*
X153438095Y-85788152D02*
X153390476Y-85835771D01*
X153390476Y-85835771D02*
X153295238Y-85883390D01*
X153295238Y-85883390D02*
X153104762Y-85883390D01*
X153104762Y-85883390D02*
X153009524Y-85931009D01*
X153009524Y-85931009D02*
X152961905Y-85978628D01*
X152961905Y-85978628D02*
X152914286Y-86073866D01*
X152914286Y-86073866D02*
X152914286Y-86264342D01*
X152914286Y-86264342D02*
X152961905Y-86359580D01*
X152961905Y-86359580D02*
X153009524Y-86407200D01*
X153009524Y-86407200D02*
X153104762Y-86454819D01*
X153104762Y-86454819D02*
X153295238Y-86454819D01*
X153295238Y-86454819D02*
X153390476Y-86407200D01*
X153390476Y-86407200D02*
X153438095Y-86359580D01*
X153438095Y-86359580D02*
X153485714Y-86264342D01*
X153485714Y-86264342D02*
X153485714Y-86073866D01*
X153485714Y-86073866D02*
X153438095Y-85978628D01*
X153438095Y-85978628D02*
X153390476Y-85931009D01*
X153390476Y-85931009D02*
X153295238Y-85883390D01*
X141316667Y-110207200D02*
X141459524Y-110254819D01*
X141459524Y-110254819D02*
X141697619Y-110254819D01*
X141697619Y-110254819D02*
X141792857Y-110207200D01*
X141792857Y-110207200D02*
X141840476Y-110159580D01*
X141840476Y-110159580D02*
X141888095Y-110064342D01*
X141888095Y-110064342D02*
X141888095Y-109969104D01*
X141888095Y-109969104D02*
X141840476Y-109873866D01*
X141840476Y-109873866D02*
X141792857Y-109826247D01*
X141792857Y-109826247D02*
X141697619Y-109778628D01*
X141697619Y-109778628D02*
X141507143Y-109731009D01*
X141507143Y-109731009D02*
X141411905Y-109683390D01*
X141411905Y-109683390D02*
X141364286Y-109635771D01*
X141364286Y-109635771D02*
X141316667Y-109540533D01*
X141316667Y-109540533D02*
X141316667Y-109445295D01*
X141316667Y-109445295D02*
X141364286Y-109350057D01*
X141364286Y-109350057D02*
X141411905Y-109302438D01*
X141411905Y-109302438D02*
X141507143Y-109254819D01*
X141507143Y-109254819D02*
X141745238Y-109254819D01*
X141745238Y-109254819D02*
X141888095Y-109302438D01*
X142221429Y-109254819D02*
X142459524Y-110254819D01*
X142459524Y-110254819D02*
X142650000Y-109540533D01*
X142650000Y-109540533D02*
X142840476Y-110254819D01*
X142840476Y-110254819D02*
X143078572Y-109254819D01*
X143888095Y-109254819D02*
X143697619Y-109254819D01*
X143697619Y-109254819D02*
X143602381Y-109302438D01*
X143602381Y-109302438D02*
X143554762Y-109350057D01*
X143554762Y-109350057D02*
X143459524Y-109492914D01*
X143459524Y-109492914D02*
X143411905Y-109683390D01*
X143411905Y-109683390D02*
X143411905Y-110064342D01*
X143411905Y-110064342D02*
X143459524Y-110159580D01*
X143459524Y-110159580D02*
X143507143Y-110207200D01*
X143507143Y-110207200D02*
X143602381Y-110254819D01*
X143602381Y-110254819D02*
X143792857Y-110254819D01*
X143792857Y-110254819D02*
X143888095Y-110207200D01*
X143888095Y-110207200D02*
X143935714Y-110159580D01*
X143935714Y-110159580D02*
X143983333Y-110064342D01*
X143983333Y-110064342D02*
X143983333Y-109826247D01*
X143983333Y-109826247D02*
X143935714Y-109731009D01*
X143935714Y-109731009D02*
X143888095Y-109683390D01*
X143888095Y-109683390D02*
X143792857Y-109635771D01*
X143792857Y-109635771D02*
X143602381Y-109635771D01*
X143602381Y-109635771D02*
X143507143Y-109683390D01*
X143507143Y-109683390D02*
X143459524Y-109731009D01*
X143459524Y-109731009D02*
X143411905Y-109826247D01*
X145266666Y-55454819D02*
X145266666Y-56169104D01*
X145266666Y-56169104D02*
X145219047Y-56311961D01*
X145219047Y-56311961D02*
X145123809Y-56407200D01*
X145123809Y-56407200D02*
X144980952Y-56454819D01*
X144980952Y-56454819D02*
X144885714Y-56454819D01*
X145742857Y-56454819D02*
X145742857Y-55454819D01*
X145742857Y-55454819D02*
X146123809Y-55454819D01*
X146123809Y-55454819D02*
X146219047Y-55502438D01*
X146219047Y-55502438D02*
X146266666Y-55550057D01*
X146266666Y-55550057D02*
X146314285Y-55645295D01*
X146314285Y-55645295D02*
X146314285Y-55788152D01*
X146314285Y-55788152D02*
X146266666Y-55883390D01*
X146266666Y-55883390D02*
X146219047Y-55931009D01*
X146219047Y-55931009D02*
X146123809Y-55978628D01*
X146123809Y-55978628D02*
X145742857Y-55978628D01*
X146695238Y-55550057D02*
X146742857Y-55502438D01*
X146742857Y-55502438D02*
X146838095Y-55454819D01*
X146838095Y-55454819D02*
X147076190Y-55454819D01*
X147076190Y-55454819D02*
X147171428Y-55502438D01*
X147171428Y-55502438D02*
X147219047Y-55550057D01*
X147219047Y-55550057D02*
X147266666Y-55645295D01*
X147266666Y-55645295D02*
X147266666Y-55740533D01*
X147266666Y-55740533D02*
X147219047Y-55883390D01*
X147219047Y-55883390D02*
X146647619Y-56454819D01*
X146647619Y-56454819D02*
X147266666Y-56454819D01*
X170042261Y-95950057D02*
X169947023Y-95902438D01*
X169947023Y-95902438D02*
X169851785Y-95807200D01*
X169851785Y-95807200D02*
X169708928Y-95664342D01*
X169708928Y-95664342D02*
X169613690Y-95616723D01*
X169613690Y-95616723D02*
X169518452Y-95616723D01*
X169566071Y-95854819D02*
X169470833Y-95807200D01*
X169470833Y-95807200D02*
X169375595Y-95711961D01*
X169375595Y-95711961D02*
X169327976Y-95521485D01*
X169327976Y-95521485D02*
X169327976Y-95188152D01*
X169327976Y-95188152D02*
X169375595Y-94997676D01*
X169375595Y-94997676D02*
X169470833Y-94902438D01*
X169470833Y-94902438D02*
X169566071Y-94854819D01*
X169566071Y-94854819D02*
X169756547Y-94854819D01*
X169756547Y-94854819D02*
X169851785Y-94902438D01*
X169851785Y-94902438D02*
X169947023Y-94997676D01*
X169947023Y-94997676D02*
X169994642Y-95188152D01*
X169994642Y-95188152D02*
X169994642Y-95521485D01*
X169994642Y-95521485D02*
X169947023Y-95711961D01*
X169947023Y-95711961D02*
X169851785Y-95807200D01*
X169851785Y-95807200D02*
X169756547Y-95854819D01*
X169756547Y-95854819D02*
X169566071Y-95854819D01*
X170375595Y-94950057D02*
X170423214Y-94902438D01*
X170423214Y-94902438D02*
X170518452Y-94854819D01*
X170518452Y-94854819D02*
X170756547Y-94854819D01*
X170756547Y-94854819D02*
X170851785Y-94902438D01*
X170851785Y-94902438D02*
X170899404Y-94950057D01*
X170899404Y-94950057D02*
X170947023Y-95045295D01*
X170947023Y-95045295D02*
X170947023Y-95140533D01*
X170947023Y-95140533D02*
X170899404Y-95283390D01*
X170899404Y-95283390D02*
X170327976Y-95854819D01*
X170327976Y-95854819D02*
X170947023Y-95854819D01*
X124683333Y-69409580D02*
X124635714Y-69457200D01*
X124635714Y-69457200D02*
X124492857Y-69504819D01*
X124492857Y-69504819D02*
X124397619Y-69504819D01*
X124397619Y-69504819D02*
X124254762Y-69457200D01*
X124254762Y-69457200D02*
X124159524Y-69361961D01*
X124159524Y-69361961D02*
X124111905Y-69266723D01*
X124111905Y-69266723D02*
X124064286Y-69076247D01*
X124064286Y-69076247D02*
X124064286Y-68933390D01*
X124064286Y-68933390D02*
X124111905Y-68742914D01*
X124111905Y-68742914D02*
X124159524Y-68647676D01*
X124159524Y-68647676D02*
X124254762Y-68552438D01*
X124254762Y-68552438D02*
X124397619Y-68504819D01*
X124397619Y-68504819D02*
X124492857Y-68504819D01*
X124492857Y-68504819D02*
X124635714Y-68552438D01*
X124635714Y-68552438D02*
X124683333Y-68600057D01*
X125588095Y-68504819D02*
X125111905Y-68504819D01*
X125111905Y-68504819D02*
X125064286Y-68981009D01*
X125064286Y-68981009D02*
X125111905Y-68933390D01*
X125111905Y-68933390D02*
X125207143Y-68885771D01*
X125207143Y-68885771D02*
X125445238Y-68885771D01*
X125445238Y-68885771D02*
X125540476Y-68933390D01*
X125540476Y-68933390D02*
X125588095Y-68981009D01*
X125588095Y-68981009D02*
X125635714Y-69076247D01*
X125635714Y-69076247D02*
X125635714Y-69314342D01*
X125635714Y-69314342D02*
X125588095Y-69409580D01*
X125588095Y-69409580D02*
X125540476Y-69457200D01*
X125540476Y-69457200D02*
X125445238Y-69504819D01*
X125445238Y-69504819D02*
X125207143Y-69504819D01*
X125207143Y-69504819D02*
X125111905Y-69457200D01*
X125111905Y-69457200D02*
X125064286Y-69409580D01*
X129166666Y-115454819D02*
X129166666Y-116169104D01*
X129166666Y-116169104D02*
X129119047Y-116311961D01*
X129119047Y-116311961D02*
X129023809Y-116407200D01*
X129023809Y-116407200D02*
X128880952Y-116454819D01*
X128880952Y-116454819D02*
X128785714Y-116454819D01*
X130166666Y-116454819D02*
X129595238Y-116454819D01*
X129880952Y-116454819D02*
X129880952Y-115454819D01*
X129880952Y-115454819D02*
X129785714Y-115597676D01*
X129785714Y-115597676D02*
X129690476Y-115692914D01*
X129690476Y-115692914D02*
X129595238Y-115740533D01*
X142166666Y-120654819D02*
X142166666Y-121369104D01*
X142166666Y-121369104D02*
X142119047Y-121511961D01*
X142119047Y-121511961D02*
X142023809Y-121607200D01*
X142023809Y-121607200D02*
X141880952Y-121654819D01*
X141880952Y-121654819D02*
X141785714Y-121654819D01*
X143119047Y-120654819D02*
X142642857Y-120654819D01*
X142642857Y-120654819D02*
X142595238Y-121131009D01*
X142595238Y-121131009D02*
X142642857Y-121083390D01*
X142642857Y-121083390D02*
X142738095Y-121035771D01*
X142738095Y-121035771D02*
X142976190Y-121035771D01*
X142976190Y-121035771D02*
X143071428Y-121083390D01*
X143071428Y-121083390D02*
X143119047Y-121131009D01*
X143119047Y-121131009D02*
X143166666Y-121226247D01*
X143166666Y-121226247D02*
X143166666Y-121464342D01*
X143166666Y-121464342D02*
X143119047Y-121559580D01*
X143119047Y-121559580D02*
X143071428Y-121607200D01*
X143071428Y-121607200D02*
X142976190Y-121654819D01*
X142976190Y-121654819D02*
X142738095Y-121654819D01*
X142738095Y-121654819D02*
X142642857Y-121607200D01*
X142642857Y-121607200D02*
X142595238Y-121559580D01*
X145933333Y-61879819D02*
X145600000Y-61403628D01*
X145361905Y-61879819D02*
X145361905Y-60879819D01*
X145361905Y-60879819D02*
X145742857Y-60879819D01*
X145742857Y-60879819D02*
X145838095Y-60927438D01*
X145838095Y-60927438D02*
X145885714Y-60975057D01*
X145885714Y-60975057D02*
X145933333Y-61070295D01*
X145933333Y-61070295D02*
X145933333Y-61213152D01*
X145933333Y-61213152D02*
X145885714Y-61308390D01*
X145885714Y-61308390D02*
X145838095Y-61356009D01*
X145838095Y-61356009D02*
X145742857Y-61403628D01*
X145742857Y-61403628D02*
X145361905Y-61403628D01*
X146838095Y-60879819D02*
X146361905Y-60879819D01*
X146361905Y-60879819D02*
X146314286Y-61356009D01*
X146314286Y-61356009D02*
X146361905Y-61308390D01*
X146361905Y-61308390D02*
X146457143Y-61260771D01*
X146457143Y-61260771D02*
X146695238Y-61260771D01*
X146695238Y-61260771D02*
X146790476Y-61308390D01*
X146790476Y-61308390D02*
X146838095Y-61356009D01*
X146838095Y-61356009D02*
X146885714Y-61451247D01*
X146885714Y-61451247D02*
X146885714Y-61689342D01*
X146885714Y-61689342D02*
X146838095Y-61784580D01*
X146838095Y-61784580D02*
X146790476Y-61832200D01*
X146790476Y-61832200D02*
X146695238Y-61879819D01*
X146695238Y-61879819D02*
X146457143Y-61879819D01*
X146457143Y-61879819D02*
X146361905Y-61832200D01*
X146361905Y-61832200D02*
X146314286Y-61784580D01*
X152766666Y-81729819D02*
X152766666Y-82444104D01*
X152766666Y-82444104D02*
X152719047Y-82586961D01*
X152719047Y-82586961D02*
X152623809Y-82682200D01*
X152623809Y-82682200D02*
X152480952Y-82729819D01*
X152480952Y-82729819D02*
X152385714Y-82729819D01*
X153242857Y-82729819D02*
X153242857Y-81729819D01*
X153242857Y-81729819D02*
X153623809Y-81729819D01*
X153623809Y-81729819D02*
X153719047Y-81777438D01*
X153719047Y-81777438D02*
X153766666Y-81825057D01*
X153766666Y-81825057D02*
X153814285Y-81920295D01*
X153814285Y-81920295D02*
X153814285Y-82063152D01*
X153814285Y-82063152D02*
X153766666Y-82158390D01*
X153766666Y-82158390D02*
X153719047Y-82206009D01*
X153719047Y-82206009D02*
X153623809Y-82253628D01*
X153623809Y-82253628D02*
X153242857Y-82253628D01*
X154671428Y-82063152D02*
X154671428Y-82729819D01*
X154433333Y-81682200D02*
X154195238Y-82396485D01*
X154195238Y-82396485D02*
X154814285Y-82396485D01*
X114208333Y-94624819D02*
X113875000Y-94148628D01*
X113636905Y-94624819D02*
X113636905Y-93624819D01*
X113636905Y-93624819D02*
X114017857Y-93624819D01*
X114017857Y-93624819D02*
X114113095Y-93672438D01*
X114113095Y-93672438D02*
X114160714Y-93720057D01*
X114160714Y-93720057D02*
X114208333Y-93815295D01*
X114208333Y-93815295D02*
X114208333Y-93958152D01*
X114208333Y-93958152D02*
X114160714Y-94053390D01*
X114160714Y-94053390D02*
X114113095Y-94101009D01*
X114113095Y-94101009D02*
X114017857Y-94148628D01*
X114017857Y-94148628D02*
X113636905Y-94148628D01*
X115065476Y-93958152D02*
X115065476Y-94624819D01*
X114827381Y-93577200D02*
X114589286Y-94291485D01*
X114589286Y-94291485D02*
X115208333Y-94291485D01*
X160166667Y-97657200D02*
X160309524Y-97704819D01*
X160309524Y-97704819D02*
X160547619Y-97704819D01*
X160547619Y-97704819D02*
X160642857Y-97657200D01*
X160642857Y-97657200D02*
X160690476Y-97609580D01*
X160690476Y-97609580D02*
X160738095Y-97514342D01*
X160738095Y-97514342D02*
X160738095Y-97419104D01*
X160738095Y-97419104D02*
X160690476Y-97323866D01*
X160690476Y-97323866D02*
X160642857Y-97276247D01*
X160642857Y-97276247D02*
X160547619Y-97228628D01*
X160547619Y-97228628D02*
X160357143Y-97181009D01*
X160357143Y-97181009D02*
X160261905Y-97133390D01*
X160261905Y-97133390D02*
X160214286Y-97085771D01*
X160214286Y-97085771D02*
X160166667Y-96990533D01*
X160166667Y-96990533D02*
X160166667Y-96895295D01*
X160166667Y-96895295D02*
X160214286Y-96800057D01*
X160214286Y-96800057D02*
X160261905Y-96752438D01*
X160261905Y-96752438D02*
X160357143Y-96704819D01*
X160357143Y-96704819D02*
X160595238Y-96704819D01*
X160595238Y-96704819D02*
X160738095Y-96752438D01*
X161071429Y-96704819D02*
X161309524Y-97704819D01*
X161309524Y-97704819D02*
X161500000Y-96990533D01*
X161500000Y-96990533D02*
X161690476Y-97704819D01*
X161690476Y-97704819D02*
X161928572Y-96704819D01*
X162738095Y-97038152D02*
X162738095Y-97704819D01*
X162500000Y-96657200D02*
X162261905Y-97371485D01*
X162261905Y-97371485D02*
X162880952Y-97371485D01*
X109561905Y-98054819D02*
X109561905Y-97054819D01*
X109561905Y-97054819D02*
X109800000Y-97054819D01*
X109800000Y-97054819D02*
X109942857Y-97102438D01*
X109942857Y-97102438D02*
X110038095Y-97197676D01*
X110038095Y-97197676D02*
X110085714Y-97292914D01*
X110085714Y-97292914D02*
X110133333Y-97483390D01*
X110133333Y-97483390D02*
X110133333Y-97626247D01*
X110133333Y-97626247D02*
X110085714Y-97816723D01*
X110085714Y-97816723D02*
X110038095Y-97911961D01*
X110038095Y-97911961D02*
X109942857Y-98007200D01*
X109942857Y-98007200D02*
X109800000Y-98054819D01*
X109800000Y-98054819D02*
X109561905Y-98054819D01*
X111085714Y-98054819D02*
X110514286Y-98054819D01*
X110800000Y-98054819D02*
X110800000Y-97054819D01*
X110800000Y-97054819D02*
X110704762Y-97197676D01*
X110704762Y-97197676D02*
X110609524Y-97292914D01*
X110609524Y-97292914D02*
X110514286Y-97340533D01*
X176666666Y-104954819D02*
X176666666Y-105669104D01*
X176666666Y-105669104D02*
X176619047Y-105811961D01*
X176619047Y-105811961D02*
X176523809Y-105907200D01*
X176523809Y-105907200D02*
X176380952Y-105954819D01*
X176380952Y-105954819D02*
X176285714Y-105954819D01*
X177047619Y-104954819D02*
X177714285Y-104954819D01*
X177714285Y-104954819D02*
X177285714Y-105954819D01*
X171308333Y-90184819D02*
X170975000Y-89708628D01*
X170736905Y-90184819D02*
X170736905Y-89184819D01*
X170736905Y-89184819D02*
X171117857Y-89184819D01*
X171117857Y-89184819D02*
X171213095Y-89232438D01*
X171213095Y-89232438D02*
X171260714Y-89280057D01*
X171260714Y-89280057D02*
X171308333Y-89375295D01*
X171308333Y-89375295D02*
X171308333Y-89518152D01*
X171308333Y-89518152D02*
X171260714Y-89613390D01*
X171260714Y-89613390D02*
X171213095Y-89661009D01*
X171213095Y-89661009D02*
X171117857Y-89708628D01*
X171117857Y-89708628D02*
X170736905Y-89708628D01*
X171641667Y-89184819D02*
X172308333Y-89184819D01*
X172308333Y-89184819D02*
X171879762Y-90184819D01*
X114504761Y-88850057D02*
X114409523Y-88802438D01*
X114409523Y-88802438D02*
X114314285Y-88707200D01*
X114314285Y-88707200D02*
X114171428Y-88564342D01*
X114171428Y-88564342D02*
X114076190Y-88516723D01*
X114076190Y-88516723D02*
X113980952Y-88516723D01*
X114028571Y-88754819D02*
X113933333Y-88707200D01*
X113933333Y-88707200D02*
X113838095Y-88611961D01*
X113838095Y-88611961D02*
X113790476Y-88421485D01*
X113790476Y-88421485D02*
X113790476Y-88088152D01*
X113790476Y-88088152D02*
X113838095Y-87897676D01*
X113838095Y-87897676D02*
X113933333Y-87802438D01*
X113933333Y-87802438D02*
X114028571Y-87754819D01*
X114028571Y-87754819D02*
X114219047Y-87754819D01*
X114219047Y-87754819D02*
X114314285Y-87802438D01*
X114314285Y-87802438D02*
X114409523Y-87897676D01*
X114409523Y-87897676D02*
X114457142Y-88088152D01*
X114457142Y-88088152D02*
X114457142Y-88421485D01*
X114457142Y-88421485D02*
X114409523Y-88611961D01*
X114409523Y-88611961D02*
X114314285Y-88707200D01*
X114314285Y-88707200D02*
X114219047Y-88754819D01*
X114219047Y-88754819D02*
X114028571Y-88754819D01*
X115409523Y-88754819D02*
X114838095Y-88754819D01*
X115123809Y-88754819D02*
X115123809Y-87754819D01*
X115123809Y-87754819D02*
X115028571Y-87897676D01*
X115028571Y-87897676D02*
X114933333Y-87992914D01*
X114933333Y-87992914D02*
X114838095Y-88040533D01*
X162833333Y-81644580D02*
X162785714Y-81692200D01*
X162785714Y-81692200D02*
X162642857Y-81739819D01*
X162642857Y-81739819D02*
X162547619Y-81739819D01*
X162547619Y-81739819D02*
X162404762Y-81692200D01*
X162404762Y-81692200D02*
X162309524Y-81596961D01*
X162309524Y-81596961D02*
X162261905Y-81501723D01*
X162261905Y-81501723D02*
X162214286Y-81311247D01*
X162214286Y-81311247D02*
X162214286Y-81168390D01*
X162214286Y-81168390D02*
X162261905Y-80977914D01*
X162261905Y-80977914D02*
X162309524Y-80882676D01*
X162309524Y-80882676D02*
X162404762Y-80787438D01*
X162404762Y-80787438D02*
X162547619Y-80739819D01*
X162547619Y-80739819D02*
X162642857Y-80739819D01*
X162642857Y-80739819D02*
X162785714Y-80787438D01*
X162785714Y-80787438D02*
X162833333Y-80835057D01*
X163214286Y-80835057D02*
X163261905Y-80787438D01*
X163261905Y-80787438D02*
X163357143Y-80739819D01*
X163357143Y-80739819D02*
X163595238Y-80739819D01*
X163595238Y-80739819D02*
X163690476Y-80787438D01*
X163690476Y-80787438D02*
X163738095Y-80835057D01*
X163738095Y-80835057D02*
X163785714Y-80930295D01*
X163785714Y-80930295D02*
X163785714Y-81025533D01*
X163785714Y-81025533D02*
X163738095Y-81168390D01*
X163738095Y-81168390D02*
X163166667Y-81739819D01*
X163166667Y-81739819D02*
X163785714Y-81739819D01*
X110066666Y-85744819D02*
X110066666Y-86459104D01*
X110066666Y-86459104D02*
X110019047Y-86601961D01*
X110019047Y-86601961D02*
X109923809Y-86697200D01*
X109923809Y-86697200D02*
X109780952Y-86744819D01*
X109780952Y-86744819D02*
X109685714Y-86744819D01*
X110685714Y-86173390D02*
X110590476Y-86125771D01*
X110590476Y-86125771D02*
X110542857Y-86078152D01*
X110542857Y-86078152D02*
X110495238Y-85982914D01*
X110495238Y-85982914D02*
X110495238Y-85935295D01*
X110495238Y-85935295D02*
X110542857Y-85840057D01*
X110542857Y-85840057D02*
X110590476Y-85792438D01*
X110590476Y-85792438D02*
X110685714Y-85744819D01*
X110685714Y-85744819D02*
X110876190Y-85744819D01*
X110876190Y-85744819D02*
X110971428Y-85792438D01*
X110971428Y-85792438D02*
X111019047Y-85840057D01*
X111019047Y-85840057D02*
X111066666Y-85935295D01*
X111066666Y-85935295D02*
X111066666Y-85982914D01*
X111066666Y-85982914D02*
X111019047Y-86078152D01*
X111019047Y-86078152D02*
X110971428Y-86125771D01*
X110971428Y-86125771D02*
X110876190Y-86173390D01*
X110876190Y-86173390D02*
X110685714Y-86173390D01*
X110685714Y-86173390D02*
X110590476Y-86221009D01*
X110590476Y-86221009D02*
X110542857Y-86268628D01*
X110542857Y-86268628D02*
X110495238Y-86363866D01*
X110495238Y-86363866D02*
X110495238Y-86554342D01*
X110495238Y-86554342D02*
X110542857Y-86649580D01*
X110542857Y-86649580D02*
X110590476Y-86697200D01*
X110590476Y-86697200D02*
X110685714Y-86744819D01*
X110685714Y-86744819D02*
X110876190Y-86744819D01*
X110876190Y-86744819D02*
X110971428Y-86697200D01*
X110971428Y-86697200D02*
X111019047Y-86649580D01*
X111019047Y-86649580D02*
X111066666Y-86554342D01*
X111066666Y-86554342D02*
X111066666Y-86363866D01*
X111066666Y-86363866D02*
X111019047Y-86268628D01*
X111019047Y-86268628D02*
X110971428Y-86221009D01*
X110971428Y-86221009D02*
X110876190Y-86173390D01*
X175738095Y-107754819D02*
X175738095Y-106754819D01*
X175738095Y-107231009D02*
X176309523Y-107231009D01*
X176309523Y-107754819D02*
X176309523Y-106754819D01*
X177309523Y-107754819D02*
X176738095Y-107754819D01*
X177023809Y-107754819D02*
X177023809Y-106754819D01*
X177023809Y-106754819D02*
X176928571Y-106897676D01*
X176928571Y-106897676D02*
X176833333Y-106992914D01*
X176833333Y-106992914D02*
X176738095Y-107040533D01*
X149366666Y-51854819D02*
X149366666Y-52569104D01*
X149366666Y-52569104D02*
X149319047Y-52711961D01*
X149319047Y-52711961D02*
X149223809Y-52807200D01*
X149223809Y-52807200D02*
X149080952Y-52854819D01*
X149080952Y-52854819D02*
X148985714Y-52854819D01*
X149890476Y-52854819D02*
X150080952Y-52854819D01*
X150080952Y-52854819D02*
X150176190Y-52807200D01*
X150176190Y-52807200D02*
X150223809Y-52759580D01*
X150223809Y-52759580D02*
X150319047Y-52616723D01*
X150319047Y-52616723D02*
X150366666Y-52426247D01*
X150366666Y-52426247D02*
X150366666Y-52045295D01*
X150366666Y-52045295D02*
X150319047Y-51950057D01*
X150319047Y-51950057D02*
X150271428Y-51902438D01*
X150271428Y-51902438D02*
X150176190Y-51854819D01*
X150176190Y-51854819D02*
X149985714Y-51854819D01*
X149985714Y-51854819D02*
X149890476Y-51902438D01*
X149890476Y-51902438D02*
X149842857Y-51950057D01*
X149842857Y-51950057D02*
X149795238Y-52045295D01*
X149795238Y-52045295D02*
X149795238Y-52283390D01*
X149795238Y-52283390D02*
X149842857Y-52378628D01*
X149842857Y-52378628D02*
X149890476Y-52426247D01*
X149890476Y-52426247D02*
X149985714Y-52473866D01*
X149985714Y-52473866D02*
X150176190Y-52473866D01*
X150176190Y-52473866D02*
X150271428Y-52426247D01*
X150271428Y-52426247D02*
X150319047Y-52378628D01*
X150319047Y-52378628D02*
X150366666Y-52283390D01*
X132133333Y-73804819D02*
X131800000Y-73328628D01*
X131561905Y-73804819D02*
X131561905Y-72804819D01*
X131561905Y-72804819D02*
X131942857Y-72804819D01*
X131942857Y-72804819D02*
X132038095Y-72852438D01*
X132038095Y-72852438D02*
X132085714Y-72900057D01*
X132085714Y-72900057D02*
X132133333Y-72995295D01*
X132133333Y-72995295D02*
X132133333Y-73138152D01*
X132133333Y-73138152D02*
X132085714Y-73233390D01*
X132085714Y-73233390D02*
X132038095Y-73281009D01*
X132038095Y-73281009D02*
X131942857Y-73328628D01*
X131942857Y-73328628D02*
X131561905Y-73328628D01*
X132466667Y-72804819D02*
X133085714Y-72804819D01*
X133085714Y-72804819D02*
X132752381Y-73185771D01*
X132752381Y-73185771D02*
X132895238Y-73185771D01*
X132895238Y-73185771D02*
X132990476Y-73233390D01*
X132990476Y-73233390D02*
X133038095Y-73281009D01*
X133038095Y-73281009D02*
X133085714Y-73376247D01*
X133085714Y-73376247D02*
X133085714Y-73614342D01*
X133085714Y-73614342D02*
X133038095Y-73709580D01*
X133038095Y-73709580D02*
X132990476Y-73757200D01*
X132990476Y-73757200D02*
X132895238Y-73804819D01*
X132895238Y-73804819D02*
X132609524Y-73804819D01*
X132609524Y-73804819D02*
X132514286Y-73757200D01*
X132514286Y-73757200D02*
X132466667Y-73709580D01*
X126533333Y-73704819D02*
X126200000Y-73228628D01*
X125961905Y-73704819D02*
X125961905Y-72704819D01*
X125961905Y-72704819D02*
X126342857Y-72704819D01*
X126342857Y-72704819D02*
X126438095Y-72752438D01*
X126438095Y-72752438D02*
X126485714Y-72800057D01*
X126485714Y-72800057D02*
X126533333Y-72895295D01*
X126533333Y-72895295D02*
X126533333Y-73038152D01*
X126533333Y-73038152D02*
X126485714Y-73133390D01*
X126485714Y-73133390D02*
X126438095Y-73181009D01*
X126438095Y-73181009D02*
X126342857Y-73228628D01*
X126342857Y-73228628D02*
X125961905Y-73228628D01*
X127390476Y-72704819D02*
X127200000Y-72704819D01*
X127200000Y-72704819D02*
X127104762Y-72752438D01*
X127104762Y-72752438D02*
X127057143Y-72800057D01*
X127057143Y-72800057D02*
X126961905Y-72942914D01*
X126961905Y-72942914D02*
X126914286Y-73133390D01*
X126914286Y-73133390D02*
X126914286Y-73514342D01*
X126914286Y-73514342D02*
X126961905Y-73609580D01*
X126961905Y-73609580D02*
X127009524Y-73657200D01*
X127009524Y-73657200D02*
X127104762Y-73704819D01*
X127104762Y-73704819D02*
X127295238Y-73704819D01*
X127295238Y-73704819D02*
X127390476Y-73657200D01*
X127390476Y-73657200D02*
X127438095Y-73609580D01*
X127438095Y-73609580D02*
X127485714Y-73514342D01*
X127485714Y-73514342D02*
X127485714Y-73276247D01*
X127485714Y-73276247D02*
X127438095Y-73181009D01*
X127438095Y-73181009D02*
X127390476Y-73133390D01*
X127390476Y-73133390D02*
X127295238Y-73085771D01*
X127295238Y-73085771D02*
X127104762Y-73085771D01*
X127104762Y-73085771D02*
X127009524Y-73133390D01*
X127009524Y-73133390D02*
X126961905Y-73181009D01*
X126961905Y-73181009D02*
X126914286Y-73276247D01*
X153923809Y-72988628D02*
X153923809Y-73464819D01*
X153590476Y-72464819D02*
X153923809Y-72988628D01*
X153923809Y-72988628D02*
X154257142Y-72464819D01*
X155114285Y-73464819D02*
X154542857Y-73464819D01*
X154828571Y-73464819D02*
X154828571Y-72464819D01*
X154828571Y-72464819D02*
X154733333Y-72607676D01*
X154733333Y-72607676D02*
X154638095Y-72702914D01*
X154638095Y-72702914D02*
X154542857Y-72750533D01*
X127666667Y-95407200D02*
X127809524Y-95454819D01*
X127809524Y-95454819D02*
X128047619Y-95454819D01*
X128047619Y-95454819D02*
X128142857Y-95407200D01*
X128142857Y-95407200D02*
X128190476Y-95359580D01*
X128190476Y-95359580D02*
X128238095Y-95264342D01*
X128238095Y-95264342D02*
X128238095Y-95169104D01*
X128238095Y-95169104D02*
X128190476Y-95073866D01*
X128190476Y-95073866D02*
X128142857Y-95026247D01*
X128142857Y-95026247D02*
X128047619Y-94978628D01*
X128047619Y-94978628D02*
X127857143Y-94931009D01*
X127857143Y-94931009D02*
X127761905Y-94883390D01*
X127761905Y-94883390D02*
X127714286Y-94835771D01*
X127714286Y-94835771D02*
X127666667Y-94740533D01*
X127666667Y-94740533D02*
X127666667Y-94645295D01*
X127666667Y-94645295D02*
X127714286Y-94550057D01*
X127714286Y-94550057D02*
X127761905Y-94502438D01*
X127761905Y-94502438D02*
X127857143Y-94454819D01*
X127857143Y-94454819D02*
X128095238Y-94454819D01*
X128095238Y-94454819D02*
X128238095Y-94502438D01*
X128571429Y-94454819D02*
X128809524Y-95454819D01*
X128809524Y-95454819D02*
X129000000Y-94740533D01*
X129000000Y-94740533D02*
X129190476Y-95454819D01*
X129190476Y-95454819D02*
X129428572Y-94454819D01*
X129761905Y-94550057D02*
X129809524Y-94502438D01*
X129809524Y-94502438D02*
X129904762Y-94454819D01*
X129904762Y-94454819D02*
X130142857Y-94454819D01*
X130142857Y-94454819D02*
X130238095Y-94502438D01*
X130238095Y-94502438D02*
X130285714Y-94550057D01*
X130285714Y-94550057D02*
X130333333Y-94645295D01*
X130333333Y-94645295D02*
X130333333Y-94740533D01*
X130333333Y-94740533D02*
X130285714Y-94883390D01*
X130285714Y-94883390D02*
X129714286Y-95454819D01*
X129714286Y-95454819D02*
X130333333Y-95454819D01*
X162190476Y-60454819D02*
X162190476Y-61169104D01*
X162190476Y-61169104D02*
X162142857Y-61311961D01*
X162142857Y-61311961D02*
X162047619Y-61407200D01*
X162047619Y-61407200D02*
X161904762Y-61454819D01*
X161904762Y-61454819D02*
X161809524Y-61454819D01*
X163190476Y-61454819D02*
X162619048Y-61454819D01*
X162904762Y-61454819D02*
X162904762Y-60454819D01*
X162904762Y-60454819D02*
X162809524Y-60597676D01*
X162809524Y-60597676D02*
X162714286Y-60692914D01*
X162714286Y-60692914D02*
X162619048Y-60740533D01*
X164142857Y-61454819D02*
X163571429Y-61454819D01*
X163857143Y-61454819D02*
X163857143Y-60454819D01*
X163857143Y-60454819D02*
X163761905Y-60597676D01*
X163761905Y-60597676D02*
X163666667Y-60692914D01*
X163666667Y-60692914D02*
X163571429Y-60740533D01*
X144866667Y-95535200D02*
X145009524Y-95582819D01*
X145009524Y-95582819D02*
X145247619Y-95582819D01*
X145247619Y-95582819D02*
X145342857Y-95535200D01*
X145342857Y-95535200D02*
X145390476Y-95487580D01*
X145390476Y-95487580D02*
X145438095Y-95392342D01*
X145438095Y-95392342D02*
X145438095Y-95297104D01*
X145438095Y-95297104D02*
X145390476Y-95201866D01*
X145390476Y-95201866D02*
X145342857Y-95154247D01*
X145342857Y-95154247D02*
X145247619Y-95106628D01*
X145247619Y-95106628D02*
X145057143Y-95059009D01*
X145057143Y-95059009D02*
X144961905Y-95011390D01*
X144961905Y-95011390D02*
X144914286Y-94963771D01*
X144914286Y-94963771D02*
X144866667Y-94868533D01*
X144866667Y-94868533D02*
X144866667Y-94773295D01*
X144866667Y-94773295D02*
X144914286Y-94678057D01*
X144914286Y-94678057D02*
X144961905Y-94630438D01*
X144961905Y-94630438D02*
X145057143Y-94582819D01*
X145057143Y-94582819D02*
X145295238Y-94582819D01*
X145295238Y-94582819D02*
X145438095Y-94630438D01*
X145771429Y-94582819D02*
X146009524Y-95582819D01*
X146009524Y-95582819D02*
X146200000Y-94868533D01*
X146200000Y-94868533D02*
X146390476Y-95582819D01*
X146390476Y-95582819D02*
X146628572Y-94582819D01*
X146914286Y-94582819D02*
X147533333Y-94582819D01*
X147533333Y-94582819D02*
X147200000Y-94963771D01*
X147200000Y-94963771D02*
X147342857Y-94963771D01*
X147342857Y-94963771D02*
X147438095Y-95011390D01*
X147438095Y-95011390D02*
X147485714Y-95059009D01*
X147485714Y-95059009D02*
X147533333Y-95154247D01*
X147533333Y-95154247D02*
X147533333Y-95392342D01*
X147533333Y-95392342D02*
X147485714Y-95487580D01*
X147485714Y-95487580D02*
X147438095Y-95535200D01*
X147438095Y-95535200D02*
X147342857Y-95582819D01*
X147342857Y-95582819D02*
X147057143Y-95582819D01*
X147057143Y-95582819D02*
X146961905Y-95535200D01*
X146961905Y-95535200D02*
X146914286Y-95487580D01*
X156333333Y-63929580D02*
X156285714Y-63977200D01*
X156285714Y-63977200D02*
X156142857Y-64024819D01*
X156142857Y-64024819D02*
X156047619Y-64024819D01*
X156047619Y-64024819D02*
X155904762Y-63977200D01*
X155904762Y-63977200D02*
X155809524Y-63881961D01*
X155809524Y-63881961D02*
X155761905Y-63786723D01*
X155761905Y-63786723D02*
X155714286Y-63596247D01*
X155714286Y-63596247D02*
X155714286Y-63453390D01*
X155714286Y-63453390D02*
X155761905Y-63262914D01*
X155761905Y-63262914D02*
X155809524Y-63167676D01*
X155809524Y-63167676D02*
X155904762Y-63072438D01*
X155904762Y-63072438D02*
X156047619Y-63024819D01*
X156047619Y-63024819D02*
X156142857Y-63024819D01*
X156142857Y-63024819D02*
X156285714Y-63072438D01*
X156285714Y-63072438D02*
X156333333Y-63120057D01*
X157285714Y-64024819D02*
X156714286Y-64024819D01*
X157000000Y-64024819D02*
X157000000Y-63024819D01*
X157000000Y-63024819D02*
X156904762Y-63167676D01*
X156904762Y-63167676D02*
X156809524Y-63262914D01*
X156809524Y-63262914D02*
X156714286Y-63310533D01*
X155166666Y-115554819D02*
X155166666Y-116269104D01*
X155166666Y-116269104D02*
X155119047Y-116411961D01*
X155119047Y-116411961D02*
X155023809Y-116507200D01*
X155023809Y-116507200D02*
X154880952Y-116554819D01*
X154880952Y-116554819D02*
X154785714Y-116554819D01*
X155595238Y-115650057D02*
X155642857Y-115602438D01*
X155642857Y-115602438D02*
X155738095Y-115554819D01*
X155738095Y-115554819D02*
X155976190Y-115554819D01*
X155976190Y-115554819D02*
X156071428Y-115602438D01*
X156071428Y-115602438D02*
X156119047Y-115650057D01*
X156119047Y-115650057D02*
X156166666Y-115745295D01*
X156166666Y-115745295D02*
X156166666Y-115840533D01*
X156166666Y-115840533D02*
X156119047Y-115983390D01*
X156119047Y-115983390D02*
X155547619Y-116554819D01*
X155547619Y-116554819D02*
X156166666Y-116554819D01*
X174861905Y-98004819D02*
X174861905Y-97004819D01*
X174861905Y-97004819D02*
X175100000Y-97004819D01*
X175100000Y-97004819D02*
X175242857Y-97052438D01*
X175242857Y-97052438D02*
X175338095Y-97147676D01*
X175338095Y-97147676D02*
X175385714Y-97242914D01*
X175385714Y-97242914D02*
X175433333Y-97433390D01*
X175433333Y-97433390D02*
X175433333Y-97576247D01*
X175433333Y-97576247D02*
X175385714Y-97766723D01*
X175385714Y-97766723D02*
X175338095Y-97861961D01*
X175338095Y-97861961D02*
X175242857Y-97957200D01*
X175242857Y-97957200D02*
X175100000Y-98004819D01*
X175100000Y-98004819D02*
X174861905Y-98004819D01*
X175814286Y-97100057D02*
X175861905Y-97052438D01*
X175861905Y-97052438D02*
X175957143Y-97004819D01*
X175957143Y-97004819D02*
X176195238Y-97004819D01*
X176195238Y-97004819D02*
X176290476Y-97052438D01*
X176290476Y-97052438D02*
X176338095Y-97100057D01*
X176338095Y-97100057D02*
X176385714Y-97195295D01*
X176385714Y-97195295D02*
X176385714Y-97290533D01*
X176385714Y-97290533D02*
X176338095Y-97433390D01*
X176338095Y-97433390D02*
X175766667Y-98004819D01*
X175766667Y-98004819D02*
X176385714Y-98004819D01*
X130638095Y-64054819D02*
X130638095Y-64864342D01*
X130638095Y-64864342D02*
X130685714Y-64959580D01*
X130685714Y-64959580D02*
X130733333Y-65007200D01*
X130733333Y-65007200D02*
X130828571Y-65054819D01*
X130828571Y-65054819D02*
X131019047Y-65054819D01*
X131019047Y-65054819D02*
X131114285Y-65007200D01*
X131114285Y-65007200D02*
X131161904Y-64959580D01*
X131161904Y-64959580D02*
X131209523Y-64864342D01*
X131209523Y-64864342D02*
X131209523Y-64054819D01*
X131590476Y-64054819D02*
X132209523Y-64054819D01*
X132209523Y-64054819D02*
X131876190Y-64435771D01*
X131876190Y-64435771D02*
X132019047Y-64435771D01*
X132019047Y-64435771D02*
X132114285Y-64483390D01*
X132114285Y-64483390D02*
X132161904Y-64531009D01*
X132161904Y-64531009D02*
X132209523Y-64626247D01*
X132209523Y-64626247D02*
X132209523Y-64864342D01*
X132209523Y-64864342D02*
X132161904Y-64959580D01*
X132161904Y-64959580D02*
X132114285Y-65007200D01*
X132114285Y-65007200D02*
X132019047Y-65054819D01*
X132019047Y-65054819D02*
X131733333Y-65054819D01*
X131733333Y-65054819D02*
X131638095Y-65007200D01*
X131638095Y-65007200D02*
X131590476Y-64959580D01*
X114357142Y-65954819D02*
X114023809Y-65478628D01*
X113785714Y-65954819D02*
X113785714Y-64954819D01*
X113785714Y-64954819D02*
X114166666Y-64954819D01*
X114166666Y-64954819D02*
X114261904Y-65002438D01*
X114261904Y-65002438D02*
X114309523Y-65050057D01*
X114309523Y-65050057D02*
X114357142Y-65145295D01*
X114357142Y-65145295D02*
X114357142Y-65288152D01*
X114357142Y-65288152D02*
X114309523Y-65383390D01*
X114309523Y-65383390D02*
X114261904Y-65431009D01*
X114261904Y-65431009D02*
X114166666Y-65478628D01*
X114166666Y-65478628D02*
X113785714Y-65478628D01*
X115309523Y-65954819D02*
X114738095Y-65954819D01*
X115023809Y-65954819D02*
X115023809Y-64954819D01*
X115023809Y-64954819D02*
X114928571Y-65097676D01*
X114928571Y-65097676D02*
X114833333Y-65192914D01*
X114833333Y-65192914D02*
X114738095Y-65240533D01*
X115690476Y-65050057D02*
X115738095Y-65002438D01*
X115738095Y-65002438D02*
X115833333Y-64954819D01*
X115833333Y-64954819D02*
X116071428Y-64954819D01*
X116071428Y-64954819D02*
X116166666Y-65002438D01*
X116166666Y-65002438D02*
X116214285Y-65050057D01*
X116214285Y-65050057D02*
X116261904Y-65145295D01*
X116261904Y-65145295D02*
X116261904Y-65240533D01*
X116261904Y-65240533D02*
X116214285Y-65383390D01*
X116214285Y-65383390D02*
X115642857Y-65954819D01*
X115642857Y-65954819D02*
X116261904Y-65954819D01*
X135457142Y-63954819D02*
X135123809Y-63478628D01*
X134885714Y-63954819D02*
X134885714Y-62954819D01*
X134885714Y-62954819D02*
X135266666Y-62954819D01*
X135266666Y-62954819D02*
X135361904Y-63002438D01*
X135361904Y-63002438D02*
X135409523Y-63050057D01*
X135409523Y-63050057D02*
X135457142Y-63145295D01*
X135457142Y-63145295D02*
X135457142Y-63288152D01*
X135457142Y-63288152D02*
X135409523Y-63383390D01*
X135409523Y-63383390D02*
X135361904Y-63431009D01*
X135361904Y-63431009D02*
X135266666Y-63478628D01*
X135266666Y-63478628D02*
X134885714Y-63478628D01*
X136409523Y-63954819D02*
X135838095Y-63954819D01*
X136123809Y-63954819D02*
X136123809Y-62954819D01*
X136123809Y-62954819D02*
X136028571Y-63097676D01*
X136028571Y-63097676D02*
X135933333Y-63192914D01*
X135933333Y-63192914D02*
X135838095Y-63240533D01*
X136885714Y-63954819D02*
X137076190Y-63954819D01*
X137076190Y-63954819D02*
X137171428Y-63907200D01*
X137171428Y-63907200D02*
X137219047Y-63859580D01*
X137219047Y-63859580D02*
X137314285Y-63716723D01*
X137314285Y-63716723D02*
X137361904Y-63526247D01*
X137361904Y-63526247D02*
X137361904Y-63145295D01*
X137361904Y-63145295D02*
X137314285Y-63050057D01*
X137314285Y-63050057D02*
X137266666Y-63002438D01*
X137266666Y-63002438D02*
X137171428Y-62954819D01*
X137171428Y-62954819D02*
X136980952Y-62954819D01*
X136980952Y-62954819D02*
X136885714Y-63002438D01*
X136885714Y-63002438D02*
X136838095Y-63050057D01*
X136838095Y-63050057D02*
X136790476Y-63145295D01*
X136790476Y-63145295D02*
X136790476Y-63383390D01*
X136790476Y-63383390D02*
X136838095Y-63478628D01*
X136838095Y-63478628D02*
X136885714Y-63526247D01*
X136885714Y-63526247D02*
X136980952Y-63573866D01*
X136980952Y-63573866D02*
X137171428Y-63573866D01*
X137171428Y-63573866D02*
X137266666Y-63526247D01*
X137266666Y-63526247D02*
X137314285Y-63478628D01*
X137314285Y-63478628D02*
X137361904Y-63383390D01*
D11*
X109166666Y-60707419D02*
X109166666Y-61421704D01*
X109166666Y-61421704D02*
X109119047Y-61564561D01*
X109119047Y-61564561D02*
X109023809Y-61659800D01*
X109023809Y-61659800D02*
X108880952Y-61707419D01*
X108880952Y-61707419D02*
X108785714Y-61707419D01*
X109547619Y-60707419D02*
X110166666Y-60707419D01*
X110166666Y-60707419D02*
X109833333Y-61088371D01*
X109833333Y-61088371D02*
X109976190Y-61088371D01*
X109976190Y-61088371D02*
X110071428Y-61135990D01*
X110071428Y-61135990D02*
X110119047Y-61183609D01*
X110119047Y-61183609D02*
X110166666Y-61278847D01*
X110166666Y-61278847D02*
X110166666Y-61516942D01*
X110166666Y-61516942D02*
X110119047Y-61612180D01*
X110119047Y-61612180D02*
X110071428Y-61659800D01*
X110071428Y-61659800D02*
X109976190Y-61707419D01*
X109976190Y-61707419D02*
X109690476Y-61707419D01*
X109690476Y-61707419D02*
X109595238Y-61659800D01*
X109595238Y-61659800D02*
X109547619Y-61612180D01*
D10*
X112466667Y-97907200D02*
X112609524Y-97954819D01*
X112609524Y-97954819D02*
X112847619Y-97954819D01*
X112847619Y-97954819D02*
X112942857Y-97907200D01*
X112942857Y-97907200D02*
X112990476Y-97859580D01*
X112990476Y-97859580D02*
X113038095Y-97764342D01*
X113038095Y-97764342D02*
X113038095Y-97669104D01*
X113038095Y-97669104D02*
X112990476Y-97573866D01*
X112990476Y-97573866D02*
X112942857Y-97526247D01*
X112942857Y-97526247D02*
X112847619Y-97478628D01*
X112847619Y-97478628D02*
X112657143Y-97431009D01*
X112657143Y-97431009D02*
X112561905Y-97383390D01*
X112561905Y-97383390D02*
X112514286Y-97335771D01*
X112514286Y-97335771D02*
X112466667Y-97240533D01*
X112466667Y-97240533D02*
X112466667Y-97145295D01*
X112466667Y-97145295D02*
X112514286Y-97050057D01*
X112514286Y-97050057D02*
X112561905Y-97002438D01*
X112561905Y-97002438D02*
X112657143Y-96954819D01*
X112657143Y-96954819D02*
X112895238Y-96954819D01*
X112895238Y-96954819D02*
X113038095Y-97002438D01*
X113371429Y-96954819D02*
X113609524Y-97954819D01*
X113609524Y-97954819D02*
X113800000Y-97240533D01*
X113800000Y-97240533D02*
X113990476Y-97954819D01*
X113990476Y-97954819D02*
X114228572Y-96954819D01*
X115133333Y-97954819D02*
X114561905Y-97954819D01*
X114847619Y-97954819D02*
X114847619Y-96954819D01*
X114847619Y-96954819D02*
X114752381Y-97097676D01*
X114752381Y-97097676D02*
X114657143Y-97192914D01*
X114657143Y-97192914D02*
X114561905Y-97240533D01*
D12*
%TO.C,R8*%
X143477500Y-59362258D02*
X143477500Y-58887742D01*
X144522500Y-59362258D02*
X144522500Y-58887742D01*
D13*
%TO.C,J12*%
X116800000Y-54886000D02*
X116800000Y-57786000D01*
X116800000Y-60986000D02*
X116800000Y-63086000D01*
X116800000Y-63086000D02*
X120000000Y-63086000D01*
X120000000Y-62536000D02*
X123450000Y-62536000D01*
X120000000Y-63086000D02*
X120000000Y-62536000D01*
X123450000Y-62036000D02*
X125800000Y-62036000D01*
X123450000Y-62536000D02*
X123450000Y-62036000D01*
X125800000Y-57786000D02*
X125800000Y-54886000D01*
X125800000Y-62036000D02*
X125800000Y-60986000D01*
D14*
X129190000Y-59386000D02*
G75*
G02*
X128790000Y-59386000I-200000J0D01*
G01*
X128790000Y-59386000D02*
G75*
G02*
X129190000Y-59386000I200000J0D01*
G01*
D11*
%TO.C,J6*%
X107262000Y-103930000D02*
X108151000Y-103930000D01*
X107262000Y-105200000D02*
X108151000Y-105200000D01*
X107262000Y-105200000D02*
G75*
G02*
X107262000Y-103930000I0J635000D01*
G01*
D12*
%TO.C,R20*%
X139477500Y-63237742D02*
X139477500Y-63712258D01*
X140522500Y-63237742D02*
X140522500Y-63712258D01*
%TO.C,J10*%
X130810000Y-55130000D02*
X130810000Y-56540000D01*
X138350000Y-59210000D02*
X139150000Y-59210000D01*
X139150000Y-59210000D02*
X139150000Y-59060000D01*
X139970000Y-55130000D02*
X139970000Y-56540000D01*
%TO.C,R9*%
X150737258Y-74227500D02*
X150262742Y-74227500D01*
X150737258Y-75272500D02*
X150262742Y-75272500D01*
%TO.C,C8*%
X153990000Y-86140580D02*
X153990000Y-85859420D01*
X155010000Y-86140580D02*
X155010000Y-85859420D01*
%TO.C,SW6*%
X139550000Y-110950000D02*
X139550000Y-111050000D01*
X139550000Y-115550000D02*
X139550000Y-112550000D01*
X139550000Y-117050000D02*
X139550000Y-117150000D01*
X145750000Y-110950000D02*
X139550000Y-110950000D01*
X145750000Y-110950000D02*
X145750000Y-111050000D01*
X145750000Y-115550000D02*
X145750000Y-112550000D01*
X145750000Y-117150000D02*
X139550000Y-117150000D01*
X145750000Y-117150000D02*
X145750000Y-117050000D01*
%TO.C,JP2*%
X142500000Y-56350000D02*
X142500000Y-54950000D01*
X143200000Y-54250000D02*
X143800000Y-54250000D01*
X143800000Y-57050000D02*
X143200000Y-57050000D01*
X144500000Y-54950000D02*
X144500000Y-56350000D01*
X142500000Y-54950000D02*
G75*
G02*
X143200000Y-54250000I699999J1D01*
G01*
X143200000Y-57050000D02*
G75*
G02*
X142500000Y-56350000I0J700000D01*
G01*
X143800000Y-54250000D02*
G75*
G02*
X144500000Y-54950000I1J-699999D01*
G01*
X144500000Y-56350000D02*
G75*
G02*
X143800000Y-57050000I-700000J0D01*
G01*
%TO.C,Q2*%
X169377500Y-91090000D02*
X170897500Y-91090000D01*
X169377500Y-91140000D02*
X169377500Y-91090000D01*
X169377500Y-93040000D02*
X169377500Y-92260000D01*
X169377500Y-94210000D02*
X169377500Y-94160000D01*
X170897500Y-91090000D02*
X170897500Y-92090000D01*
X170897500Y-93210000D02*
X170897500Y-94210000D01*
X170897500Y-94210000D02*
X169377500Y-94210000D01*
X169077500Y-92600000D02*
X168597500Y-92600000D01*
X168837500Y-92270000D01*
X169077500Y-92600000D01*
G36*
X169077500Y-92600000D02*
G01*
X168597500Y-92600000D01*
X168837500Y-92270000D01*
X169077500Y-92600000D01*
G37*
%TO.C,C5*%
X126490000Y-69359420D02*
X126490000Y-69640580D01*
X127510000Y-69359420D02*
X127510000Y-69640580D01*
%TO.C,J1*%
X106840000Y-112665000D02*
X106840000Y-116065000D01*
X106840000Y-112665000D02*
X108160000Y-112665000D01*
X106840000Y-116065000D02*
X106840000Y-127705000D01*
X106840000Y-127705000D02*
X106840000Y-131105000D01*
X106840000Y-131105000D02*
X108160000Y-131105000D01*
D11*
X107710000Y-121885000D02*
X107960000Y-121600000D01*
X107710000Y-121885000D02*
X107960000Y-122170000D01*
X108960000Y-121885000D02*
X107710000Y-121885000D01*
D12*
X110860000Y-112665000D02*
X114460000Y-112665000D01*
X114460000Y-131105000D02*
X110860000Y-131105000D01*
X117260000Y-112665000D02*
X120860000Y-112665000D01*
X120860000Y-131105000D02*
X117260000Y-131105000D01*
X123560000Y-112665000D02*
X127690000Y-112665000D01*
X127690000Y-112665000D02*
X127690000Y-117415000D01*
X127690000Y-126355000D02*
X127690000Y-131105000D01*
X127690000Y-131105000D02*
X123560000Y-131105000D01*
X130610000Y-117415000D02*
X127690000Y-117415000D01*
X130610000Y-117455000D02*
X130610000Y-126355000D01*
X130610000Y-126355000D02*
X127690000Y-126355000D01*
D11*
X108427829Y-121600000D02*
G75*
G02*
X108427195Y-122168812I532171J-285000D01*
G01*
D12*
%TO.C,J5*%
X131440000Y-123690000D02*
X132460000Y-123690000D01*
X131440000Y-127940000D02*
X131440000Y-123690000D01*
X132460000Y-123690000D02*
X132460000Y-125290000D01*
X132460000Y-125290000D02*
X133740000Y-125290000D01*
X133160000Y-131510000D02*
X151840000Y-131510000D01*
X133740000Y-125290000D02*
X133740000Y-122400000D01*
X152540000Y-123690000D02*
X152540000Y-125290000D01*
X152540000Y-125290000D02*
X151260000Y-125290000D01*
X153560000Y-123690000D02*
X152540000Y-123690000D01*
X153560000Y-127940000D02*
X153560000Y-123690000D01*
%TO.C,R5*%
X144977500Y-59362258D02*
X144977500Y-58887742D01*
X146022500Y-59362258D02*
X146022500Y-58887742D01*
%TO.C,JP4*%
X155500000Y-80875000D02*
X157500000Y-80875000D01*
X155500000Y-83675000D02*
X155500000Y-80875000D01*
X157500000Y-80875000D02*
X157500000Y-83675000D01*
X157500000Y-83675000D02*
X155500000Y-83675000D01*
%TO.C,R4*%
X114137742Y-95077500D02*
X114612258Y-95077500D01*
X114137742Y-96122500D02*
X114612258Y-96122500D01*
%TO.C,SW4*%
X159940000Y-98440000D02*
X164550000Y-98440000D01*
X159940000Y-101150000D02*
X159940000Y-98440000D01*
X159940000Y-106150000D02*
X159940000Y-103350000D01*
X159940000Y-111050000D02*
X159940000Y-108350000D01*
X164550000Y-111050000D02*
X159940000Y-111050000D01*
X168950000Y-98440000D02*
X173560000Y-98440000D01*
X173560000Y-101400000D02*
X173560000Y-98440000D01*
X173560000Y-103900000D02*
X173560000Y-103100000D01*
X173560000Y-106200000D02*
X173560000Y-105600000D01*
X173560000Y-108300000D02*
X173560000Y-111060000D01*
X173560000Y-111060000D02*
X168950000Y-111060000D01*
%TO.C,D1*%
X107615000Y-94840000D02*
X107615000Y-96760000D01*
X107615000Y-96760000D02*
X110300000Y-96760000D01*
X110300000Y-94840000D02*
X107615000Y-94840000D01*
D11*
%TO.C,J7*%
X177738000Y-98865000D02*
X176849000Y-98865000D01*
X177738000Y-100135000D02*
X176849000Y-100135000D01*
X177738000Y-98865000D02*
G75*
G02*
X177738000Y-100135000I0J-635000D01*
G01*
D12*
%TO.C,R7*%
X171712258Y-87777500D02*
X171237742Y-87777500D01*
X171712258Y-88822500D02*
X171237742Y-88822500D01*
%TO.C,Q1*%
X113840000Y-89340000D02*
X115360000Y-89340000D01*
X113840000Y-90340000D02*
X113840000Y-89340000D01*
X113840000Y-92460000D02*
X113840000Y-91460000D01*
X115360000Y-89340000D02*
X115360000Y-89390000D01*
X115360000Y-90510000D02*
X115360000Y-91290000D01*
X115360000Y-92410000D02*
X115360000Y-92460000D01*
X115360000Y-92460000D02*
X113840000Y-92460000D01*
X115900000Y-91280000D02*
X115660000Y-90950000D01*
X116140000Y-90950000D01*
X115900000Y-91280000D01*
G36*
X115900000Y-91280000D02*
G01*
X115660000Y-90950000D01*
X116140000Y-90950000D01*
X115900000Y-91280000D01*
G37*
%TO.C,C2*%
X160490000Y-81144420D02*
X160490000Y-81425580D01*
X161510000Y-81144420D02*
X161510000Y-81425580D01*
D11*
%TO.C,J8*%
X107262000Y-87560000D02*
X108151000Y-87560000D01*
X107262000Y-88830000D02*
X108151000Y-88830000D01*
X107262000Y-88830000D02*
G75*
G02*
X107262000Y-87560000I0J635000D01*
G01*
%TO.C,J9*%
X142920000Y-51762000D02*
X142920000Y-52651000D01*
X144190000Y-51762000D02*
X144190000Y-52651000D01*
X142920000Y-51762000D02*
G75*
G02*
X144190000Y-51762000I635000J0D01*
G01*
D12*
%TO.C,R3*%
X129977500Y-73412258D02*
X129977500Y-72937742D01*
X131022500Y-73412258D02*
X131022500Y-72937742D01*
%TO.C,R6*%
X127977500Y-73389258D02*
X127977500Y-72914742D01*
X129022500Y-73389258D02*
X129022500Y-72914742D01*
%TO.C,Y1*%
X155665000Y-66250000D02*
X155665000Y-78970000D01*
X160885000Y-66250000D02*
X155665000Y-66250000D01*
X160885000Y-78970000D02*
X160885000Y-66250000D01*
%TO.C,SW2*%
X127290000Y-96068000D02*
X131900000Y-96068000D01*
X127290000Y-98778000D02*
X127290000Y-96068000D01*
X127290000Y-103778000D02*
X127290000Y-100978000D01*
X127290000Y-108678000D02*
X127290000Y-105978000D01*
X131900000Y-108678000D02*
X127290000Y-108678000D01*
X136300000Y-96068000D02*
X140910000Y-96068000D01*
X140910000Y-99028000D02*
X140910000Y-96068000D01*
X140910000Y-101528000D02*
X140910000Y-100728000D01*
X140910000Y-103828000D02*
X140910000Y-103228000D01*
X140910000Y-105928000D02*
X140910000Y-108688000D01*
X140910000Y-108688000D02*
X136300000Y-108688000D01*
%TO.C,J11*%
X155415000Y-51510000D02*
X170605000Y-51510000D01*
X155415000Y-56550000D02*
X155415000Y-51510000D01*
X155415000Y-56550000D02*
X170605000Y-56550000D01*
X158390000Y-60260000D02*
X158390000Y-59450000D01*
X159200000Y-57450000D02*
X159200000Y-56570000D01*
X159200000Y-60260000D02*
X158390000Y-60260000D01*
X160450000Y-57450000D02*
X160450000Y-56570000D01*
X161720000Y-57450000D02*
X161720000Y-56570000D01*
X162990000Y-57450000D02*
X162990000Y-56570000D01*
X164260000Y-57450000D02*
X164260000Y-56570000D01*
X165530000Y-57450000D02*
X165530000Y-56570000D01*
X166800000Y-57450000D02*
X166800000Y-56570000D01*
X170605000Y-51510000D02*
X170605000Y-56550000D01*
%TO.C,SW3*%
X144692000Y-96068000D02*
X149302000Y-96068000D01*
X144692000Y-98828000D02*
X144692000Y-96068000D01*
X144692000Y-100928000D02*
X144692000Y-101528000D01*
X144692000Y-103228000D02*
X144692000Y-104028000D01*
X144692000Y-105728000D02*
X144692000Y-108688000D01*
X149302000Y-108688000D02*
X144692000Y-108688000D01*
X153702000Y-96078000D02*
X158312000Y-96078000D01*
X158312000Y-96078000D02*
X158312000Y-98778000D01*
X158312000Y-100978000D02*
X158312000Y-103778000D01*
X158312000Y-105978000D02*
X158312000Y-108688000D01*
X158312000Y-108688000D02*
X153702000Y-108688000D01*
%TO.C,C1*%
X156359420Y-64490000D02*
X156640580Y-64490000D01*
X156359420Y-65510000D02*
X156640580Y-65510000D01*
%TO.C,J2*%
X154400000Y-117675000D02*
X157320000Y-117675000D01*
X154400000Y-126575000D02*
X154400000Y-117675000D01*
X154400000Y-126615000D02*
X157320000Y-126615000D01*
X157320000Y-112925000D02*
X161450000Y-112925000D01*
X157320000Y-117675000D02*
X157320000Y-112925000D01*
X157320000Y-131365000D02*
X157320000Y-126615000D01*
X161450000Y-131365000D02*
X157320000Y-131365000D01*
X164150000Y-112925000D02*
X167750000Y-112925000D01*
X167750000Y-131365000D02*
X164150000Y-131365000D01*
X170550000Y-112925000D02*
X174150000Y-112925000D01*
X174150000Y-131365000D02*
X170550000Y-131365000D01*
D11*
X176050000Y-122145000D02*
X177300000Y-122145000D01*
X177300000Y-122145000D02*
X177050000Y-121860000D01*
X177300000Y-122145000D02*
X177050000Y-122430000D01*
D12*
X178170000Y-112925000D02*
X176850000Y-112925000D01*
X178170000Y-116325000D02*
X178170000Y-112925000D01*
X178170000Y-127965000D02*
X178170000Y-116325000D01*
X178170000Y-131365000D02*
X176850000Y-131365000D01*
X178170000Y-131365000D02*
X178170000Y-127965000D01*
D11*
X176582171Y-122430000D02*
G75*
G02*
X176582805Y-121861188I-532171J285000D01*
G01*
D12*
%TO.C,D2*%
X174600000Y-96760000D02*
X177285000Y-96760000D01*
X177285000Y-94840000D02*
X174600000Y-94840000D01*
X177285000Y-96760000D02*
X177285000Y-94840000D01*
%TO.C,U3*%
X130490000Y-60140000D02*
X132310000Y-60140000D01*
X130490000Y-60190000D02*
X130490000Y-60140000D01*
X130490000Y-63260000D02*
X130490000Y-63210000D01*
X132310000Y-60140000D02*
X132310000Y-60190000D01*
X132310000Y-63210000D02*
X132310000Y-63260000D01*
X132310000Y-63260000D02*
X130490000Y-63260000D01*
X133090000Y-63540000D02*
X132610000Y-63540000D01*
X132850000Y-63210000D01*
X133090000Y-63540000D01*
G36*
X133090000Y-63540000D02*
G01*
X132610000Y-63540000D01*
X132850000Y-63210000D01*
X133090000Y-63540000D01*
G37*
%TO.C,R12*%
X114477500Y-63087742D02*
X114477500Y-63562258D01*
X115522500Y-63087742D02*
X115522500Y-63562258D01*
%TO.C,R19*%
X137977500Y-63237742D02*
X137977500Y-63712258D01*
X139022500Y-63237742D02*
X139022500Y-63712258D01*
%TO.C,J3*%
X108020000Y-62210000D02*
X108020000Y-65420000D01*
X108020000Y-62210000D02*
X110680000Y-62210000D01*
X108020000Y-66940000D02*
X108020000Y-70500000D01*
X108020000Y-72020000D02*
X108020000Y-75580000D01*
X108020000Y-77100000D02*
X108020000Y-80660000D01*
X108020000Y-82180000D02*
X108020000Y-82850000D01*
X108020000Y-82850000D02*
X110680000Y-82850000D01*
X110680000Y-62210000D02*
X110680000Y-62880000D01*
X110680000Y-62880000D02*
X111890000Y-62880000D01*
X110680000Y-64400000D02*
X110680000Y-67960000D01*
X110680000Y-69480000D02*
X110680000Y-73040000D01*
X110680000Y-74560000D02*
X110680000Y-78120000D01*
X110680000Y-79640000D02*
X110680000Y-82850000D01*
%TO.C,SW1*%
X112042000Y-98440000D02*
X116652000Y-98440000D01*
X112042000Y-101200000D02*
X112042000Y-98440000D01*
X112042000Y-103300000D02*
X112042000Y-103900000D01*
X112042000Y-105600000D02*
X112042000Y-106400000D01*
X112042000Y-108100000D02*
X112042000Y-111060000D01*
X116652000Y-111060000D02*
X112042000Y-111060000D01*
X121052000Y-98450000D02*
X125662000Y-98450000D01*
X125662000Y-98450000D02*
X125662000Y-101150000D01*
X125662000Y-103350000D02*
X125662000Y-106150000D01*
X125662000Y-108350000D02*
X125662000Y-111060000D01*
X125662000Y-111060000D02*
X121052000Y-111060000D01*
%TD*%
%LPC*%
%TO.C,JP2*%
G36*
X144250000Y-55500000D02*
G01*
X142750000Y-55500000D01*
X142750000Y-55800000D01*
X144250000Y-55800000D01*
X144250000Y-55500000D01*
G37*
%TO.C,JP4*%
G36*
X157250000Y-81050000D02*
G01*
X155750000Y-81050000D01*
X155750000Y-83500000D01*
X157250000Y-83500000D01*
X157250000Y-81050000D01*
G37*
%TD*%
D15*
%TO.C,H2*%
X108500000Y-109500000D03*
%TD*%
D16*
%TO.C,R8*%
X144000000Y-59950000D03*
X144000000Y-58300000D03*
%TD*%
D17*
%TO.C,J12*%
X121300000Y-53286000D03*
D18*
X121300000Y-57786000D03*
D19*
X127000000Y-53286000D03*
X127000000Y-59386000D03*
X115600000Y-53286000D03*
X115600000Y-59386000D03*
%TD*%
D20*
%TO.C,J6*%
X108786000Y-100120000D03*
X108786000Y-101390000D03*
X108786000Y-102660000D03*
X108786000Y-103930000D03*
X108786000Y-105200000D03*
D21*
X107631000Y-104565000D03*
X107631000Y-103295000D03*
X107631000Y-102025000D03*
X107631000Y-100755000D03*
%TD*%
D22*
%TO.C,R20*%
X140000000Y-62650000D03*
X140000000Y-64300000D03*
%TD*%
D23*
%TO.C,J10*%
X138280000Y-57300000D03*
X132500000Y-57300000D03*
D24*
X138590000Y-58375000D03*
X137790000Y-58375000D03*
D25*
X136640000Y-58375000D03*
X135640000Y-58375000D03*
X135140000Y-58375000D03*
X134140000Y-58375000D03*
D24*
X132990000Y-58375000D03*
X132190000Y-58375000D03*
X132190000Y-58375000D03*
X132990000Y-58375000D03*
D25*
X133640000Y-58375000D03*
X134640000Y-58375000D03*
X136140000Y-58375000D03*
X137140000Y-58375000D03*
D24*
X137790000Y-58375000D03*
X138590000Y-58375000D03*
D26*
X140500000Y-57800000D03*
X140500000Y-53870000D03*
X130280000Y-57800000D03*
X130280000Y-53870000D03*
%TD*%
D27*
%TO.C,R9*%
X151325000Y-74750000D03*
X149675000Y-74750000D03*
%TD*%
D28*
%TO.C,C8*%
X154500000Y-86775000D03*
X154500000Y-85225000D03*
%TD*%
D29*
%TO.C,SW6*%
X147200000Y-116300000D03*
X138100000Y-116300000D03*
X147200000Y-111800000D03*
X138100000Y-111800000D03*
%TD*%
D30*
%TO.C,JP2*%
X143500000Y-55000000D03*
D31*
X143500000Y-56300000D03*
%TD*%
D32*
%TO.C,Q2*%
X169200000Y-91700000D03*
X169200000Y-93600000D03*
X171075000Y-92650000D03*
%TD*%
D33*
%TO.C,C5*%
X127000000Y-68725000D03*
X127000000Y-70275000D03*
%TD*%
D34*
%TO.C,J1*%
X115860000Y-130000000D03*
X115860000Y-113770000D03*
X109510000Y-130000000D03*
X109510000Y-113770000D03*
X122210000Y-130000000D03*
X122210000Y-113770000D03*
%TD*%
D35*
%TO.C,J5*%
X134500000Y-124150000D03*
X136500000Y-124150000D03*
X138500000Y-124150000D03*
X140500000Y-124150000D03*
X142500000Y-124150000D03*
X144500000Y-124150000D03*
X146500000Y-124150000D03*
X148500000Y-124150000D03*
X150500000Y-124150000D03*
D36*
X132150000Y-129900000D03*
X152850000Y-129900000D03*
%TD*%
D16*
%TO.C,R5*%
X145500000Y-59950000D03*
X145500000Y-58300000D03*
%TD*%
D37*
%TO.C,JP4*%
X156500000Y-81550000D03*
D38*
X156500000Y-83000000D03*
%TD*%
D39*
%TO.C,R4*%
X113550000Y-95600000D03*
X115200000Y-95600000D03*
%TD*%
D40*
%TO.C,SW4*%
X174250000Y-107250000D03*
D41*
X174250000Y-102250000D03*
X174250000Y-104750000D03*
D42*
X166750000Y-110350000D03*
X166750000Y-99150000D03*
D41*
X159750000Y-107250000D03*
X159750000Y-102250000D03*
%TD*%
D43*
%TO.C,D1*%
X108362500Y-95800000D03*
X110237500Y-95800000D03*
%TD*%
D20*
%TO.C,J7*%
X176214000Y-103945000D03*
X176214000Y-102675000D03*
X176214000Y-101405000D03*
X176214000Y-100135000D03*
X176214000Y-98865000D03*
D21*
X177369000Y-99500000D03*
X177369000Y-100770000D03*
X177369000Y-102040000D03*
X177369000Y-103310000D03*
%TD*%
D27*
%TO.C,R7*%
X172300000Y-88300000D03*
X170650000Y-88300000D03*
%TD*%
D44*
%TO.C,Q1*%
X115537500Y-91850000D03*
X115537500Y-89950000D03*
X113662500Y-90900000D03*
%TD*%
D33*
%TO.C,C2*%
X161000000Y-80510000D03*
X161000000Y-82060000D03*
%TD*%
D20*
%TO.C,J8*%
X108786000Y-83750000D03*
X108786000Y-85020000D03*
X108786000Y-86290000D03*
X108786000Y-87560000D03*
X108786000Y-88830000D03*
D21*
X107631000Y-88195000D03*
X107631000Y-86925000D03*
X107631000Y-85655000D03*
X107631000Y-84385000D03*
%TD*%
D15*
%TO.C,H1*%
X176500000Y-110000000D03*
%TD*%
D20*
%TO.C,J9*%
X148000000Y-53286000D03*
X146730000Y-53286000D03*
X145460000Y-53286000D03*
X144190000Y-53286000D03*
X142920000Y-53286000D03*
D45*
X143555000Y-52131000D03*
X144825000Y-52131000D03*
X146095000Y-52131000D03*
X147365000Y-52131000D03*
%TD*%
D16*
%TO.C,R3*%
X130500000Y-74000000D03*
X130500000Y-72350000D03*
%TD*%
%TO.C,R6*%
X128500000Y-73977000D03*
X128500000Y-72327000D03*
%TD*%
D46*
%TO.C,Y1*%
X158275000Y-68760000D03*
X158275000Y-77260000D03*
%TD*%
D40*
%TO.C,SW2*%
X141600000Y-104878000D03*
D41*
X141600000Y-99878000D03*
X141600000Y-102378000D03*
D42*
X134100000Y-107978000D03*
X134100000Y-96778000D03*
D41*
X127100000Y-104878000D03*
X127100000Y-99878000D03*
%TD*%
D47*
%TO.C,J11*%
X159200000Y-59450000D03*
D48*
X159200000Y-58180000D03*
X160470000Y-59450000D03*
X160470000Y-58180000D03*
X161740000Y-59450000D03*
X161740000Y-58180000D03*
X163010000Y-59450000D03*
X163010000Y-58180000D03*
X164280000Y-59450000D03*
X164280000Y-58180000D03*
X165550000Y-59450000D03*
X165550000Y-58180000D03*
X166820000Y-59450000D03*
X166820000Y-58180000D03*
%TD*%
D49*
%TO.C,SW3*%
X144002000Y-99878000D03*
D41*
X144002000Y-104878000D03*
X144002000Y-102378000D03*
D42*
X151502000Y-96778000D03*
X151502000Y-107978000D03*
D41*
X158502000Y-99878000D03*
X158502000Y-104878000D03*
%TD*%
D50*
%TO.C,C1*%
X155725000Y-65000000D03*
X157275000Y-65000000D03*
%TD*%
D34*
%TO.C,J2*%
X169150000Y-114030000D03*
X169150000Y-130260000D03*
X175500000Y-114030000D03*
X175500000Y-130260000D03*
X162800000Y-114030000D03*
X162800000Y-130260000D03*
%TD*%
D51*
%TO.C,D2*%
X176537500Y-95800000D03*
X174662500Y-95800000D03*
%TD*%
D52*
%TO.C,U3*%
X132537500Y-62650000D03*
X132537500Y-61700000D03*
X132537500Y-60750000D03*
X130262500Y-60750000D03*
X130262500Y-61700000D03*
X130262500Y-62650000D03*
%TD*%
D22*
%TO.C,R12*%
X115000000Y-62500000D03*
X115000000Y-64150000D03*
%TD*%
%TO.C,R19*%
X138500000Y-62650000D03*
X138500000Y-64300000D03*
%TD*%
D53*
%TO.C,J3*%
X111000000Y-63640000D03*
X107700000Y-66180000D03*
X111000000Y-68720000D03*
X107700000Y-71260000D03*
X111000000Y-73800000D03*
X107700000Y-76340000D03*
X111000000Y-78880000D03*
X107700000Y-81420000D03*
D54*
X109390000Y-53700000D03*
X109390000Y-92000000D03*
X174890000Y-53700000D03*
X174890000Y-92000000D03*
%TD*%
D49*
%TO.C,SW1*%
X111352000Y-102250000D03*
D41*
X111352000Y-107250000D03*
X111352000Y-104750000D03*
D42*
X118852000Y-99150000D03*
X118852000Y-110350000D03*
D41*
X125852000Y-102250000D03*
X125852000Y-107250000D03*
%TD*%
D55*
%TO.C,JP1*%
X151500000Y-59250000D03*
X148960000Y-59250000D03*
%TD*%
%LPD*%
M02*
