%TF.GenerationSoftware,KiCad,Pcbnew,9.0.7*%
%TF.CreationDate,2026-02-20T11:36:51-08:00*%
%TF.ProjectId,effect-pedal,65666665-6374-42d7-9065-64616c2e6b69,rev?*%
%TF.SameCoordinates,Original*%
%TF.FileFunction,Paste,Top*%
%TF.FilePolarity,Positive*%
%FSLAX46Y46*%
G04 Gerber Fmt 4.6, Leading zero omitted, Abs format (unit mm)*
G04 Created by KiCad (PCBNEW 9.0.7) date 2026-02-20 11:36:51*
%MOMM*%
%LPD*%
G01*
G04 APERTURE LIST*
G04 Aperture macros list*
%AMRoundRect*
0 Rectangle with rounded corners*
0 $1 Rounding radius*
0 $2 $3 $4 $5 $6 $7 $8 $9 X,Y pos of 4 corners*
0 Add a 4 corners polygon primitive as box body*
4,1,4,$2,$3,$4,$5,$6,$7,$8,$9,$2,$3,0*
0 Add four circle primitives for the rounded corners*
1,1,$1+$1,$2,$3*
1,1,$1+$1,$4,$5*
1,1,$1+$1,$6,$7*
1,1,$1+$1,$8,$9*
0 Add four rect primitives between the rounded corners*
20,1,$1+$1,$2,$3,$4,$5,0*
20,1,$1+$1,$4,$5,$6,$7,0*
20,1,$1+$1,$6,$7,$8,$9,0*
20,1,$1+$1,$8,$9,$2,$3,0*%
G04 Aperture macros list end*
%ADD10RoundRect,0.200000X0.275000X-0.200000X0.275000X0.200000X-0.275000X0.200000X-0.275000X-0.200000X0*%
%ADD11R,2.400000X2.800000*%
%ADD12RoundRect,0.200000X-0.275000X0.200000X-0.275000X-0.200000X0.275000X-0.200000X0.275000X0.200000X0*%
%ADD13RoundRect,0.150000X0.150000X0.425000X-0.150000X0.425000X-0.150000X-0.425000X0.150000X-0.425000X0*%
%ADD14RoundRect,0.075000X0.075000X0.500000X-0.075000X0.500000X-0.075000X-0.500000X0.075000X-0.500000X0*%
%ADD15RoundRect,0.250000X0.840000X0.750000X-0.840000X0.750000X-0.840000X-0.750000X0.840000X-0.750000X0*%
%ADD16RoundRect,0.200000X0.200000X0.275000X-0.200000X0.275000X-0.200000X-0.275000X0.200000X-0.275000X0*%
%ADD17RoundRect,0.225000X0.250000X-0.225000X0.250000X0.225000X-0.250000X0.225000X-0.250000X-0.225000X0*%
%ADD18RoundRect,0.250000X0.800000X0.450000X-0.800000X0.450000X-0.800000X-0.450000X0.800000X-0.450000X0*%
%ADD19RoundRect,0.150000X-0.587500X-0.150000X0.587500X-0.150000X0.587500X0.150000X-0.587500X0.150000X0*%
%ADD20RoundRect,0.225000X-0.250000X0.225000X-0.250000X-0.225000X0.250000X-0.225000X0.250000X0.225000X0*%
%ADD21RoundRect,0.250000X-0.250000X-1.500000X0.250000X-1.500000X0.250000X1.500000X-0.250000X1.500000X0*%
%ADD22RoundRect,0.250001X-0.499999X-1.449999X0.499999X-1.449999X0.499999X1.449999X-0.499999X1.449999X0*%
%ADD23RoundRect,0.200000X-0.200000X-0.275000X0.200000X-0.275000X0.200000X0.275000X-0.200000X0.275000X0*%
%ADD24RoundRect,0.243750X-0.243750X-0.456250X0.243750X-0.456250X0.243750X0.456250X-0.243750X0.456250X0*%
%ADD25RoundRect,0.150000X0.587500X0.150000X-0.587500X0.150000X-0.587500X-0.150000X0.587500X-0.150000X0*%
%ADD26RoundRect,0.250000X-0.750000X2.000000X-0.750000X-2.000000X0.750000X-2.000000X0.750000X2.000000X0*%
%ADD27RoundRect,0.225000X-0.225000X-0.250000X0.225000X-0.250000X0.225000X0.250000X-0.225000X0.250000X0*%
%ADD28RoundRect,0.243750X0.243750X0.456250X-0.243750X0.456250X-0.243750X-0.456250X0.243750X-0.456250X0*%
%ADD29RoundRect,0.150000X0.512500X0.150000X-0.512500X0.150000X-0.512500X-0.150000X0.512500X-0.150000X0*%
%ADD30R,1.900000X1.000000*%
G04 APERTURE END LIST*
D10*
%TO.C,R8*%
X144000000Y-59950000D03*
X144000000Y-58300000D03*
%TD*%
D11*
%TO.C,J12*%
X127000000Y-53286000D03*
X127000000Y-59386000D03*
X115600000Y-53286000D03*
X115600000Y-59386000D03*
%TD*%
D12*
%TO.C,R20*%
X140000000Y-62650000D03*
X140000000Y-64300000D03*
%TD*%
D13*
%TO.C,J10*%
X138590000Y-58375000D03*
X137790000Y-58375000D03*
D14*
X136640000Y-58375000D03*
X135640000Y-58375000D03*
X135140000Y-58375000D03*
X134140000Y-58375000D03*
D13*
X132990000Y-58375000D03*
X132190000Y-58375000D03*
X132190000Y-58375000D03*
X132990000Y-58375000D03*
D14*
X133640000Y-58375000D03*
X134640000Y-58375000D03*
X136140000Y-58375000D03*
X137140000Y-58375000D03*
D13*
X137790000Y-58375000D03*
X138590000Y-58375000D03*
D15*
X140500000Y-57800000D03*
X140500000Y-53870000D03*
X130280000Y-57800000D03*
X130280000Y-53870000D03*
%TD*%
D16*
%TO.C,R9*%
X151325000Y-74750000D03*
X149675000Y-74750000D03*
%TD*%
D17*
%TO.C,C8*%
X154500000Y-86775000D03*
X154500000Y-85225000D03*
%TD*%
D18*
%TO.C,SW6*%
X147200000Y-116300000D03*
X138100000Y-116300000D03*
X147200000Y-111800000D03*
X138100000Y-111800000D03*
%TD*%
D19*
%TO.C,Q2*%
X169200000Y-91700000D03*
X169200000Y-93600000D03*
X171075000Y-92650000D03*
%TD*%
D20*
%TO.C,C5*%
X127000000Y-68725000D03*
X127000000Y-70275000D03*
%TD*%
D21*
%TO.C,J5*%
X134500000Y-124150000D03*
X136500000Y-124150000D03*
X138500000Y-124150000D03*
X140500000Y-124150000D03*
X142500000Y-124150000D03*
X144500000Y-124150000D03*
X146500000Y-124150000D03*
X148500000Y-124150000D03*
X150500000Y-124150000D03*
D22*
X132150000Y-129900000D03*
X152850000Y-129900000D03*
%TD*%
D10*
%TO.C,R5*%
X145500000Y-59950000D03*
X145500000Y-58300000D03*
%TD*%
D23*
%TO.C,R4*%
X113550000Y-95600000D03*
X115200000Y-95600000D03*
%TD*%
D24*
%TO.C,D1*%
X108362500Y-95800000D03*
X110237500Y-95800000D03*
%TD*%
D16*
%TO.C,R7*%
X172300000Y-88300000D03*
X170650000Y-88300000D03*
%TD*%
D25*
%TO.C,Q1*%
X115537500Y-91850000D03*
X115537500Y-89950000D03*
X113662500Y-90900000D03*
%TD*%
D20*
%TO.C,C2*%
X161000000Y-80510000D03*
X161000000Y-82060000D03*
%TD*%
D10*
%TO.C,R3*%
X130500000Y-74000000D03*
X130500000Y-72350000D03*
%TD*%
%TO.C,R6*%
X128500000Y-73977000D03*
X128500000Y-72327000D03*
%TD*%
D26*
%TO.C,Y1*%
X158275000Y-68760000D03*
X158275000Y-77260000D03*
%TD*%
D27*
%TO.C,C1*%
X155725000Y-65000000D03*
X157275000Y-65000000D03*
%TD*%
D28*
%TO.C,D2*%
X176537500Y-95800000D03*
X174662500Y-95800000D03*
%TD*%
D29*
%TO.C,U3*%
X132537500Y-62650000D03*
X132537500Y-61700000D03*
X132537500Y-60750000D03*
X130262500Y-60750000D03*
X130262500Y-61700000D03*
X130262500Y-62650000D03*
%TD*%
D12*
%TO.C,R12*%
X115000000Y-62500000D03*
X115000000Y-64150000D03*
%TD*%
%TO.C,R19*%
X138500000Y-62650000D03*
X138500000Y-64300000D03*
%TD*%
D30*
%TO.C,J3*%
X111000000Y-63640000D03*
X107700000Y-66180000D03*
X111000000Y-68720000D03*
X107700000Y-71260000D03*
X111000000Y-73800000D03*
X107700000Y-76340000D03*
X111000000Y-78880000D03*
X107700000Y-81420000D03*
%TD*%
M02*
