%TF.GenerationSoftware,KiCad,Pcbnew,9.0.0*%
%TF.CreationDate,2026-02-17T19:37:54-08:00*%
%TF.ProjectId,stomp-board,73746f6d-702d-4626-9f61-72642e6b6963,rev?*%
%TF.SameCoordinates,Original*%
%TF.FileFunction,Copper,L1,Top*%
%TF.FilePolarity,Positive*%
%FSLAX46Y46*%
G04 Gerber Fmt 4.6, Leading zero omitted, Abs format (unit mm)*
G04 Created by KiCad (PCBNEW 9.0.0) date 2026-02-17 19:37:54*
%MOMM*%
%LPD*%
G01*
G04 APERTURE LIST*
G04 Aperture macros list*
%AMRoundRect*
0 Rectangle with rounded corners*
0 $1 Rounding radius*
0 $2 $3 $4 $5 $6 $7 $8 $9 X,Y pos of 4 corners*
0 Add a 4 corners polygon primitive as box body*
4,1,4,$2,$3,$4,$5,$6,$7,$8,$9,$2,$3,0*
0 Add four circle primitives for the rounded corners*
1,1,$1+$1,$2,$3*
1,1,$1+$1,$4,$5*
1,1,$1+$1,$6,$7*
1,1,$1+$1,$8,$9*
0 Add four rect primitives between the rounded corners*
20,1,$1+$1,$2,$3,$4,$5,0*
20,1,$1+$1,$4,$5,$6,$7,0*
20,1,$1+$1,$6,$7,$8,$9,0*
20,1,$1+$1,$8,$9,$2,$3,0*%
G04 Aperture macros list end*
%TA.AperFunction,ComponentPad*%
%ADD10RoundRect,0.100000X-1.800000X-0.850000X1.800000X-0.850000X1.800000X0.850000X-1.800000X0.850000X0*%
%TD*%
%TA.AperFunction,ComponentPad*%
%ADD11O,3.800000X1.900000*%
%TD*%
%TA.AperFunction,ComponentPad*%
%ADD12R,1.350000X1.350000*%
%TD*%
%TA.AperFunction,ComponentPad*%
%ADD13C,1.350000*%
%TD*%
%TA.AperFunction,Conductor*%
%ADD14C,0.300000*%
%TD*%
G04 APERTURE END LIST*
D10*
%TO.P,SW1,1,A*%
%TO.N,/DRY_IN_L*%
X119200000Y-98300000D03*
D11*
%TO.P,SW1,2,B*%
%TO.N,/STOMP_OUT_L*%
X119200000Y-102900000D03*
%TO.P,SW1,3,C*%
%TO.N,/WET_IN_L*%
X119200000Y-107500000D03*
%TO.P,SW1,4,A*%
%TO.N,/DRY_IN_R*%
X124350000Y-98400000D03*
%TO.P,SW1,5,B*%
%TO.N,/STOMP_OUT_R*%
X124350000Y-102900000D03*
%TO.P,SW1,6,C*%
%TO.N,/WET_IN_R*%
X124350000Y-107500000D03*
%TO.P,SW1,7,A*%
%TO.N,/DRY_IN_GND*%
X129500000Y-98400000D03*
%TO.P,SW1,8,B*%
%TO.N,/STOMP_OUT_GND*%
X129500000Y-102900000D03*
%TO.P,SW1,9,C*%
%TO.N,/WET_IN_GND*%
X129500000Y-107500000D03*
%TD*%
D12*
%TO.P,J1,1,Pin_1*%
%TO.N,/DRY_IN_L*%
X116500000Y-113500000D03*
D13*
%TO.P,J1,2,Pin_2*%
%TO.N,/DRY_IN_R*%
X118500000Y-113500000D03*
%TO.P,J1,3,Pin_3*%
%TO.N,/DRY_IN_GND*%
X120500000Y-113500000D03*
%TO.P,J1,4,Pin_4*%
%TO.N,/WET_IN_L*%
X122500000Y-113500000D03*
%TO.P,J1,5,Pin_5*%
%TO.N,/WET_IN_R*%
X124500000Y-113500000D03*
%TO.P,J1,6,Pin_6*%
%TO.N,/WET_IN_GND*%
X126500000Y-113500000D03*
%TO.P,J1,7,Pin_7*%
%TO.N,/STOMP_OUT_L*%
X128500000Y-113500000D03*
%TO.P,J1,8,Pin_8*%
%TO.N,/STOMP_OUT_R*%
X130500000Y-113500000D03*
%TO.P,J1,9,Pin_9*%
%TO.N,/STOMP_OUT_GND*%
X132500000Y-113500000D03*
%TD*%
D14*
%TO.N,/DRY_IN_L*%
X119200000Y-98300000D02*
X117300001Y-98300000D01*
X117300001Y-98300000D02*
X115647000Y-99953001D01*
X115647000Y-99953001D02*
X115647000Y-112647000D01*
X115647000Y-112647000D02*
X116500000Y-113500000D01*
%TO.N,/DRY_IN_R*%
X124350000Y-98400000D02*
X121852000Y-100898000D01*
X121852000Y-100898000D02*
X117420745Y-100898000D01*
X116248000Y-102070745D02*
X116248000Y-111248000D01*
X117420745Y-100898000D02*
X116248000Y-102070745D01*
X116248000Y-111248000D02*
X118500000Y-113500000D01*
%TO.N,/DRY_IN_GND*%
X129500000Y-98400000D02*
X126401000Y-101499000D01*
X126401000Y-101499000D02*
X117669687Y-101499000D01*
X117669687Y-101499000D02*
X116849000Y-102319687D01*
X116849000Y-109849000D02*
X120500000Y-113500000D01*
X116849000Y-102319687D02*
X116849000Y-109849000D01*
%TO.N,/STOMP_OUT_GND*%
X129500000Y-102900000D02*
X129531197Y-102900000D01*
X129531197Y-102900000D02*
X133053000Y-106421803D01*
X133053000Y-106421803D02*
X133053000Y-112947000D01*
X133053000Y-112947000D02*
X132500000Y-113500000D01*
%TO.N,/STOMP_OUT_R*%
X124350000Y-102900000D02*
X126948000Y-105498000D01*
X126948000Y-105498000D02*
X131279255Y-105498000D01*
X131279255Y-105498000D02*
X132452000Y-106670745D01*
X132452000Y-106670745D02*
X132452000Y-111548000D01*
X132452000Y-111548000D02*
X130500000Y-113500000D01*
%TO.N,/STOMP_OUT_L*%
X119200000Y-102900000D02*
X122399000Y-106099000D01*
X122399000Y-106099000D02*
X131030313Y-106099000D01*
X131030313Y-106099000D02*
X131851000Y-106919687D01*
X131851000Y-110149000D02*
X128500000Y-113500000D01*
X131851000Y-106919687D02*
X131851000Y-110149000D01*
%TO.N,/WET_IN_GND*%
X129500000Y-107500000D02*
X129500000Y-110500000D01*
X129500000Y-110500000D02*
X126500000Y-113500000D01*
%TO.N,/WET_IN_R*%
X124350000Y-107500000D02*
X124350000Y-113350000D01*
X124350000Y-113350000D02*
X124500000Y-113500000D01*
%TO.N,/WET_IN_L*%
X119200000Y-107500000D02*
X119200000Y-110200000D01*
X119200000Y-110200000D02*
X122500000Y-113500000D01*
%TD*%
%TA.AperFunction,NonConductor*%
G36*
X122019154Y-102169185D02*
G01*
X122064909Y-102221989D01*
X122074853Y-102291147D01*
X122062599Y-102329797D01*
X122055770Y-102343197D01*
X121985215Y-102560339D01*
X121949500Y-102785837D01*
X121949500Y-103014162D01*
X121985215Y-103239660D01*
X122055770Y-103456803D01*
X122159421Y-103660228D01*
X122293621Y-103844937D01*
X122455063Y-104006379D01*
X122639772Y-104140579D01*
X122735884Y-104189550D01*
X122843196Y-104244229D01*
X122843198Y-104244229D01*
X122843201Y-104244231D01*
X122955890Y-104280846D01*
X123060339Y-104314784D01*
X123285838Y-104350500D01*
X123285843Y-104350500D01*
X124829192Y-104350500D01*
X124896231Y-104370185D01*
X124916873Y-104386819D01*
X125766873Y-105236819D01*
X125800358Y-105298142D01*
X125795374Y-105367834D01*
X125753502Y-105423767D01*
X125688038Y-105448184D01*
X125679192Y-105448500D01*
X122719807Y-105448500D01*
X122652768Y-105428815D01*
X122632126Y-105412181D01*
X121248311Y-104028366D01*
X121214826Y-103967043D01*
X121219810Y-103897351D01*
X121248314Y-103853001D01*
X121256379Y-103844937D01*
X121390579Y-103660228D01*
X121494231Y-103456799D01*
X121564784Y-103239660D01*
X121600500Y-103014162D01*
X121600500Y-102785837D01*
X121564784Y-102560339D01*
X121542423Y-102491521D01*
X121494231Y-102343201D01*
X121487400Y-102329795D01*
X121474504Y-102261128D01*
X121500779Y-102196387D01*
X121557884Y-102156129D01*
X121597885Y-102149500D01*
X121952115Y-102149500D01*
X122019154Y-102169185D01*
G37*
%TD.AperFunction*%
%TA.AperFunction,NonConductor*%
G36*
X132856922Y-94801280D02*
G01*
X132947266Y-94811459D01*
X132974331Y-94817636D01*
X133053540Y-94845352D01*
X133078553Y-94857398D01*
X133149606Y-94902043D01*
X133171313Y-94919355D01*
X133230644Y-94978686D01*
X133247957Y-95000395D01*
X133292600Y-95071444D01*
X133304648Y-95096462D01*
X133332362Y-95175666D01*
X133338540Y-95202735D01*
X133348720Y-95293076D01*
X133349500Y-95306961D01*
X133349500Y-105498995D01*
X133329815Y-105566034D01*
X133277011Y-105611789D01*
X133207853Y-105621733D01*
X133144297Y-105592708D01*
X133137819Y-105586676D01*
X131563589Y-104012446D01*
X131530104Y-103951123D01*
X131535088Y-103881431D01*
X131554026Y-103849249D01*
X131553515Y-103848878D01*
X131556378Y-103844938D01*
X131556379Y-103844937D01*
X131690579Y-103660228D01*
X131794231Y-103456799D01*
X131864784Y-103239660D01*
X131900500Y-103014162D01*
X131900500Y-102785837D01*
X131864784Y-102560339D01*
X131794229Y-102343196D01*
X131739550Y-102235884D01*
X131690579Y-102139772D01*
X131556379Y-101955063D01*
X131394937Y-101793621D01*
X131210228Y-101659421D01*
X131006803Y-101555770D01*
X130789660Y-101485215D01*
X130564162Y-101449500D01*
X130564157Y-101449500D01*
X128435843Y-101449500D01*
X128435838Y-101449500D01*
X128210339Y-101485215D01*
X127993196Y-101555770D01*
X127789771Y-101659421D01*
X127605061Y-101793622D01*
X127443622Y-101955061D01*
X127309421Y-102139771D01*
X127205770Y-102343196D01*
X127135215Y-102560339D01*
X127099500Y-102785837D01*
X127099500Y-103014162D01*
X127135215Y-103239660D01*
X127205770Y-103456803D01*
X127309421Y-103660228D01*
X127443621Y-103844937D01*
X127605063Y-104006379D01*
X127789772Y-104140579D01*
X127885884Y-104189550D01*
X127993196Y-104244229D01*
X127993198Y-104244229D01*
X127993201Y-104244231D01*
X128105890Y-104280846D01*
X128210339Y-104314784D01*
X128435838Y-104350500D01*
X128435843Y-104350500D01*
X130010389Y-104350500D01*
X130077428Y-104370185D01*
X130098070Y-104386819D01*
X130347070Y-104635819D01*
X130380555Y-104697142D01*
X130375571Y-104766834D01*
X130333699Y-104822767D01*
X130268235Y-104847184D01*
X130259389Y-104847500D01*
X127268808Y-104847500D01*
X127201769Y-104827815D01*
X127181127Y-104811181D01*
X126398312Y-104028366D01*
X126364827Y-103967043D01*
X126369811Y-103897351D01*
X126398312Y-103853004D01*
X126402067Y-103849249D01*
X126406379Y-103844937D01*
X126540579Y-103660228D01*
X126644231Y-103456799D01*
X126714784Y-103239660D01*
X126750500Y-103014162D01*
X126750500Y-102785837D01*
X126714784Y-102560339D01*
X126644229Y-102343196D01*
X126603795Y-102263841D01*
X126590899Y-102195172D01*
X126617175Y-102130431D01*
X126666826Y-102092986D01*
X126709127Y-102075465D01*
X126815669Y-102004277D01*
X128933127Y-99886819D01*
X128994450Y-99853334D01*
X129020808Y-99850500D01*
X130564162Y-99850500D01*
X130789660Y-99814784D01*
X131006799Y-99744231D01*
X131210228Y-99640579D01*
X131394937Y-99506379D01*
X131556379Y-99344937D01*
X131690579Y-99160228D01*
X131794231Y-98956799D01*
X131864784Y-98739660D01*
X131900500Y-98514162D01*
X131900500Y-98285837D01*
X131864784Y-98060339D01*
X131832049Y-97959592D01*
X131794231Y-97843201D01*
X131794229Y-97843198D01*
X131794229Y-97843196D01*
X131690578Y-97639771D01*
X131556379Y-97455063D01*
X131394937Y-97293621D01*
X131210228Y-97159421D01*
X131006803Y-97055770D01*
X130789660Y-96985215D01*
X130564162Y-96949500D01*
X130564157Y-96949500D01*
X128435843Y-96949500D01*
X128435838Y-96949500D01*
X128210339Y-96985215D01*
X127993196Y-97055770D01*
X127789771Y-97159421D01*
X127605061Y-97293622D01*
X127443622Y-97455061D01*
X127309421Y-97639771D01*
X127205770Y-97843196D01*
X127135215Y-98060339D01*
X127099500Y-98285837D01*
X127099500Y-98514162D01*
X127135215Y-98739660D01*
X127205770Y-98956803D01*
X127309421Y-99160228D01*
X127443622Y-99344938D01*
X127451688Y-99353004D01*
X127485173Y-99414327D01*
X127480189Y-99484019D01*
X127451688Y-99528366D01*
X126167873Y-100812181D01*
X126106550Y-100845666D01*
X126080192Y-100848500D01*
X123120808Y-100848500D01*
X123053769Y-100828815D01*
X123008014Y-100776011D01*
X122998070Y-100706853D01*
X123027095Y-100643297D01*
X123033127Y-100636819D01*
X123783127Y-99886819D01*
X123844450Y-99853334D01*
X123870808Y-99850500D01*
X125414162Y-99850500D01*
X125639660Y-99814784D01*
X125856799Y-99744231D01*
X126060228Y-99640579D01*
X126244937Y-99506379D01*
X126406379Y-99344937D01*
X126540579Y-99160228D01*
X126644231Y-98956799D01*
X126714784Y-98739660D01*
X126750500Y-98514162D01*
X126750500Y-98285837D01*
X126714784Y-98060339D01*
X126682049Y-97959592D01*
X126644231Y-97843201D01*
X126644229Y-97843198D01*
X126644229Y-97843196D01*
X126540578Y-97639771D01*
X126406379Y-97455063D01*
X126244937Y-97293621D01*
X126060228Y-97159421D01*
X125856803Y-97055770D01*
X125639660Y-96985215D01*
X125414162Y-96949500D01*
X125414157Y-96949500D01*
X123285843Y-96949500D01*
X123285838Y-96949500D01*
X123060339Y-96985215D01*
X122843196Y-97055770D01*
X122639771Y-97159421D01*
X122455061Y-97293622D01*
X122293622Y-97455061D01*
X122159421Y-97639771D01*
X122055770Y-97843196D01*
X121985215Y-98060339D01*
X121949500Y-98285837D01*
X121949500Y-98514162D01*
X121985215Y-98739660D01*
X122055770Y-98956803D01*
X122159421Y-99160228D01*
X122293622Y-99344938D01*
X122301688Y-99353004D01*
X122335173Y-99414327D01*
X122330189Y-99484019D01*
X122301688Y-99528366D01*
X121618873Y-100211181D01*
X121557550Y-100244666D01*
X121531192Y-100247500D01*
X117356674Y-100247500D01*
X117231006Y-100272497D01*
X117231000Y-100272499D01*
X117112619Y-100321534D01*
X117006071Y-100392726D01*
X117006070Y-100392727D01*
X116509181Y-100889617D01*
X116447858Y-100923102D01*
X116378166Y-100918118D01*
X116322233Y-100876246D01*
X116297816Y-100810782D01*
X116297500Y-100801936D01*
X116297500Y-100273808D01*
X116317185Y-100206769D01*
X116333815Y-100186131D01*
X116877820Y-99642125D01*
X116939141Y-99608642D01*
X117008832Y-99613626D01*
X117040986Y-99631433D01*
X117097157Y-99674535D01*
X117097158Y-99674535D01*
X117097159Y-99674536D01*
X117243238Y-99735044D01*
X117360639Y-99750500D01*
X121039360Y-99750499D01*
X121039363Y-99750499D01*
X121156753Y-99735046D01*
X121156757Y-99735044D01*
X121156762Y-99735044D01*
X121302841Y-99674536D01*
X121428282Y-99578282D01*
X121524536Y-99452841D01*
X121585044Y-99306762D01*
X121600500Y-99189361D01*
X121600499Y-97410640D01*
X121600499Y-97410639D01*
X121600499Y-97410636D01*
X121585046Y-97293246D01*
X121585044Y-97293239D01*
X121585044Y-97293238D01*
X121524536Y-97147159D01*
X121428282Y-97021718D01*
X121302841Y-96925464D01*
X121156762Y-96864956D01*
X121156760Y-96864955D01*
X121039370Y-96849501D01*
X121039367Y-96849500D01*
X121039361Y-96849500D01*
X121039354Y-96849500D01*
X117360636Y-96849500D01*
X117243246Y-96864953D01*
X117243237Y-96864956D01*
X117097160Y-96925463D01*
X116971718Y-97021718D01*
X116875463Y-97147160D01*
X116814956Y-97293237D01*
X116814955Y-97293239D01*
X116814905Y-97293622D01*
X116799501Y-97410636D01*
X116799500Y-97410645D01*
X116799500Y-97829192D01*
X116779815Y-97896231D01*
X116763181Y-97916873D01*
X115562181Y-99117873D01*
X115500858Y-99151358D01*
X115431166Y-99146374D01*
X115375233Y-99104502D01*
X115350816Y-99039038D01*
X115350500Y-99030192D01*
X115350500Y-95306961D01*
X115351280Y-95293077D01*
X115351280Y-95293076D01*
X115361460Y-95202729D01*
X115367635Y-95175670D01*
X115395353Y-95096456D01*
X115407396Y-95071450D01*
X115452046Y-95000389D01*
X115469351Y-94978690D01*
X115528690Y-94919351D01*
X115550389Y-94902046D01*
X115621450Y-94857396D01*
X115646456Y-94845353D01*
X115725670Y-94817635D01*
X115752733Y-94811459D01*
X115815419Y-94804396D01*
X115843079Y-94801280D01*
X115856962Y-94800500D01*
X115915892Y-94800500D01*
X132784108Y-94800500D01*
X132843038Y-94800500D01*
X132856922Y-94801280D01*
G37*
%TD.AperFunction*%
%TA.AperFunction,NonConductor*%
G36*
X117679795Y-108837400D02*
G01*
X117693201Y-108844231D01*
X117805890Y-108880846D01*
X117910339Y-108914784D01*
X118135838Y-108950500D01*
X118135843Y-108950500D01*
X118425500Y-108950500D01*
X118492539Y-108970185D01*
X118538294Y-109022989D01*
X118549500Y-109074500D01*
X118549500Y-110264069D01*
X118549500Y-110264071D01*
X118549499Y-110264071D01*
X118560503Y-110319386D01*
X118554276Y-110388978D01*
X118511413Y-110444155D01*
X118445524Y-110467400D01*
X118377526Y-110451332D01*
X118351205Y-110431259D01*
X117535819Y-109615873D01*
X117502334Y-109554550D01*
X117499500Y-109528192D01*
X117499500Y-108947885D01*
X117519185Y-108880846D01*
X117571989Y-108835091D01*
X117641147Y-108825147D01*
X117679795Y-108837400D01*
G37*
%TD.AperFunction*%
%TA.AperFunction,NonConductor*%
G36*
X131153613Y-108850779D02*
G01*
X131193871Y-108907884D01*
X131200500Y-108947885D01*
X131200500Y-109828191D01*
X131180815Y-109895230D01*
X131164181Y-109915872D01*
X130348794Y-110731258D01*
X130287471Y-110764743D01*
X130217779Y-110759759D01*
X130161846Y-110717887D01*
X130137429Y-110652423D01*
X130139495Y-110619390D01*
X130150500Y-110564069D01*
X130150500Y-110435931D01*
X130150500Y-109074500D01*
X130170185Y-109007461D01*
X130222989Y-108961706D01*
X130274500Y-108950500D01*
X130564162Y-108950500D01*
X130789660Y-108914784D01*
X130810896Y-108907884D01*
X131006799Y-108844231D01*
X131020203Y-108837400D01*
X131088872Y-108824504D01*
X131153613Y-108850779D01*
G37*
%TD.AperFunction*%
%TA.AperFunction,NonConductor*%
G36*
X127104756Y-106750275D02*
G01*
X127107428Y-106749614D01*
X127138082Y-106760061D01*
X127169154Y-106769185D01*
X127170956Y-106771264D01*
X127173562Y-106772153D01*
X127193705Y-106797519D01*
X127214909Y-106821989D01*
X127215300Y-106824712D01*
X127217013Y-106826869D01*
X127220244Y-106859095D01*
X127224853Y-106891147D01*
X127223793Y-106894489D01*
X127223984Y-106896390D01*
X127212599Y-106929797D01*
X127205770Y-106943197D01*
X127135215Y-107160339D01*
X127099500Y-107385837D01*
X127099500Y-107614162D01*
X127135215Y-107839660D01*
X127205770Y-108056803D01*
X127309421Y-108260228D01*
X127443621Y-108444937D01*
X127605063Y-108606379D01*
X127789772Y-108740579D01*
X127885884Y-108789550D01*
X127993196Y-108844229D01*
X127993198Y-108844229D01*
X127993201Y-108844231D01*
X128105890Y-108880846D01*
X128210339Y-108914784D01*
X128435838Y-108950500D01*
X128435843Y-108950500D01*
X128725500Y-108950500D01*
X128792539Y-108970185D01*
X128838294Y-109022989D01*
X128849500Y-109074500D01*
X128849500Y-110179191D01*
X128829815Y-110246230D01*
X128813181Y-110266872D01*
X126777936Y-112302116D01*
X126716613Y-112335601D01*
X126670856Y-112336908D01*
X126592518Y-112324500D01*
X126592514Y-112324500D01*
X126407486Y-112324500D01*
X126346569Y-112334148D01*
X126224734Y-112353445D01*
X126048767Y-112410619D01*
X126048764Y-112410620D01*
X125883903Y-112494622D01*
X125798499Y-112556672D01*
X125734213Y-112603379D01*
X125734211Y-112603381D01*
X125734210Y-112603381D01*
X125603381Y-112734210D01*
X125600314Y-112738432D01*
X125544981Y-112781094D01*
X125475367Y-112787069D01*
X125413574Y-112754459D01*
X125399686Y-112738432D01*
X125396621Y-112734213D01*
X125265787Y-112603379D01*
X125190941Y-112549000D01*
X125116094Y-112494620D01*
X125068204Y-112470219D01*
X125017409Y-112422245D01*
X125000500Y-112359735D01*
X125000500Y-109074500D01*
X125020185Y-109007461D01*
X125072989Y-108961706D01*
X125124500Y-108950500D01*
X125414162Y-108950500D01*
X125639660Y-108914784D01*
X125660896Y-108907884D01*
X125856799Y-108844231D01*
X126060228Y-108740579D01*
X126244937Y-108606379D01*
X126406379Y-108444937D01*
X126540579Y-108260228D01*
X126644231Y-108056799D01*
X126714784Y-107839660D01*
X126750500Y-107614162D01*
X126750500Y-107385837D01*
X126714784Y-107160339D01*
X126692423Y-107091521D01*
X126644231Y-106943201D01*
X126637400Y-106929795D01*
X126624504Y-106861128D01*
X126650779Y-106796387D01*
X126707884Y-106756129D01*
X126747885Y-106749500D01*
X127102115Y-106749500D01*
X127104756Y-106750275D01*
G37*
%TD.AperFunction*%
%TA.AperFunction,NonConductor*%
G36*
X117679795Y-104237400D02*
G01*
X117693201Y-104244231D01*
X117805890Y-104280846D01*
X117910339Y-104314784D01*
X118135838Y-104350500D01*
X118135843Y-104350500D01*
X119679192Y-104350500D01*
X119746231Y-104370185D01*
X119766873Y-104386819D01*
X120879050Y-105498995D01*
X121893724Y-106513669D01*
X121984331Y-106604276D01*
X121984332Y-106604277D01*
X122074836Y-106664750D01*
X122119641Y-106718362D01*
X122128348Y-106787687D01*
X122116430Y-106824147D01*
X122055770Y-106943196D01*
X121985215Y-107160339D01*
X121949500Y-107385837D01*
X121949500Y-107614162D01*
X121985215Y-107839660D01*
X122055770Y-108056803D01*
X122159421Y-108260228D01*
X122293621Y-108444937D01*
X122455063Y-108606379D01*
X122639772Y-108740579D01*
X122735884Y-108789550D01*
X122843196Y-108844229D01*
X122843198Y-108844229D01*
X122843201Y-108844231D01*
X122955890Y-108880846D01*
X123060339Y-108914784D01*
X123285838Y-108950500D01*
X123285843Y-108950500D01*
X123575500Y-108950500D01*
X123642539Y-108970185D01*
X123688294Y-109022989D01*
X123699500Y-109074500D01*
X123699500Y-112586730D01*
X123691216Y-112614941D01*
X123685582Y-112643809D01*
X123680835Y-112650292D01*
X123679815Y-112653769D01*
X123665041Y-112672511D01*
X123664128Y-112673463D01*
X123603379Y-112734213D01*
X123595369Y-112745236D01*
X123589541Y-112751321D01*
X123566252Y-112764693D01*
X123544981Y-112781094D01*
X123536409Y-112781829D01*
X123528950Y-112786113D01*
X123502129Y-112784771D01*
X123475367Y-112787069D01*
X123467757Y-112783053D01*
X123459168Y-112782624D01*
X123437329Y-112766995D01*
X123413574Y-112754459D01*
X123403391Y-112742707D01*
X123402349Y-112741962D01*
X123402013Y-112741117D01*
X123399686Y-112738432D01*
X123396621Y-112734213D01*
X123265787Y-112603379D01*
X123116096Y-112494622D01*
X123116092Y-112494620D01*
X122951235Y-112410620D01*
X122951232Y-112410619D01*
X122775265Y-112353445D01*
X122662602Y-112335601D01*
X122592514Y-112324500D01*
X122407486Y-112324500D01*
X122407481Y-112324500D01*
X122329141Y-112336908D01*
X122259848Y-112327954D01*
X122222062Y-112302116D01*
X119886819Y-109966873D01*
X119853334Y-109905550D01*
X119850500Y-109879192D01*
X119850500Y-109074500D01*
X119870185Y-109007461D01*
X119922989Y-108961706D01*
X119974500Y-108950500D01*
X120264162Y-108950500D01*
X120489660Y-108914784D01*
X120510896Y-108907884D01*
X120706799Y-108844231D01*
X120910228Y-108740579D01*
X121094937Y-108606379D01*
X121256379Y-108444937D01*
X121390579Y-108260228D01*
X121494231Y-108056799D01*
X121564784Y-107839660D01*
X121600500Y-107614162D01*
X121600500Y-107385837D01*
X121564784Y-107160339D01*
X121494229Y-106943196D01*
X121433570Y-106824147D01*
X121390579Y-106739772D01*
X121256379Y-106555063D01*
X121094937Y-106393621D01*
X120910228Y-106259421D01*
X120900499Y-106254464D01*
X120706803Y-106155770D01*
X120489660Y-106085215D01*
X120264162Y-106049500D01*
X120264157Y-106049500D01*
X118135843Y-106049500D01*
X118135838Y-106049500D01*
X117910339Y-106085215D01*
X117743609Y-106139390D01*
X117693201Y-106155769D01*
X117693198Y-106155770D01*
X117693193Y-106155772D01*
X117679792Y-106162600D01*
X117611123Y-106175495D01*
X117546383Y-106149217D01*
X117506127Y-106092109D01*
X117499500Y-106052114D01*
X117499500Y-104347885D01*
X117519185Y-104280846D01*
X117571989Y-104235091D01*
X117641147Y-104225147D01*
X117679795Y-104237400D01*
G37*
%TD.AperFunction*%
M02*
