M48
; DRILL file {KiCad 9.0.0} date 2026-02-17T19:37:53-0800
; FORMAT={-:-/ absolute / metric / decimal}
; #@! TF.CreationDate,2026-02-17T19:37:53-08:00
; #@! TF.GenerationSoftware,Kicad,Pcbnew,9.0.0
; #@! TF.FileFunction,Plated,1,2,PTH
FMAT,2
METRIC
; #@! TA.AperFunction,Plated,PTH,ComponentDrill
T1C0.800
; #@! TA.AperFunction,Plated,PTH,ComponentDrill
T2C1.000
%
G90
G05
T1
X116.5Y-113.5
X118.5Y-113.5
X120.5Y-113.5
X122.5Y-113.5
X124.5Y-113.5
X126.5Y-113.5
X128.5Y-113.5
X130.5Y-113.5
X132.5Y-113.5
T2
G00X118.2Y-98.3
M15
G01X120.2Y-98.3
M16
G05
G00X118.2Y-102.9
M15
G01X120.2Y-102.9
M16
G05
G00X118.2Y-107.5
M15
G01X120.2Y-107.5
M16
G05
G00X123.35Y-98.4
M15
G01X125.35Y-98.4
M16
G05
G00X123.35Y-102.9
M15
G01X125.35Y-102.9
M16
G05
G00X123.35Y-107.5
M15
G01X125.35Y-107.5
M16
G05
G00X128.5Y-98.4
M15
G01X130.5Y-98.4
M16
G05
G00X128.5Y-102.9
M15
G01X130.5Y-102.9
M16
G05
G00X128.5Y-107.5
M15
G01X130.5Y-107.5
M16
G05
M30
