%TF.GenerationSoftware,KiCad,Pcbnew,9.0.0*%
%TF.CreationDate,2026-02-17T19:37:54-08:00*%
%TF.ProjectId,stomp-board,73746f6d-702d-4626-9f61-72642e6b6963,rev?*%
%TF.SameCoordinates,Original*%
%TF.FileFunction,Copper,L2,Bot*%
%TF.FilePolarity,Positive*%
%FSLAX46Y46*%
G04 Gerber Fmt 4.6, Leading zero omitted, Abs format (unit mm)*
G04 Created by KiCad (PCBNEW 9.0.0) date 2026-02-17 19:37:54*
%MOMM*%
%LPD*%
G01*
G04 APERTURE LIST*
G04 Aperture macros list*
%AMRoundRect*
0 Rectangle with rounded corners*
0 $1 Rounding radius*
0 $2 $3 $4 $5 $6 $7 $8 $9 X,Y pos of 4 corners*
0 Add a 4 corners polygon primitive as box body*
4,1,4,$2,$3,$4,$5,$6,$7,$8,$9,$2,$3,0*
0 Add four circle primitives for the rounded corners*
1,1,$1+$1,$2,$3*
1,1,$1+$1,$4,$5*
1,1,$1+$1,$6,$7*
1,1,$1+$1,$8,$9*
0 Add four rect primitives between the rounded corners*
20,1,$1+$1,$2,$3,$4,$5,0*
20,1,$1+$1,$4,$5,$6,$7,0*
20,1,$1+$1,$6,$7,$8,$9,0*
20,1,$1+$1,$8,$9,$2,$3,0*%
G04 Aperture macros list end*
%TA.AperFunction,ComponentPad*%
%ADD10RoundRect,0.100000X-1.800000X-0.850000X1.800000X-0.850000X1.800000X0.850000X-1.800000X0.850000X0*%
%TD*%
%TA.AperFunction,ComponentPad*%
%ADD11O,3.800000X1.900000*%
%TD*%
%TA.AperFunction,ComponentPad*%
%ADD12R,1.350000X1.350000*%
%TD*%
%TA.AperFunction,ComponentPad*%
%ADD13C,1.350000*%
%TD*%
G04 APERTURE END LIST*
D10*
%TO.P,SW1,1,A*%
%TO.N,/DRY_IN_L*%
X119200000Y-98300000D03*
D11*
%TO.P,SW1,2,B*%
%TO.N,/STOMP_OUT_L*%
X119200000Y-102900000D03*
%TO.P,SW1,3,C*%
%TO.N,/WET_IN_L*%
X119200000Y-107500000D03*
%TO.P,SW1,4,A*%
%TO.N,/DRY_IN_R*%
X124350000Y-98400000D03*
%TO.P,SW1,5,B*%
%TO.N,/STOMP_OUT_R*%
X124350000Y-102900000D03*
%TO.P,SW1,6,C*%
%TO.N,/WET_IN_R*%
X124350000Y-107500000D03*
%TO.P,SW1,7,A*%
%TO.N,/DRY_IN_GND*%
X129500000Y-98400000D03*
%TO.P,SW1,8,B*%
%TO.N,/STOMP_OUT_GND*%
X129500000Y-102900000D03*
%TO.P,SW1,9,C*%
%TO.N,/WET_IN_GND*%
X129500000Y-107500000D03*
%TD*%
D12*
%TO.P,J1,1,Pin_1*%
%TO.N,/DRY_IN_L*%
X116500000Y-113500000D03*
D13*
%TO.P,J1,2,Pin_2*%
%TO.N,/DRY_IN_R*%
X118500000Y-113500000D03*
%TO.P,J1,3,Pin_3*%
%TO.N,/DRY_IN_GND*%
X120500000Y-113500000D03*
%TO.P,J1,4,Pin_4*%
%TO.N,/WET_IN_L*%
X122500000Y-113500000D03*
%TO.P,J1,5,Pin_5*%
%TO.N,/WET_IN_R*%
X124500000Y-113500000D03*
%TO.P,J1,6,Pin_6*%
%TO.N,/WET_IN_GND*%
X126500000Y-113500000D03*
%TO.P,J1,7,Pin_7*%
%TO.N,/STOMP_OUT_L*%
X128500000Y-113500000D03*
%TO.P,J1,8,Pin_8*%
%TO.N,/STOMP_OUT_R*%
X130500000Y-113500000D03*
%TO.P,J1,9,Pin_9*%
%TO.N,/STOMP_OUT_GND*%
X132500000Y-113500000D03*
%TD*%
%TA.AperFunction,NonConductor*%
G36*
X132856922Y-94801280D02*
G01*
X132947266Y-94811459D01*
X132974331Y-94817636D01*
X133053540Y-94845352D01*
X133078553Y-94857398D01*
X133149606Y-94902043D01*
X133171313Y-94919355D01*
X133230644Y-94978686D01*
X133247957Y-95000395D01*
X133292600Y-95071444D01*
X133304648Y-95096462D01*
X133332362Y-95175666D01*
X133338540Y-95202735D01*
X133348720Y-95293076D01*
X133349500Y-95306961D01*
X133349500Y-112420836D01*
X133329815Y-112487875D01*
X133277011Y-112533630D01*
X133207853Y-112543574D01*
X133152614Y-112521154D01*
X133116096Y-112494622D01*
X132951235Y-112410620D01*
X132951232Y-112410619D01*
X132775265Y-112353445D01*
X132632972Y-112330908D01*
X132592514Y-112324500D01*
X132407486Y-112324500D01*
X132367028Y-112330908D01*
X132224734Y-112353445D01*
X132048767Y-112410619D01*
X132048764Y-112410620D01*
X131883903Y-112494622D01*
X131830214Y-112533630D01*
X131734213Y-112603379D01*
X131734211Y-112603381D01*
X131734210Y-112603381D01*
X131603381Y-112734210D01*
X131600314Y-112738432D01*
X131544981Y-112781094D01*
X131475367Y-112787069D01*
X131413574Y-112754459D01*
X131399686Y-112738432D01*
X131396621Y-112734213D01*
X131265787Y-112603379D01*
X131116096Y-112494622D01*
X131102854Y-112487875D01*
X130951235Y-112410620D01*
X130951232Y-112410619D01*
X130775265Y-112353445D01*
X130632972Y-112330908D01*
X130592514Y-112324500D01*
X130407486Y-112324500D01*
X130367028Y-112330908D01*
X130224734Y-112353445D01*
X130048767Y-112410619D01*
X130048764Y-112410620D01*
X129883903Y-112494622D01*
X129830214Y-112533630D01*
X129734213Y-112603379D01*
X129734211Y-112603381D01*
X129734210Y-112603381D01*
X129603381Y-112734210D01*
X129600314Y-112738432D01*
X129544981Y-112781094D01*
X129475367Y-112787069D01*
X129413574Y-112754459D01*
X129399686Y-112738432D01*
X129396621Y-112734213D01*
X129265787Y-112603379D01*
X129116096Y-112494622D01*
X129102854Y-112487875D01*
X128951235Y-112410620D01*
X128951232Y-112410619D01*
X128775265Y-112353445D01*
X128632972Y-112330908D01*
X128592514Y-112324500D01*
X128407486Y-112324500D01*
X128367028Y-112330908D01*
X128224734Y-112353445D01*
X128048767Y-112410619D01*
X128048764Y-112410620D01*
X127883903Y-112494622D01*
X127830214Y-112533630D01*
X127734213Y-112603379D01*
X127734211Y-112603381D01*
X127734210Y-112603381D01*
X127603381Y-112734210D01*
X127600314Y-112738432D01*
X127544981Y-112781094D01*
X127475367Y-112787069D01*
X127413574Y-112754459D01*
X127399686Y-112738432D01*
X127396621Y-112734213D01*
X127265787Y-112603379D01*
X127116096Y-112494622D01*
X127102854Y-112487875D01*
X126951235Y-112410620D01*
X126951232Y-112410619D01*
X126775265Y-112353445D01*
X126632972Y-112330908D01*
X126592514Y-112324500D01*
X126407486Y-112324500D01*
X126367028Y-112330908D01*
X126224734Y-112353445D01*
X126048767Y-112410619D01*
X126048764Y-112410620D01*
X125883903Y-112494622D01*
X125830214Y-112533630D01*
X125734213Y-112603379D01*
X125734211Y-112603381D01*
X125734210Y-112603381D01*
X125603381Y-112734210D01*
X125600314Y-112738432D01*
X125544981Y-112781094D01*
X125475367Y-112787069D01*
X125413574Y-112754459D01*
X125399686Y-112738432D01*
X125396621Y-112734213D01*
X125265787Y-112603379D01*
X125116096Y-112494622D01*
X125102854Y-112487875D01*
X124951235Y-112410620D01*
X124951232Y-112410619D01*
X124775265Y-112353445D01*
X124632972Y-112330908D01*
X124592514Y-112324500D01*
X124407486Y-112324500D01*
X124367028Y-112330908D01*
X124224734Y-112353445D01*
X124048767Y-112410619D01*
X124048764Y-112410620D01*
X123883903Y-112494622D01*
X123830214Y-112533630D01*
X123734213Y-112603379D01*
X123734211Y-112603381D01*
X123734210Y-112603381D01*
X123603381Y-112734210D01*
X123600314Y-112738432D01*
X123544981Y-112781094D01*
X123475367Y-112787069D01*
X123413574Y-112754459D01*
X123399686Y-112738432D01*
X123396621Y-112734213D01*
X123265787Y-112603379D01*
X123116096Y-112494622D01*
X123102854Y-112487875D01*
X122951235Y-112410620D01*
X122951232Y-112410619D01*
X122775265Y-112353445D01*
X122632972Y-112330908D01*
X122592514Y-112324500D01*
X122407486Y-112324500D01*
X122367028Y-112330908D01*
X122224734Y-112353445D01*
X122048767Y-112410619D01*
X122048764Y-112410620D01*
X121883903Y-112494622D01*
X121830214Y-112533630D01*
X121734213Y-112603379D01*
X121734211Y-112603381D01*
X121734210Y-112603381D01*
X121603381Y-112734210D01*
X121600314Y-112738432D01*
X121544981Y-112781094D01*
X121475367Y-112787069D01*
X121413574Y-112754459D01*
X121399686Y-112738432D01*
X121396621Y-112734213D01*
X121265787Y-112603379D01*
X121116096Y-112494622D01*
X121102854Y-112487875D01*
X120951235Y-112410620D01*
X120951232Y-112410619D01*
X120775265Y-112353445D01*
X120632972Y-112330908D01*
X120592514Y-112324500D01*
X120407486Y-112324500D01*
X120367028Y-112330908D01*
X120224734Y-112353445D01*
X120048767Y-112410619D01*
X120048764Y-112410620D01*
X119883903Y-112494622D01*
X119830214Y-112533630D01*
X119734213Y-112603379D01*
X119734211Y-112603381D01*
X119734210Y-112603381D01*
X119603381Y-112734210D01*
X119600314Y-112738432D01*
X119544981Y-112781094D01*
X119475367Y-112787069D01*
X119413574Y-112754459D01*
X119399686Y-112738432D01*
X119396621Y-112734213D01*
X119265787Y-112603379D01*
X119116096Y-112494622D01*
X119102854Y-112487875D01*
X118951235Y-112410620D01*
X118951232Y-112410619D01*
X118775265Y-112353445D01*
X118632972Y-112330908D01*
X118592514Y-112324500D01*
X118407486Y-112324500D01*
X118367028Y-112330908D01*
X118224734Y-112353445D01*
X118048767Y-112410619D01*
X118048764Y-112410620D01*
X117883900Y-112494624D01*
X117768392Y-112578545D01*
X117702586Y-112602025D01*
X117634532Y-112586199D01*
X117596241Y-112552539D01*
X117547833Y-112487875D01*
X117532546Y-112467454D01*
X117532544Y-112467453D01*
X117532544Y-112467452D01*
X117417335Y-112381206D01*
X117417328Y-112381202D01*
X117282482Y-112330908D01*
X117282483Y-112330908D01*
X117222883Y-112324501D01*
X117222881Y-112324500D01*
X117222873Y-112324500D01*
X117222864Y-112324500D01*
X115777129Y-112324500D01*
X115777123Y-112324501D01*
X115717516Y-112330908D01*
X115582671Y-112381202D01*
X115582668Y-112381204D01*
X115548811Y-112406550D01*
X115483346Y-112430967D01*
X115415074Y-112416115D01*
X115365668Y-112366710D01*
X115350500Y-112307283D01*
X115350500Y-107385837D01*
X116799500Y-107385837D01*
X116799500Y-107614162D01*
X116835215Y-107839660D01*
X116905770Y-108056803D01*
X117009421Y-108260228D01*
X117143621Y-108444937D01*
X117305063Y-108606379D01*
X117489772Y-108740579D01*
X117585884Y-108789550D01*
X117693196Y-108844229D01*
X117693198Y-108844229D01*
X117693201Y-108844231D01*
X117809592Y-108882049D01*
X117910339Y-108914784D01*
X118135838Y-108950500D01*
X118135843Y-108950500D01*
X120264162Y-108950500D01*
X120489660Y-108914784D01*
X120706799Y-108844231D01*
X120910228Y-108740579D01*
X121094937Y-108606379D01*
X121256379Y-108444937D01*
X121390579Y-108260228D01*
X121494231Y-108056799D01*
X121564784Y-107839660D01*
X121600500Y-107614162D01*
X121600500Y-107385837D01*
X121949500Y-107385837D01*
X121949500Y-107614162D01*
X121985215Y-107839660D01*
X122055770Y-108056803D01*
X122159421Y-108260228D01*
X122293621Y-108444937D01*
X122455063Y-108606379D01*
X122639772Y-108740579D01*
X122735884Y-108789550D01*
X122843196Y-108844229D01*
X122843198Y-108844229D01*
X122843201Y-108844231D01*
X122959592Y-108882049D01*
X123060339Y-108914784D01*
X123285838Y-108950500D01*
X123285843Y-108950500D01*
X125414162Y-108950500D01*
X125639660Y-108914784D01*
X125856799Y-108844231D01*
X126060228Y-108740579D01*
X126244937Y-108606379D01*
X126406379Y-108444937D01*
X126540579Y-108260228D01*
X126644231Y-108056799D01*
X126714784Y-107839660D01*
X126750500Y-107614162D01*
X126750500Y-107385837D01*
X127099500Y-107385837D01*
X127099500Y-107614162D01*
X127135215Y-107839660D01*
X127205770Y-108056803D01*
X127309421Y-108260228D01*
X127443621Y-108444937D01*
X127605063Y-108606379D01*
X127789772Y-108740579D01*
X127885884Y-108789550D01*
X127993196Y-108844229D01*
X127993198Y-108844229D01*
X127993201Y-108844231D01*
X128109592Y-108882049D01*
X128210339Y-108914784D01*
X128435838Y-108950500D01*
X128435843Y-108950500D01*
X130564162Y-108950500D01*
X130789660Y-108914784D01*
X131006799Y-108844231D01*
X131210228Y-108740579D01*
X131394937Y-108606379D01*
X131556379Y-108444937D01*
X131690579Y-108260228D01*
X131794231Y-108056799D01*
X131864784Y-107839660D01*
X131900500Y-107614162D01*
X131900500Y-107385837D01*
X131864784Y-107160339D01*
X131794229Y-106943196D01*
X131690578Y-106739771D01*
X131556379Y-106555063D01*
X131394937Y-106393621D01*
X131210228Y-106259421D01*
X131006803Y-106155770D01*
X130789660Y-106085215D01*
X130564162Y-106049500D01*
X130564157Y-106049500D01*
X128435843Y-106049500D01*
X128435838Y-106049500D01*
X128210339Y-106085215D01*
X127993196Y-106155770D01*
X127789771Y-106259421D01*
X127605061Y-106393622D01*
X127443622Y-106555061D01*
X127309421Y-106739771D01*
X127205770Y-106943196D01*
X127135215Y-107160339D01*
X127099500Y-107385837D01*
X126750500Y-107385837D01*
X126714784Y-107160339D01*
X126644229Y-106943196D01*
X126540578Y-106739771D01*
X126406379Y-106555063D01*
X126244937Y-106393621D01*
X126060228Y-106259421D01*
X125856803Y-106155770D01*
X125639660Y-106085215D01*
X125414162Y-106049500D01*
X125414157Y-106049500D01*
X123285843Y-106049500D01*
X123285838Y-106049500D01*
X123060339Y-106085215D01*
X122843196Y-106155770D01*
X122639771Y-106259421D01*
X122455061Y-106393622D01*
X122293622Y-106555061D01*
X122159421Y-106739771D01*
X122055770Y-106943196D01*
X121985215Y-107160339D01*
X121949500Y-107385837D01*
X121600500Y-107385837D01*
X121564784Y-107160339D01*
X121494229Y-106943196D01*
X121390578Y-106739771D01*
X121256379Y-106555063D01*
X121094937Y-106393621D01*
X120910228Y-106259421D01*
X120706803Y-106155770D01*
X120489660Y-106085215D01*
X120264162Y-106049500D01*
X120264157Y-106049500D01*
X118135843Y-106049500D01*
X118135838Y-106049500D01*
X117910339Y-106085215D01*
X117693196Y-106155770D01*
X117489771Y-106259421D01*
X117305061Y-106393622D01*
X117143622Y-106555061D01*
X117009421Y-106739771D01*
X116905770Y-106943196D01*
X116835215Y-107160339D01*
X116799500Y-107385837D01*
X115350500Y-107385837D01*
X115350500Y-102785837D01*
X116799500Y-102785837D01*
X116799500Y-103014162D01*
X116835215Y-103239660D01*
X116905770Y-103456803D01*
X117009421Y-103660228D01*
X117143621Y-103844937D01*
X117305063Y-104006379D01*
X117489772Y-104140579D01*
X117585884Y-104189550D01*
X117693196Y-104244229D01*
X117693198Y-104244229D01*
X117693201Y-104244231D01*
X117809592Y-104282049D01*
X117910339Y-104314784D01*
X118135838Y-104350500D01*
X118135843Y-104350500D01*
X120264162Y-104350500D01*
X120489660Y-104314784D01*
X120706799Y-104244231D01*
X120910228Y-104140579D01*
X121094937Y-104006379D01*
X121256379Y-103844937D01*
X121390579Y-103660228D01*
X121494231Y-103456799D01*
X121564784Y-103239660D01*
X121600500Y-103014162D01*
X121600500Y-102785837D01*
X121949500Y-102785837D01*
X121949500Y-103014162D01*
X121985215Y-103239660D01*
X122055770Y-103456803D01*
X122159421Y-103660228D01*
X122293621Y-103844937D01*
X122455063Y-104006379D01*
X122639772Y-104140579D01*
X122735884Y-104189550D01*
X122843196Y-104244229D01*
X122843198Y-104244229D01*
X122843201Y-104244231D01*
X122959592Y-104282049D01*
X123060339Y-104314784D01*
X123285838Y-104350500D01*
X123285843Y-104350500D01*
X125414162Y-104350500D01*
X125639660Y-104314784D01*
X125856799Y-104244231D01*
X126060228Y-104140579D01*
X126244937Y-104006379D01*
X126406379Y-103844937D01*
X126540579Y-103660228D01*
X126644231Y-103456799D01*
X126714784Y-103239660D01*
X126750500Y-103014162D01*
X126750500Y-102785837D01*
X127099500Y-102785837D01*
X127099500Y-103014162D01*
X127135215Y-103239660D01*
X127205770Y-103456803D01*
X127309421Y-103660228D01*
X127443621Y-103844937D01*
X127605063Y-104006379D01*
X127789772Y-104140579D01*
X127885884Y-104189550D01*
X127993196Y-104244229D01*
X127993198Y-104244229D01*
X127993201Y-104244231D01*
X128109592Y-104282049D01*
X128210339Y-104314784D01*
X128435838Y-104350500D01*
X128435843Y-104350500D01*
X130564162Y-104350500D01*
X130789660Y-104314784D01*
X131006799Y-104244231D01*
X131210228Y-104140579D01*
X131394937Y-104006379D01*
X131556379Y-103844937D01*
X131690579Y-103660228D01*
X131794231Y-103456799D01*
X131864784Y-103239660D01*
X131900500Y-103014162D01*
X131900500Y-102785837D01*
X131864784Y-102560339D01*
X131794229Y-102343196D01*
X131690578Y-102139771D01*
X131556379Y-101955063D01*
X131394937Y-101793621D01*
X131210228Y-101659421D01*
X131006803Y-101555770D01*
X130789660Y-101485215D01*
X130564162Y-101449500D01*
X130564157Y-101449500D01*
X128435843Y-101449500D01*
X128435838Y-101449500D01*
X128210339Y-101485215D01*
X127993196Y-101555770D01*
X127789771Y-101659421D01*
X127605061Y-101793622D01*
X127443622Y-101955061D01*
X127309421Y-102139771D01*
X127205770Y-102343196D01*
X127135215Y-102560339D01*
X127099500Y-102785837D01*
X126750500Y-102785837D01*
X126714784Y-102560339D01*
X126644229Y-102343196D01*
X126540578Y-102139771D01*
X126406379Y-101955063D01*
X126244937Y-101793621D01*
X126060228Y-101659421D01*
X125856803Y-101555770D01*
X125639660Y-101485215D01*
X125414162Y-101449500D01*
X125414157Y-101449500D01*
X123285843Y-101449500D01*
X123285838Y-101449500D01*
X123060339Y-101485215D01*
X122843196Y-101555770D01*
X122639771Y-101659421D01*
X122455061Y-101793622D01*
X122293622Y-101955061D01*
X122159421Y-102139771D01*
X122055770Y-102343196D01*
X121985215Y-102560339D01*
X121949500Y-102785837D01*
X121600500Y-102785837D01*
X121564784Y-102560339D01*
X121494229Y-102343196D01*
X121390578Y-102139771D01*
X121256379Y-101955063D01*
X121094937Y-101793621D01*
X120910228Y-101659421D01*
X120706803Y-101555770D01*
X120489660Y-101485215D01*
X120264162Y-101449500D01*
X120264157Y-101449500D01*
X118135843Y-101449500D01*
X118135838Y-101449500D01*
X117910339Y-101485215D01*
X117693196Y-101555770D01*
X117489771Y-101659421D01*
X117305061Y-101793622D01*
X117143622Y-101955061D01*
X117009421Y-102139771D01*
X116905770Y-102343196D01*
X116835215Y-102560339D01*
X116799500Y-102785837D01*
X115350500Y-102785837D01*
X115350500Y-97410645D01*
X116799500Y-97410645D01*
X116799500Y-99189363D01*
X116814953Y-99306753D01*
X116814956Y-99306762D01*
X116875464Y-99452841D01*
X116971718Y-99578282D01*
X117097159Y-99674536D01*
X117243238Y-99735044D01*
X117360639Y-99750500D01*
X121039360Y-99750499D01*
X121039363Y-99750499D01*
X121156753Y-99735046D01*
X121156757Y-99735044D01*
X121156762Y-99735044D01*
X121302841Y-99674536D01*
X121428282Y-99578282D01*
X121524536Y-99452841D01*
X121585044Y-99306762D01*
X121600500Y-99189361D01*
X121600499Y-98285837D01*
X121949500Y-98285837D01*
X121949500Y-98514162D01*
X121985215Y-98739660D01*
X122055770Y-98956803D01*
X122159421Y-99160228D01*
X122293621Y-99344937D01*
X122455063Y-99506379D01*
X122639772Y-99640579D01*
X122706417Y-99674536D01*
X122843196Y-99744229D01*
X122843198Y-99744229D01*
X122843201Y-99744231D01*
X122959592Y-99782049D01*
X123060339Y-99814784D01*
X123285838Y-99850500D01*
X123285843Y-99850500D01*
X125414162Y-99850500D01*
X125639660Y-99814784D01*
X125856799Y-99744231D01*
X126060228Y-99640579D01*
X126244937Y-99506379D01*
X126406379Y-99344937D01*
X126540579Y-99160228D01*
X126644231Y-98956799D01*
X126714784Y-98739660D01*
X126750500Y-98514162D01*
X126750500Y-98285837D01*
X127099500Y-98285837D01*
X127099500Y-98514162D01*
X127135215Y-98739660D01*
X127205770Y-98956803D01*
X127309421Y-99160228D01*
X127443621Y-99344937D01*
X127605063Y-99506379D01*
X127789772Y-99640579D01*
X127856417Y-99674536D01*
X127993196Y-99744229D01*
X127993198Y-99744229D01*
X127993201Y-99744231D01*
X128109592Y-99782049D01*
X128210339Y-99814784D01*
X128435838Y-99850500D01*
X128435843Y-99850500D01*
X130564162Y-99850500D01*
X130789660Y-99814784D01*
X131006799Y-99744231D01*
X131210228Y-99640579D01*
X131394937Y-99506379D01*
X131556379Y-99344937D01*
X131690579Y-99160228D01*
X131794231Y-98956799D01*
X131864784Y-98739660D01*
X131900500Y-98514162D01*
X131900500Y-98285837D01*
X131864784Y-98060339D01*
X131794229Y-97843196D01*
X131690578Y-97639771D01*
X131556379Y-97455063D01*
X131394937Y-97293621D01*
X131210228Y-97159421D01*
X131006803Y-97055770D01*
X130789660Y-96985215D01*
X130564162Y-96949500D01*
X130564157Y-96949500D01*
X128435843Y-96949500D01*
X128435838Y-96949500D01*
X128210339Y-96985215D01*
X127993196Y-97055770D01*
X127789771Y-97159421D01*
X127605061Y-97293622D01*
X127443622Y-97455061D01*
X127309421Y-97639771D01*
X127205770Y-97843196D01*
X127135215Y-98060339D01*
X127099500Y-98285837D01*
X126750500Y-98285837D01*
X126714784Y-98060339D01*
X126644229Y-97843196D01*
X126540578Y-97639771D01*
X126406379Y-97455063D01*
X126244937Y-97293621D01*
X126060228Y-97159421D01*
X125856803Y-97055770D01*
X125639660Y-96985215D01*
X125414162Y-96949500D01*
X125414157Y-96949500D01*
X123285843Y-96949500D01*
X123285838Y-96949500D01*
X123060339Y-96985215D01*
X122843196Y-97055770D01*
X122639771Y-97159421D01*
X122455061Y-97293622D01*
X122293622Y-97455061D01*
X122159421Y-97639771D01*
X122055770Y-97843196D01*
X121985215Y-98060339D01*
X121949500Y-98285837D01*
X121600499Y-98285837D01*
X121600499Y-97410640D01*
X121600499Y-97410639D01*
X121600499Y-97410636D01*
X121585046Y-97293246D01*
X121585044Y-97293239D01*
X121585044Y-97293238D01*
X121524536Y-97147159D01*
X121428282Y-97021718D01*
X121302841Y-96925464D01*
X121156762Y-96864956D01*
X121156760Y-96864955D01*
X121039370Y-96849501D01*
X121039367Y-96849500D01*
X121039361Y-96849500D01*
X121039354Y-96849500D01*
X117360636Y-96849500D01*
X117243246Y-96864953D01*
X117243237Y-96864956D01*
X117097160Y-96925463D01*
X116971718Y-97021718D01*
X116875463Y-97147160D01*
X116814956Y-97293237D01*
X116814955Y-97293239D01*
X116814905Y-97293622D01*
X116799501Y-97410636D01*
X116799500Y-97410645D01*
X115350500Y-97410645D01*
X115350500Y-95306961D01*
X115351280Y-95293077D01*
X115351280Y-95293076D01*
X115361460Y-95202729D01*
X115367635Y-95175670D01*
X115395353Y-95096456D01*
X115407396Y-95071450D01*
X115452046Y-95000389D01*
X115469351Y-94978690D01*
X115528690Y-94919351D01*
X115550389Y-94902046D01*
X115621450Y-94857396D01*
X115646456Y-94845353D01*
X115725670Y-94817635D01*
X115752733Y-94811459D01*
X115815419Y-94804396D01*
X115843079Y-94801280D01*
X115856962Y-94800500D01*
X115915892Y-94800500D01*
X132784108Y-94800500D01*
X132843038Y-94800500D01*
X132856922Y-94801280D01*
G37*
%TD.AperFunction*%
M02*
